<svg width="88" height="88" viewBox="0 0 88 88" fill="none" xmlns="http://www.w3.org/2000/svg">
<path d="M80.8635 84.4324H7.13371C5.87214 84.4324 4.66224 83.9313 3.77018 83.0392C2.87811 82.1472 2.37695 80.9373 2.37695 79.6757V28.5406C2.37695 28.2252 2.50224 27.9227 2.72526 27.6997C2.94827 27.4767 3.25075 27.3514 3.56614 27.3514H84.431C84.7464 27.3514 85.0489 27.4767 85.2719 27.6997C85.4949 27.9227 85.6202 28.2252 85.6202 28.5406V79.6757C85.6202 80.9373 85.1191 82.1472 84.227 83.0392C83.3349 83.9313 82.125 84.4324 80.8635 84.4324ZM4.75533 29.7298V79.6757C4.75533 80.3065 5.00591 80.9114 5.45194 81.3575C5.89798 81.8035 6.50293 82.0541 7.13371 82.0541H80.8635C81.4942 82.0541 82.0992 81.8035 82.5452 81.3575C82.9913 80.9114 83.2418 80.3065 83.2418 79.6757V29.7298H4.75533Z" fill="white"/>
<path d="M84.431 29.7297H3.56614C3.25075 29.7297 2.94827 29.6044 2.72526 29.3814C2.50224 29.1584 2.37695 28.8559 2.37695 28.5405V15.4595C2.37695 14.1979 2.87811 12.988 3.77018 12.0959C4.66224 11.2039 5.87214 10.7027 7.13371 10.7027H17.8364C18.1518 10.7027 18.4543 10.828 18.6773 11.051C18.9003 11.274 19.0256 11.5765 19.0256 11.8919C19.0256 12.2073 18.9003 12.5098 18.6773 12.7328C18.4543 12.9558 18.1518 13.0811 17.8364 13.0811H7.13371C6.50293 13.0811 5.89798 13.3317 5.45194 13.7777C5.00591 14.2237 4.75533 14.8287 4.75533 15.4595V27.3513H83.2418V15.4595C83.2418 14.8287 82.9913 14.2237 82.5452 13.7777C82.0992 13.3317 81.4942 13.0811 80.8635 13.0811H70.1608C69.8454 13.0811 69.5429 12.9558 69.3199 12.7328C69.0968 12.5098 68.9716 12.2073 68.9716 11.8919C68.9716 11.5765 69.0968 11.274 69.3199 11.051C69.5429 10.828 69.8454 10.7027 70.1608 10.7027H80.8635C82.125 10.7027 83.3349 11.2039 84.227 12.0959C85.1191 12.988 85.6202 14.1979 85.6202 15.4595V28.5405C85.6202 28.8559 85.4949 29.1584 85.2719 29.3814C85.0489 29.6044 84.7464 29.7297 84.431 29.7297Z" fill="white"/>
<path d="M61.8375 13.0811H26.1618C25.8465 13.0811 25.544 12.9558 25.321 12.7328C25.0979 12.5098 24.9727 12.2073 24.9727 11.8919C24.9727 11.5765 25.0979 11.274 25.321 11.051C25.544 10.828 25.8465 10.7027 26.1618 10.7027H61.8375C62.1529 10.7027 62.4554 10.828 62.6784 11.051C62.9014 11.274 63.0267 11.5765 63.0267 11.8919C63.0267 12.2073 62.9014 12.5098 62.6784 12.7328C62.4554 12.9558 62.1529 13.0811 61.8375 13.0811Z" fill="white"/>
<path d="M68.9728 20.2162H63.0268C62.396 20.2162 61.7911 19.9656 61.345 19.5196C60.899 19.0736 60.6484 18.4686 60.6484 17.8378V5.94594C60.6484 5.31516 60.899 4.71021 61.345 4.26418C61.7911 3.81814 62.396 3.56757 63.0268 3.56757H68.9728C69.6035 3.56757 70.2085 3.81814 70.6545 4.26418C71.1006 4.71021 71.3511 5.31516 71.3511 5.94594V17.8378C71.3511 18.4686 71.1006 19.0736 70.6545 19.5196C70.2085 19.9656 69.6035 20.2162 68.9728 20.2162ZM63.0268 5.94594V17.8378H68.9728V5.94594H63.0268Z" fill="white"/>
<path d="M24.9728 20.2162H19.0268C18.396 20.2162 17.7911 19.9656 17.345 19.5196C16.899 19.0736 16.6484 18.4686 16.6484 17.8378V5.94594C16.6484 5.31516 16.899 4.71021 17.345 4.26418C17.7911 3.81814 18.396 3.56757 19.0268 3.56757H24.9728C25.6035 3.56757 26.2085 3.81814 26.6545 4.26418C27.1006 4.71021 27.3511 5.31516 27.3511 5.94594V17.8378C27.3511 18.4686 27.1006 19.0736 26.6545 19.5196C26.2085 19.9656 25.6035 20.2162 24.9728 20.2162ZM24.9728 5.94594H19.0268V17.8378H24.9728V5.94594Z" fill="white"/>
<path d="M72.1697 46.3784H66.3712C65.8787 46.3777 65.4066 46.1818 65.0584 45.8336C64.7102 45.4854 64.5143 45.0133 64.5137 44.5209V38.7224C64.5143 38.2299 64.7102 37.7578 65.0584 37.4096C65.4066 37.0614 65.8787 36.8655 66.3712 36.8649H72.1697C72.6621 36.8655 73.1342 37.0614 73.4824 37.4096C73.8306 37.7578 74.0265 38.2299 74.0272 38.7224V44.5209C74.0265 45.0133 73.8306 45.4854 73.4824 45.8336C73.1342 46.1818 72.6621 46.3777 72.1697 46.3784ZM66.892 44H71.6488V39.2432H66.892V44Z" fill="white"/>
<path d="M55.322 46.3784H49.5247C49.0321 46.3781 48.5597 46.1823 48.2112 45.834C47.8627 45.4858 47.6666 45.0135 47.666 44.5209V38.7224C47.6666 38.2297 47.8627 37.7574 48.2112 37.4092C48.5597 37.0609 49.0321 36.8652 49.5247 36.8649H55.322C55.8145 36.8655 56.2866 37.0614 56.6348 37.4096C56.983 37.7578 57.1789 38.2299 57.1795 38.7224V44.5209C57.1789 45.0133 56.983 45.4854 56.6348 45.8336C56.2866 46.1818 55.8145 46.3777 55.322 46.3784ZM50.0444 44H54.8011V39.2432H50.0444V44Z" fill="white"/>
<path d="M38.4732 46.3784H32.6759C32.1834 46.3777 31.7113 46.1818 31.3631 45.8336C31.0149 45.4854 30.819 45.0133 30.8184 44.5209V38.7224C30.819 38.2299 31.0149 37.7578 31.3631 37.4096C31.7113 37.0614 32.1834 36.8655 32.6759 36.8649H38.4732C38.9658 36.8652 39.4382 37.0609 39.7867 37.4092C40.1352 37.7574 40.3312 38.2297 40.3319 38.7224V44.5209C40.3312 45.0135 40.1352 45.4858 39.7867 45.834C39.4382 46.1823 38.9658 46.3781 38.4732 46.3784ZM33.1967 44H37.9535V39.2432H33.1967V44Z" fill="white"/>
<path d="M72.1697 60.6486H66.3712C65.8787 60.648 65.4066 60.4521 65.0584 60.1039C64.7102 59.7557 64.5143 59.2836 64.5137 58.7911V52.9926C64.5143 52.5002 64.7102 52.0281 65.0584 51.6799C65.4066 51.3317 65.8787 51.1358 66.3712 51.1351H72.1697C72.6621 51.1358 73.1342 51.3317 73.4824 51.6799C73.8306 52.0281 74.0265 52.5002 74.0272 52.9926V58.7911C74.0265 59.2836 73.8306 59.7557 73.4824 60.1039C73.1342 60.4521 72.6621 60.648 72.1697 60.6486ZM66.892 58.2703H71.6488V53.5135H66.892V58.2703Z" fill="white"/>
<path d="M55.322 60.6486H49.5247C49.0321 60.6483 48.5597 60.4526 48.2112 60.1043C47.8627 59.7561 47.6666 59.2838 47.666 58.7911V52.9926C47.6666 52.5 47.8627 52.0277 48.2112 51.6795C48.5597 51.3312 49.0321 51.1354 49.5247 51.1351H55.322C55.8145 51.1358 56.2866 51.3317 56.6348 51.6799C56.983 52.0281 57.1789 52.5002 57.1795 52.9926V58.7911C57.1789 59.2836 56.983 59.7557 56.6348 60.1039C56.2866 60.4521 55.8145 60.648 55.322 60.6486ZM50.0444 58.2703H54.8011V53.5135H50.0444V58.2703Z" fill="white"/>
<path d="M38.4732 60.6486H32.6759C32.1834 60.648 31.7113 60.4521 31.3631 60.1039C31.0149 59.7557 30.819 59.2836 30.8184 58.7911V52.9926C30.819 52.5002 31.0149 52.0281 31.3631 51.6799C31.7113 51.3317 32.1834 51.1358 32.6759 51.1351H38.4732C38.9658 51.1354 39.4382 51.3312 39.7867 51.6795C40.1352 52.0277 40.3312 52.5 40.3319 52.9926V58.7911C40.3312 59.2838 40.1352 59.7561 39.7867 60.1043C39.4382 60.4526 38.9658 60.6483 38.4732 60.6486ZM33.1967 58.2703H37.9535V53.5135H33.1967V58.2703Z" fill="white"/>
<path d="M21.6287 60.6486H15.8302C15.3377 60.648 14.8656 60.4521 14.5174 60.1039C14.1692 59.7557 13.9733 59.2836 13.9727 58.7911V52.9926C13.9733 52.5002 14.1692 52.0281 14.5174 51.6799C14.8656 51.3317 15.3377 51.1358 15.8302 51.1351H21.6287C22.1211 51.1358 22.5932 51.3317 22.9414 51.6799C23.2896 52.0281 23.4855 52.5002 23.4862 52.9926V58.7911C23.4855 59.2836 23.2896 59.7557 22.9414 60.1039C22.5932 60.4521 22.1211 60.648 21.6287 60.6486ZM16.351 58.2703H21.1078V53.5135H16.351V58.2703Z" fill="white"/>
<path d="M55.322 74.9189H49.5247C49.0321 74.9186 48.5597 74.7228 48.2112 74.3746C47.8627 74.0263 47.6666 73.554 47.666 73.0614V67.2629C47.6666 66.7703 47.8627 66.298 48.2112 65.9497C48.5597 65.6015 49.0321 65.4057 49.5247 65.4054H55.322C55.8145 65.406 56.2866 65.6019 56.6348 65.9501C56.983 66.2984 57.1789 66.7705 57.1795 67.2629V73.0614C57.1789 73.5538 56.983 74.0259 56.6348 74.3742C56.2866 74.7224 55.8145 74.9183 55.322 74.9189ZM50.0444 72.5405H54.8011V67.7838H50.0444V72.5405Z" fill="white"/>
<path d="M38.4732 74.9189H32.6759C32.1834 74.9183 31.7113 74.7224 31.3631 74.3742C31.0149 74.0259 30.819 73.5538 30.8184 73.0614V67.2629C30.819 66.7705 31.0149 66.2984 31.3631 65.9501C31.7113 65.6019 32.1834 65.406 32.6759 65.4054H38.4732C38.9658 65.4057 39.4382 65.6015 39.7867 65.9497C40.1352 66.298 40.3312 66.7703 40.3319 67.2629V73.0614C40.3312 73.554 40.1352 74.0263 39.7867 74.3746C39.4382 74.7228 38.9658 74.9186 38.4732 74.9189ZM33.1967 72.5405H37.9535V67.7838H33.1967V72.5405Z" fill="white"/>
<path d="M21.6287 74.9189H15.8302C15.3377 74.9183 14.8656 74.7224 14.5174 74.3742C14.1692 74.0259 13.9733 73.5538 13.9727 73.0614V67.2629C13.9733 66.7705 14.1692 66.2984 14.5174 65.9501C14.8656 65.6019 15.3377 65.406 15.8302 65.4054H21.6287C22.1211 65.406 22.5932 65.6019 22.9414 65.9501C23.2896 66.2984 23.4855 66.7705 23.4862 67.2629V73.0614C23.4855 73.5538 23.2896 74.0259 22.9414 74.3742C22.5932 74.7224 22.1211 74.9183 21.6287 74.9189ZM16.351 72.5405H21.1078V67.7838H16.351V72.5405Z" fill="white"/>
</svg>
