<svg width="972" height="700" viewBox="0 0 972 700" fill="none" xmlns="http://www.w3.org/2000/svg">
<g opacity="0.4">
<path d="M193.695 700.726C216.229 669.47 240.797 639.522 266.965 611.174C278.595 598.526 290.952 586.024 306.362 578.464C345.759 559.275 393.007 577.883 430.078 601.143C464.241 622.659 495.933 648.1 524.136 677.03C552.049 705.669 577.199 738.088 611.071 759.458C644.944 780.828 691.319 788.679 724.174 765.709C743.655 752.044 755.285 729.22 759.792 705.814C764.298 682.409 762.118 658.276 758.192 634.725C753.831 607.83 747.435 579.773 756.012 553.75C764.88 527.001 790.321 506.358 818.378 503.45C858.357 499.234 893.393 527.146 927.12 548.953C969.861 576.72 1019.58 597.509 1070.46 594.601C1121.34 591.694 1172.81 560.583 1188.07 511.882" stroke="#A08B8B" stroke-miterlimit="10"/>
<path d="M199.074 711.193C221.317 680.373 245.449 651.153 271.326 623.386C282.811 611.029 295.023 598.817 310.142 591.548C340.526 576.72 375.707 584.279 407.108 598.817C415.685 602.742 423.972 607.249 431.822 612.046C465.695 632.399 496.951 656.677 525.154 684.444C552.921 711.92 577.925 743.176 611.507 763.819C630.261 775.304 652.504 783.3 674.456 784.608C693.5 785.771 712.544 781.991 728.39 771.234C731.152 769.344 733.915 767.163 736.386 764.837C751.941 750.736 761.391 730.383 765.461 709.594C766.77 702.907 767.642 696.219 768.078 689.387C769.241 671.796 767.933 653.915 765.897 636.47C762.699 608.848 758.483 580.5 768.078 554.623C777.527 528.891 801.951 508.974 829.427 505.921C868.388 501.705 902.842 527.873 935.697 548.226C938.314 549.825 940.931 551.424 943.548 553.023C983.526 576.429 1028.74 592.566 1074.68 588.931C1123.67 585.006 1172.81 554.041 1186.91 506.358" stroke="#A08B8B" stroke-miterlimit="10"/>
<path d="M204.309 721.515C226.115 691.276 249.957 662.492 275.543 635.452C286.882 623.386 298.949 611.61 313.923 604.341C343.87 589.804 378.179 596.491 409.144 610.156C417.576 613.936 425.717 618.152 433.567 622.513C467.004 641.558 498.115 664.818 526.027 691.277C553.794 717.444 578.653 747.683 611.799 767.599C631.28 779.229 654.104 787.516 676.782 789.26C696.408 790.714 716.034 787.225 732.462 776.322C735.369 774.432 738.131 772.251 740.748 769.925C756.885 755.533 766.625 734.599 770.986 713.228C772.44 706.396 773.312 699.418 773.894 692.44C775.348 674.267 774.621 655.95 773.312 638.069C771.277 609.72 769.097 581.081 779.854 555.349C790.031 530.781 813.436 511.446 840.186 508.393C878.274 504.032 911.856 528.6 944.13 547.499C946.601 548.953 949.218 550.407 951.835 551.86C990.796 573.376 1034.55 587.768 1078.75 583.116C1125.71 578.174 1172.52 547.354 1185.6 500.833" stroke="#A08B8B" stroke-miterlimit="10"/>
<path d="M209.543 731.982C230.913 702.18 254.464 674.122 279.76 647.664C290.954 635.888 302.875 624.403 317.558 617.28C346.924 602.888 380.506 608.993 411.035 621.641C419.321 625.13 427.462 629.055 435.167 633.271C468.168 651.153 498.988 673.104 526.9 698.4C554.522 723.405 579.236 752.48 612.091 771.524C632.298 783.3 655.704 791.877 678.964 794.058C699.171 795.948 719.524 792.459 736.533 781.555C739.586 779.52 742.493 777.339 745.256 775.013C762.119 760.33 772.005 738.815 776.802 716.717C778.256 709.594 779.419 702.471 780.001 695.347C781.745 676.739 781.454 657.84 780.873 639.522C780.001 610.447 780.001 581.663 791.776 555.786C802.534 532.38 825.067 513.626 851.09 510.428C888.161 505.921 921.161 528.891 952.563 546.191C955.034 547.499 957.505 548.953 960.122 550.261C998.211 570.032 1040.52 582.535 1082.82 576.865C1127.89 570.759 1172.23 540.23 1184.29 494.873" stroke="#A08B8B" stroke-miterlimit="10"/>
<path d="M214.918 742.449C235.852 713.228 259.112 685.607 284.117 660.021C295.311 648.681 307.087 637.342 321.334 630.364C350.118 616.262 383.119 621.641 413.066 633.271C421.207 636.47 429.203 640.104 436.763 644.029C469.327 660.747 500.001 681.536 527.623 705.523C555.099 729.365 579.813 757.277 612.232 775.595C633.166 787.516 657.153 796.384 681.141 798.855C701.784 801.036 722.864 797.838 740.454 786.789C743.652 784.754 746.56 782.573 749.468 780.247C766.913 765.273 777.089 743.176 782.177 720.497C783.776 713.228 784.939 705.96 785.812 698.545C787.992 679.501 788.138 660.021 788.283 641.412C788.574 611.465 790.609 582.68 803.548 556.803C814.742 534.561 836.403 516.389 861.844 513.045C898.042 508.393 930.316 529.909 960.99 545.609C963.462 546.918 965.788 548.081 968.259 549.244C1005.33 567.125 1046.18 577.883 1086.6 571.196C1129.63 564.072 1171.79 533.688 1182.69 489.348" stroke="#A08B8B" stroke-miterlimit="10"/>
<path d="M220.152 752.916C240.65 724.132 263.62 697.237 288.334 672.232C299.383 661.184 311.013 650.28 325.114 643.302C353.317 629.491 385.591 633.998 415.102 644.901C423.098 647.809 430.948 651.298 438.508 654.787C470.636 670.342 501.02 689.823 528.641 712.647C555.972 735.326 580.686 762.075 612.669 779.665C634.33 791.732 658.899 800.89 683.467 803.798C704.692 806.269 726.499 803.362 744.671 792.168C747.869 790.133 751.067 787.952 753.975 785.48C772.147 770.216 782.469 747.537 787.848 724.132C789.592 716.717 790.755 709.158 791.773 701.598C794.244 681.972 794.971 662.201 795.843 643.012C797.297 612.337 801.222 583.407 815.469 557.385C827.099 536.305 848.034 518.569 872.748 515.371C907.929 510.719 939.476 530.49 969.423 544.737C971.749 545.9 974.221 546.918 976.547 548.081C1012.75 564.072 1052.14 572.94 1090.67 565.38C1131.81 557.239 1171.5 527.001 1181.38 483.824" stroke="#A08B8B" stroke-miterlimit="10"/>
<path d="M225.387 763.383C245.449 735.18 268.127 708.722 292.551 684.444C303.454 673.686 314.939 663.073 328.749 656.241C356.516 642.575 388.063 646.501 416.993 656.386C424.989 659.003 432.694 662.201 440.108 665.545C471.945 679.937 501.893 698.255 529.514 719.77C556.7 741.141 581.414 766.727 612.961 783.736C635.349 795.802 660.499 805.397 685.794 808.595C707.601 811.358 729.989 808.595 748.742 797.401C752.086 795.366 755.284 793.185 758.337 790.569C777.091 775.159 787.703 751.753 793.373 727.621C795.263 719.916 796.571 712.211 797.589 704.506C800.351 684.444 801.659 664.091 803.259 644.465C805.875 613.064 811.69 583.989 827.246 557.966C839.167 537.904 859.374 520.895 883.506 517.552C917.815 512.754 948.635 530.926 977.856 543.574C980.182 544.592 982.508 545.609 984.834 546.481C1020.01 560.728 1057.96 567.706 1094.74 559.129C1133.84 549.97 1171.21 519.878 1180.07 477.718" stroke="#A08B8B" stroke-miterlimit="10"/>
<path d="M230.621 773.85C250.392 746.083 272.635 720.352 296.767 696.655C307.525 686.188 318.865 675.867 332.385 669.179C359.57 655.805 390.39 658.858 418.884 667.871C426.734 670.342 434.294 673.104 441.708 676.157C473.109 689.387 502.911 706.396 530.242 726.894C557.282 747.101 581.996 771.524 613.107 787.807C636.222 800.018 661.953 810.049 687.83 813.538C710.073 816.591 733.333 814.12 752.668 802.78C756.157 800.745 759.501 798.419 762.699 795.948C782.18 780.247 792.938 756.26 799.043 731.546C800.933 723.695 802.387 715.7 803.55 707.849C806.603 687.351 808.493 666.417 810.819 646.355C814.599 614.227 822.304 585.006 839.167 558.984C851.379 540.085 871.005 523.657 894.41 520.314C927.702 515.371 957.94 531.944 986.288 543.138C988.469 544.01 990.795 544.882 993.121 545.755C1027.43 558.112 1063.92 563.345 1098.81 553.75C1136.03 543.574 1171.06 513.626 1178.77 472.63" stroke="#A08B8B" stroke-miterlimit="10"/>
<path d="M236 784.318C255.335 757.132 277.287 731.837 301.129 708.867C311.741 698.691 322.935 688.805 336.31 682.118C362.914 669.034 393.007 671.36 421.064 679.356C428.769 681.536 436.184 684.008 443.452 686.915C474.418 698.836 503.929 714.828 531.26 734.017C558.3 753.062 583.014 776.176 613.543 791.877C637.53 804.089 663.698 814.556 690.302 818.481C713.126 821.825 736.968 819.499 756.884 808.159C760.519 806.124 763.862 803.798 767.206 801.181C787.268 785.19 798.317 760.476 804.713 735.18C806.748 727.185 808.347 719.043 809.656 710.902C813.145 689.823 815.471 668.452 818.524 647.954C823.467 615.099 833.062 585.733 851.234 559.565C863.736 541.684 882.78 525.983 905.459 522.494C937.878 517.552 967.244 532.525 995.011 542.12C997.192 542.847 999.372 543.574 1001.55 544.301C1034.99 554.768 1069.88 558.257 1103.03 547.644C1138.35 536.451 1170.92 506.648 1177.46 466.815" stroke="#A08B8B" stroke-miterlimit="10"/>
<path d="M241.23 794.785C260.129 768.035 281.791 743.467 305.342 721.079C315.809 711.193 327.003 701.598 339.941 695.202C366.109 682.263 395.475 684.008 422.951 690.986C430.511 692.876 437.925 695.202 445.048 697.673C475.577 708.431 504.798 723.259 531.984 741.141C558.878 758.877 583.592 780.828 613.685 795.948C638.399 808.305 665.148 819.062 692.334 823.278C715.74 826.913 740.308 824.878 760.806 813.393C764.586 811.358 768.075 809.032 771.419 806.269C792.208 789.987 803.402 764.692 810.089 738.669C812.27 730.383 813.869 722.096 815.322 713.81C819.102 692.294 822.01 670.342 825.79 649.553C831.895 615.971 843.235 586.46 862.861 560.292C875.508 543.574 893.971 528.455 916.068 524.82C947.47 519.732 976.254 533.107 1003.15 541.103C1005.33 541.684 1007.36 542.411 1009.55 542.847C1041.96 551.57 1075.55 553.023 1106.8 541.539C1140.09 529.327 1170.48 499.67 1175.86 460.855" stroke="#A08B8B" stroke-miterlimit="10"/>
<path d="M246.469 805.106C264.932 778.939 286.302 754.951 309.708 733.29C320.029 723.695 331.078 714.391 343.871 708.14C369.457 695.492 398.097 696.51 425.137 702.471C432.551 704.07 439.82 706.105 446.943 708.286C477.036 717.88 506.111 731.4 533.151 748.119C559.901 764.692 584.615 785.335 614.271 799.873C639.712 812.23 667.043 823.424 694.955 828.076C718.943 832.001 744.093 830.111 765.318 818.626C769.097 816.591 772.732 814.12 776.221 811.503C797.591 794.93 809.076 769.053 816.054 742.449C818.235 734.017 819.979 725.44 821.578 717.008C825.649 695.056 829.138 672.523 833.645 651.298C840.913 616.989 853.997 587.187 875.222 561.019C888.015 545.318 906.042 530.926 927.412 527.292C957.942 522.058 985.854 533.834 1012.17 540.376C1014.2 540.957 1016.38 541.393 1018.42 541.829C1049.96 548.662 1081.95 548.371 1111.31 535.869C1142.72 522.64 1170.63 493.128 1174.99 455.476" stroke="#A08B8B" stroke-miterlimit="10"/>
<path d="M251.699 815.573C269.726 789.842 290.806 766.436 313.92 745.502C324.242 736.198 335 727.184 347.502 721.079C372.507 708.722 400.565 708.867 427.023 713.955C434.292 715.409 441.561 717.008 448.539 719.043C478.341 727.475 506.98 739.832 533.875 755.242C560.479 770.652 585.193 789.987 614.414 803.943C640.581 816.446 668.348 827.93 696.988 832.873C721.411 837.089 747.433 835.49 769.094 823.86C773.02 821.825 776.799 819.353 780.434 816.591C802.531 799.727 814.161 773.269 821.575 745.938C823.901 737.361 825.791 728.493 827.39 719.916C831.752 697.382 835.822 674.558 840.91 652.752C849.342 617.716 864.025 587.623 886.849 561.601C899.788 546.772 917.378 533.252 938.022 529.472C967.533 524.239 994.864 534.415 1020.31 539.358C1022.34 539.794 1024.38 540.085 1026.41 540.376C1056.94 545.464 1087.61 543.283 1115.09 529.763C1144.46 515.516 1170.04 486.15 1173.39 449.515" stroke="#A08B8B" stroke-miterlimit="10"/>
<path d="M257.078 826.041C274.669 800.89 295.458 778.066 318.282 757.714C328.458 748.7 339.071 740.123 351.282 734.017C375.705 721.951 403.036 721.369 429.059 725.44C436.182 726.603 443.305 728.057 450.138 729.656C479.504 736.925 507.998 747.973 534.747 762.366C561.206 776.467 586.065 794.639 614.704 807.869C641.744 820.371 669.948 832.437 699.314 837.671C724.318 842.177 750.922 840.869 773.31 829.093C777.381 826.913 781.161 824.587 784.94 821.825C807.619 804.67 819.54 777.63 827.245 749.718C829.716 740.85 831.606 731.982 833.496 723.114C838.294 700.145 842.8 676.739 848.615 654.496C858.21 618.734 874.492 588.35 898.916 562.328C911.854 548.517 929.009 535.578 949.071 531.798C977.71 526.42 1004.31 534.997 1029.03 538.486C1030.92 538.777 1032.95 539.067 1034.84 539.213C1064.5 542.411 1093.57 538.486 1119.31 523.948C1146.78 508.538 1170.04 479.463 1172.22 443.991" stroke="#A08B8B" stroke-miterlimit="10"/>
<path d="M262.312 836.508C279.612 811.794 299.965 789.551 322.498 769.925C332.529 761.203 342.996 752.916 355.063 746.956C379.05 735.035 405.654 733.726 431.095 736.925C438.073 737.797 445.051 738.96 451.884 740.414C480.813 746.52 509.017 756.405 535.766 769.489C562.224 782.428 586.938 799.291 615.141 811.939C642.908 824.441 671.693 836.944 701.64 842.614C727.227 847.411 754.557 846.248 777.382 834.472C781.598 832.292 785.523 829.82 789.302 827.058C812.563 809.758 824.774 781.991 832.77 753.352C835.241 744.339 837.422 735.18 839.312 726.167C844.4 702.761 849.488 678.774 856.03 656.095C866.788 619.606 884.524 588.931 910.692 563.054C923.63 550.116 940.494 538.05 959.829 534.27C987.451 528.746 1013.33 535.724 1037.31 537.614C1039.2 537.759 1041.09 537.904 1042.98 537.904C1071.62 539.213 1099.39 533.398 1123.23 517.988C1148.67 501.56 1169.61 472.63 1170.77 438.176" stroke="#A08B8B" stroke-miterlimit="10"/>
<path d="M267.547 846.975C284.411 822.842 304.473 801.181 326.715 782.137C336.601 773.705 347.068 765.709 358.698 759.894C382.104 748.264 407.981 746.229 432.985 748.409C439.963 748.991 446.796 749.863 453.483 751.026C481.977 755.969 509.89 764.546 536.493 776.467C562.807 788.243 587.666 803.798 615.288 815.864C643.781 828.367 673.147 841.305 703.822 847.266C729.844 852.354 757.902 851.481 781.453 839.561C785.669 837.38 789.885 834.909 793.665 832.001C817.652 814.41 830.009 786.062 838.295 756.696C840.912 747.392 843.093 738.088 845.128 728.929C850.507 704.942 856.176 680.519 863.445 657.549C875.366 620.333 894.556 589.222 922.468 563.636C935.552 551.715 951.98 540.376 970.588 536.45C997.337 530.926 1022.49 536.16 1045.75 536.596C1047.64 536.596 1049.38 536.596 1051.27 536.596C1079.04 536.16 1105.21 528.455 1127.3 512.027C1150.85 494.582 1169.32 465.797 1169.46 432.506" stroke="#A08B8B" stroke-miterlimit="10"/>
<path d="M272.926 857.442C289.353 833.746 309.125 812.666 331.076 794.494C340.817 786.353 351.138 778.793 362.478 772.978C385.302 761.639 410.452 758.877 435.021 760.04C441.853 760.33 448.541 761.057 455.083 761.93C483.14 765.564 510.907 773.124 537.366 783.736C563.533 794.203 588.393 808.45 615.578 820.08C644.944 832.583 674.747 845.957 706.002 852.354C732.606 857.733 761.391 857.006 785.378 845.085C789.739 842.904 793.955 840.433 798.026 837.525C822.594 819.644 835.388 790.569 843.965 760.766C846.727 751.317 848.908 741.868 851.088 732.418C856.758 707.995 863.009 682.99 871.005 659.584C884.234 621.496 904.732 589.949 934.389 564.654C947.473 553.605 963.464 543.138 981.491 539.213C1007.22 533.543 1031.65 537.323 1054.18 536.16C1055.92 536.014 1057.67 536.014 1059.56 535.724C1086.31 533.398 1111.17 523.948 1131.37 506.503C1152.89 488.04 1169.17 459.401 1168.01 427.273" stroke="#A08B8B" stroke-miterlimit="10"/>
<path d="M278.16 867.909C294.152 844.794 313.632 824.296 335.293 806.706C344.888 798.855 355.064 791.586 366.258 786.062C388.501 774.868 413.07 771.379 437.057 771.67C443.744 771.815 450.286 772.106 456.828 772.687C484.595 775.159 511.926 781.555 538.239 790.859C564.261 800.164 589.266 813.102 615.87 824.151C645.963 836.653 676.346 850.464 708.329 857.151C735.515 862.821 764.881 862.385 789.595 850.318C794.101 848.138 798.463 845.521 802.533 842.614C827.829 824.441 840.767 794.785 849.635 764.256C852.397 754.661 854.869 744.92 857.195 735.326C863.155 710.466 869.988 684.88 878.711 661.038C893.103 622.223 915.055 590.094 946.456 565.235C959.54 554.913 975.241 545.464 992.541 541.393C1017.4 535.578 1041.1 537.759 1062.9 534.997C1064.65 534.851 1066.39 534.561 1067.99 534.27C1093.87 530.054 1117.13 518.86 1135.59 500.397C1155.22 480.917 1169.03 452.423 1166.85 421.312" stroke="#A08B8B" stroke-miterlimit="10"/>
<path d="M283.391 878.376C298.946 855.697 318.136 835.781 339.506 818.917C348.955 811.358 358.986 804.38 369.89 799.001C391.696 788.097 415.393 783.881 438.944 783.154C445.485 783.009 452.027 783.009 458.424 783.3C485.755 784.608 512.795 789.696 539.108 797.837C564.985 805.979 589.99 817.609 616.158 828.076C647.123 840.578 677.943 854.825 710.507 861.949C738.128 867.909 768.367 867.618 793.662 855.697C798.314 853.517 802.676 850.9 806.892 847.992C832.769 829.53 845.998 799.291 855.157 768.181C858.064 758.295 860.535 748.41 863.007 738.669C869.403 713.228 876.527 687.351 886.122 662.928C901.677 623.386 924.792 590.531 958.228 566.107C971.167 556.658 986.577 548.081 1003.3 543.865C1027.14 537.904 1050.25 538.486 1071.19 534.27C1072.79 533.979 1074.53 533.543 1076.13 533.107C1100.99 527.146 1122.94 513.917 1139.37 494.727C1156.96 474.229 1168.44 445.881 1165.24 415.933" stroke="#A08B8B" stroke-miterlimit="10"/>
<path d="M288.629 888.698C303.748 866.601 322.647 847.266 343.727 830.983C353.031 823.715 362.916 817.173 373.674 811.794C394.899 801.181 418.014 796.093 440.984 794.639C447.38 794.203 453.777 794.058 460.173 794.058C487.068 794.203 513.963 798.128 540.13 805.106C565.862 811.939 591.012 822.261 616.598 832.292C648.436 844.649 679.692 859.623 712.983 867.037C741.186 873.288 772.151 873.288 797.883 861.222C802.535 859.041 807.187 856.424 811.403 853.371C838.007 834.618 851.382 803.798 860.831 771.96C863.884 761.929 866.501 751.753 868.972 741.867C875.659 715.99 883.364 689.532 893.686 664.673C910.404 624.403 934.828 590.676 970.154 566.98C983.093 558.257 998.212 550.552 1014.2 546.481C1037.17 540.521 1059.42 539.503 1079.77 533.688C1081.37 533.252 1082.97 532.816 1084.57 532.235C1108.55 524.384 1128.91 509.41 1143.59 489.203C1159.29 467.687 1168.45 439.484 1164.09 410.554" stroke="#A08B8B" stroke-miterlimit="10"/>
<path d="M294.004 899.165C308.832 877.504 327.295 858.896 348.084 843.195C357.388 836.217 367.128 829.966 377.45 824.732C398.094 814.265 420.482 808.595 443.015 806.124C449.266 805.397 455.517 804.961 461.768 804.67C488.227 803.653 514.831 806.269 540.853 812.084C566.585 817.754 591.59 826.622 616.74 836.217C649.304 848.429 681.142 863.984 715.014 871.689C743.799 878.231 775.346 878.522 801.804 866.31C806.602 864.129 811.254 861.512 815.615 858.314C842.8 839.27 856.466 807.868 866.206 775.304C869.259 765.128 872.021 754.806 874.638 744.63C881.616 718.317 889.902 691.277 900.806 666.126C918.687 625.13 944.419 590.385 981.635 567.561C994.719 559.565 1009.4 552.878 1024.67 548.662C1046.62 542.556 1068.28 539.94 1087.76 532.525C1089.36 531.944 1090.81 531.362 1092.41 530.635C1115.38 520.895 1134.43 504.177 1147.22 482.952C1160.88 460.419 1167.72 432.361 1162.34 404.594" stroke="#A08B8B" stroke-miterlimit="10"/>
<path d="M299.238 909.632C313.631 888.552 331.803 870.38 352.301 855.407C361.459 848.865 371.054 842.759 381.085 837.671C401.147 827.494 422.954 820.952 444.906 817.609C451.011 816.591 457.263 815.864 463.368 815.428C489.391 813.247 515.849 814.701 541.726 819.208C567.313 823.715 592.463 831.274 617.031 840.287C650.468 852.499 682.742 868.49 717.341 876.632C746.707 883.464 778.981 883.9 805.876 871.689C810.818 869.508 815.616 866.746 820.122 863.693C848.035 844.503 861.846 812.375 872.022 779.229C875.22 768.762 877.982 758.295 880.89 747.973C888.159 721.079 897.027 693.603 908.657 668.016C927.701 626.293 954.596 590.385 993.847 568.433C1006.93 561.164 1021.18 555.495 1035.86 551.134C1056.94 544.882 1077.73 540.666 1096.63 531.798C1098.08 531.072 1099.54 530.345 1100.99 529.618C1123.09 518.133 1140.53 499.525 1151.58 477.282C1163.36 453.586 1167.72 425.819 1161.32 399.215" stroke="#A08B8B" stroke-miterlimit="10"/>
<path d="M304.473 920.099C336.892 872.27 390.245 840.724 446.796 829.239C503.348 817.754 562.807 825.168 617.323 844.358C651.486 856.424 684.342 872.997 719.523 881.429C754.849 889.861 794.537 889.279 824.485 868.781C861.992 843.195 874.494 794.639 886.706 750.881C906.768 678.92 939.041 602.451 1005.77 569.015C1039.06 552.297 1077.88 548.226 1109.42 528.309C1153.04 500.833 1174.84 442.828 1160.16 393.4" stroke="#A08B8B" stroke-miterlimit="10"/>
<path d="M1.36235 708.286C-4.74346 658.857 44.1031 617.134 93.2403 609.429C142.523 601.724 191.806 617.571 240.652 627.747C289.499 637.923 344.306 641.267 385.011 612.628C437.056 575.993 449.122 498.943 502.766 464.489C544.489 437.594 598.86 445.735 641.601 465.652C665.733 476.991 686.377 495.89 709.492 509.12C814.308 569.16 821.431 691.713 910.547 709.885C1006.93 729.656 1059.27 682.699 1077.58 649.989C1100.85 608.266 1139.81 499.816 1044.58 424.51C1005.91 393.836 967.68 361.272 939.186 321.002C896.591 260.671 896.882 168.502 951.398 118.638C988.76 84.4748 1046.18 71.9724 1071.48 28.214C1088.49 -1.29741 1086.16 -39.2407 1071.48 -69.9151C1056.8 -100.59 1031.21 -124.867 1003.59 -144.639" stroke="#A08B8B" stroke-miterlimit="10"/>
<path d="M3.68953 710.757C-0.526389 659.875 48.0294 615.971 98.6204 607.249C148.048 598.672 198.203 614.372 247.05 625.712C295.315 636.76 348.813 641.848 389.373 615.826C441.273 582.535 455.811 509.265 509.309 475.392C551.904 448.498 605.403 453.44 649.161 470.886C674.312 480.917 696.554 498.798 720.832 512.173C823.468 569.015 831.9 687.642 919.126 705.669C1012.89 725.004 1064.94 680.519 1083.84 648.39C1107.82 607.685 1144.9 503.305 1054.91 428.872C1017.84 398.197 981.056 364.906 952.998 324.928C911.566 266.05 911.275 177.08 962.739 127.652C998.356 93.4881 1053.6 79.532 1078.89 36.3551C1096.19 6.84368 1095.18 -30.6635 1082.38 -61.6287C1069.44 -92.8846 1045.89 -118.471 1019.14 -139.696" stroke="#A08B8B" stroke-miterlimit="10"/>
<path d="M5.86985 713.228C3.54382 660.893 51.8088 614.808 103.999 605.068C153.718 595.764 204.745 611.319 253.446 623.531C301.13 635.452 353.174 642.285 393.734 618.734C445.343 588.641 462.498 519.296 515.996 485.859C559.464 458.819 612.235 460.855 656.866 475.828C683.034 484.551 707.021 501.415 732.316 514.935C832.626 568.869 842.512 683.281 927.848 701.017C1018.85 719.916 1070.61 677.902 1090.23 646.355C1114.8 606.813 1150.13 506.212 1065.37 432.652C1029.9 401.832 994.43 367.959 966.954 328.126C926.83 270.702 925.813 184.93 974.223 135.938C1007.95 102.065 1061.16 86.8008 1086.31 44.0601C1103.9 14.4033 1104.19 -22.5224 1093.14 -53.633C1081.95 -85.4704 1060.29 -112.365 1034.7 -135.044" stroke="#A08B8B" stroke-miterlimit="10"/>
<path d="M8.04983 715.7C7.6137 662.056 55.5879 613.791 109.232 602.887C159.241 592.711 210.995 608.121 259.842 621.496C306.944 634.434 357.68 642.721 398.095 621.932C449.558 595.183 469.039 529.618 522.537 496.763C566.877 469.577 618.777 468.56 664.57 481.062C691.756 488.476 717.342 504.322 743.8 518.133C841.784 569.16 853.269 679.356 936.57 696.946C1024.81 715.409 1076.28 676.012 1096.63 644.901C1121.92 606.377 1155.51 509.701 1075.84 437.158C1041.82 406.193 1008.09 371.739 980.764 332.196C942.094 276.081 940.204 193.653 985.562 145.242C1017.69 110.933 1068.72 94.0696 1093.87 52.0558C1111.75 22.1082 1113.2 -14.2359 1104.04 -45.4919C1094.59 -77.7655 1074.97 -106.114 1050.4 -130.246" stroke="#A08B8B" stroke-miterlimit="10"/>
<path d="M10.2305 718.171C11.6842 663.073 59.3677 612.773 114.465 600.707C164.766 589.804 217.247 604.923 266.093 619.315C312.614 633.126 362.042 643.157 402.166 624.985C453.338 601.579 475.435 539.939 528.934 507.52C574.001 480.19 625.319 476.119 671.985 486.15C700.188 492.256 727.518 507.084 754.995 521.04C850.507 569.306 863.591 675.285 944.856 692.439C1030.48 710.466 1081.51 673.54 1102.59 643.011C1128.47 605.65 1160.3 512.609 1086.02 441.229C1053.6 410.118 1021.18 374.937 994.43 335.831C957.068 281.024 954.451 201.939 996.756 153.965C1027.14 119.51 1076.13 101.338 1101.14 59.9061C1119.31 29.9585 1122.22 -5.94948 1114.8 -37.3508C1107.1 -70.3513 1089.36 -99.8627 1065.96 -125.449" stroke="#A08B8B" stroke-miterlimit="10"/>
<path d="M12.4102 720.642C15.7538 664.091 63.2919 611.61 119.843 598.526C170.289 586.751 223.788 601.724 272.634 617.28C318.573 631.963 366.693 643.884 406.671 628.183C457.699 608.121 482.267 550.261 535.62 518.424C581.559 490.948 632.15 483.679 679.689 491.529C709.055 496.326 737.839 510.137 766.478 524.239C859.519 569.887 874.202 671.36 953.578 688.369C1036.44 705.959 1087.18 671.505 1109.13 641.558C1135.59 605.359 1165.83 515.952 1096.63 445.735C1065.81 414.334 1034.84 378.717 1008.53 339.756C972.477 286.403 969.133 210.371 1008.38 163.123C1037.02 128.669 1083.84 109.043 1108.84 68.1926C1127.3 38.0996 1131.52 2.62775 1125.85 -28.919C1119.89 -62.5009 1104.04 -93.3208 1081.8 -120.361" stroke="#A08B8B" stroke-miterlimit="10"/>
<path d="M14.7383 723.114C19.9718 665.109 67.2192 610.592 125.224 596.346C175.961 583.843 230.186 598.526 279.033 615.099C324.39 630.654 371.056 644.32 411.035 631.091C461.917 614.372 488.957 560.438 542.31 528.891C589.121 501.269 639.131 490.802 687.396 496.327C717.779 499.816 748.163 512.609 778.111 526.856C868.535 570.032 885.108 666.853 962.448 683.572C1042.41 701.017 1092.85 669.034 1115.53 639.522C1142.57 604.341 1171.21 518.569 1107.1 449.515C1077.73 417.969 1048.37 381.77 1022.49 343.1C987.744 291.2 983.673 218.367 1019.87 171.555C1046.77 136.956 1091.54 116.021 1116.4 75.7522C1135.01 45.5138 1140.68 10.4781 1136.9 -21.214C1132.83 -55.3775 1118.87 -87.6511 1097.65 -116" stroke="#A08B8B" stroke-miterlimit="10"/>
<path d="M16.918 725.585C24.0414 666.272 70.9981 609.575 130.457 594.165C181.484 580.936 236.582 595.183 285.283 613.064C330.059 629.346 375.417 644.901 415.25 634.289C465.841 620.914 495.498 570.759 548.705 539.794C596.389 512.027 645.672 498.362 694.809 501.56C726.356 503.595 758.338 515.516 789.304 529.908C877.111 570.614 895.428 662.783 970.879 679.356C1048.22 696.074 1098.37 666.708 1121.78 637.778C1149.4 603.614 1176.44 521.331 1117.56 453.731C1089.8 421.894 1061.88 385.259 1036.3 346.879C1002.72 296.288 997.919 226.653 1031.21 180.569C1056.21 145.824 1098.96 123.581 1123.82 83.8932C1142.71 53.5095 1149.84 18.9099 1147.66 -12.7822C1145.33 -47.6725 1133.26 -81.1091 1113.06 -110.911" stroke="#A08B8B" stroke-miterlimit="10"/>
<path d="M19.0977 728.057C28.111 667.289 74.7769 608.557 135.835 591.984C187.153 578.028 242.978 591.984 291.824 611.029C336.019 628.183 380.068 645.337 419.755 637.487C470.201 627.456 502.329 581.226 555.537 550.697C604.093 522.93 652.794 505.921 702.658 506.939C735.223 507.666 768.805 518.569 800.933 533.107C885.978 571.486 906.185 659.003 979.746 675.14C1054.47 691.422 1104.19 664.527 1128.32 636.179C1156.38 603.178 1182.11 524.239 1128.18 458.092C1101.86 425.819 1075.55 388.893 1050.4 350.805C1018.13 301.667 1012.6 234.939 1042.84 189.582C1066.1 154.546 1106.81 131.141 1131.52 91.8889C1150.71 61.3599 1159.14 27.3418 1158.85 -4.64107C1158.41 -40.1129 1148.09 -74.8579 1129.05 -106.114" stroke="#A08B8B" stroke-miterlimit="10"/>
<path d="M21.2773 730.528C32.1806 668.307 78.5557 607.54 141.068 589.804C192.676 575.121 249.228 588.786 298.074 608.848C341.687 626.875 384.428 645.774 423.97 640.54C474.125 633.853 508.87 591.403 562.078 561.455C611.506 533.543 659.48 513.19 710.217 512.027C743.944 511.3 778.98 521.477 812.271 536.014C894.7 572.068 916.651 654.787 988.322 670.778C1060.28 686.624 1109.71 662.201 1134.57 634.289C1163.21 602.306 1187.49 526.565 1138.5 462.163C1113.78 429.599 1088.78 392.237 1064.21 354.294C1033.24 306.61 1026.85 242.935 1054.18 198.159C1075.69 162.978 1114.36 138.264 1138.93 99.5939C1158.41 69.0648 1168.3 35.3375 1169.61 3.20926C1171.06 -32.9895 1162.63 -68.8975 1144.6 -101.607" stroke="#A08B8B" stroke-miterlimit="10"/>
<path d="M23.4609 733C36.2541 669.325 82.4838 606.667 146.304 587.623C198.204 572.213 255.627 585.442 304.474 606.813C347.505 625.566 388.792 646.355 428.189 643.738C478.199 640.249 515.415 601.87 568.478 572.213C618.778 544.155 666.025 520.459 717.634 517.115C752.379 514.935 789.014 524.239 823.468 538.922C903.134 572.795 927.122 650.571 996.757 666.272C1065.96 681.682 1114.95 659.73 1140.83 632.399C1170.05 601.434 1192.87 528.891 1148.97 466.088C1125.85 433.088 1102.3 395.435 1078.17 357.783C1048.51 311.553 1041.24 250.786 1065.67 206.882C1085.44 171.41 1121.93 145.533 1146.49 107.444C1166.27 76.7698 1177.61 43.4786 1180.66 11.3503C1184 -25.4299 1177.31 -62.6463 1160.45 -96.8098" stroke="#A08B8B" stroke-miterlimit="10"/>
<path d="M25.7852 735.471C40.4682 670.488 86.4072 605.65 151.681 585.442C203.871 569.305 262.022 582.244 310.869 604.632C353.464 624.258 393.297 646.791 432.549 646.646C482.268 646.5 522.101 612.046 575.163 582.826C626.336 554.768 673.002 527.582 725.337 522.203C761.245 518.424 799.188 527.146 834.951 541.975C911.855 573.667 937.732 646.5 1005.48 662.056C1072.06 677.03 1120.62 657.549 1147.22 630.8C1176.88 600.998 1198.68 531.362 1159.43 470.449C1137.92 437.013 1115.82 399.07 1091.98 361.708C1063.48 316.932 1055.49 258.927 1077 215.895C1094.88 180.133 1129.48 153.092 1153.91 115.585C1173.97 84.7655 1186.76 51.9104 1191.41 19.6368C1196.79 -17.8703 1191.85 -56.2498 1176 -91.867" stroke="#A08B8B" stroke-miterlimit="10"/>
<path d="M27.9648 737.942C44.5378 671.505 90.186 604.632 157.059 583.262C209.395 566.398 268.563 578.9 317.264 602.597C359.278 622.949 397.803 647.373 436.909 649.844C486.483 653.042 528.787 622.368 581.704 593.729C633.749 565.526 679.688 534.997 732.896 527.437C769.821 522.204 809.364 530.199 846.289 545.028C920.431 574.685 948.198 642.575 1014.05 657.694C1077.87 672.378 1125.99 655.223 1153.47 629.055C1183.71 600.271 1204.35 533.688 1169.75 474.665C1149.84 440.647 1129.05 402.559 1105.79 365.342C1078.6 322.02 1069.59 266.922 1088.34 224.763C1104.33 188.71 1137.04 160.361 1161.32 123.581C1181.67 92.6158 1196.07 60.1969 1202.17 27.7779C1209.44 -10.3108 1206.24 -49.9986 1191.56 -87.0696" stroke="#A08B8B" stroke-miterlimit="10"/>
<path d="M30.1445 740.414C48.6074 672.523 94.1102 603.76 162.292 581.081C214.918 563.636 274.813 575.557 323.66 600.416C365.092 621.496 402.163 647.809 441.269 652.897C490.552 659.439 535.473 632.69 588.39 604.487C641.308 576.284 686.52 542.12 740.6 532.525C778.543 525.838 819.685 533.107 857.773 547.935C929.008 575.557 958.81 638.505 1022.78 653.333C1083.83 667.58 1131.66 652.897 1159.87 627.311C1190.54 599.544 1210.31 535.724 1180.36 478.881C1162.19 444.282 1142.71 406.048 1119.89 369.122C1094.01 327.108 1083.98 274.918 1099.97 233.631C1114.07 197.142 1144.75 167.775 1169.02 131.431C1189.67 100.321 1205.51 68.3379 1213.36 35.919C1222.67 -2.75118 1221.07 -43.7474 1207.4 -82.2722" stroke="#A08B8B" stroke-miterlimit="10"/>
<path d="M32.3281 742.885C52.8262 673.54 97.8929 602.742 167.674 578.9C220.591 560.728 281.358 572.213 330.059 598.381C370.91 620.333 406.673 648.245 445.634 656.095C494.771 665.836 542.164 643.157 594.935 615.39C648.725 587.042 693.21 549.389 748.162 537.759C787.269 529.472 829.864 536.16 869.261 550.988C937.733 576.574 969.571 634.434 1031.5 648.972C1089.8 662.783 1137.19 650.571 1166.27 625.566C1197.38 598.817 1216.42 537.759 1190.83 482.952C1174.41 447.771 1156.09 409.391 1133.85 372.756C1109.13 332.196 1098.08 282.768 1111.46 242.354C1123.52 205.573 1152.45 175.044 1176.44 139.282C1197.38 108.026 1214.82 76.479 1224.13 43.9147C1235.46 4.51765 1235.61 -37.6416 1222.96 -77.6201" stroke="#A08B8B" stroke-miterlimit="10"/>
<path d="M34.5078 745.357C56.7504 674.704 101.817 601.87 172.906 576.72C226.114 557.966 287.608 569.015 336.455 596.2C376.87 618.879 411.178 648.681 449.994 659.148C498.841 672.232 548.85 653.479 601.622 626.002C656.283 597.654 700.042 556.512 755.866 542.847C795.99 532.961 840.039 539.213 880.745 553.896C946.309 577.592 980.182 630.218 1040.22 644.611C1095.76 657.985 1142.86 648.245 1172.81 623.822C1204.5 598.09 1222.82 539.794 1201.45 487.168C1186.91 451.26 1169.75 412.88 1147.8 376.536C1124.4 337.43 1112.18 290.764 1122.94 251.367C1132.97 214.151 1160.16 182.604 1184 147.423C1205.23 116.167 1224.12 84.9109 1235.17 52.2012C1248.55 12.2226 1250.29 -31.245 1238.81 -72.6773" stroke="#A08B8B" stroke-miterlimit="10"/>
<path d="M36.832 747.828C60.9645 675.721 105.741 600.998 178.283 574.539C231.782 555.059 294.149 565.671 342.85 594.165C382.683 617.57 415.538 649.263 454.208 662.201C502.909 678.483 555.39 663.8 608.016 636.76C663.55 608.266 706.582 563.636 763.279 547.935C804.42 536.596 850.068 542.265 891.937 556.803C954.594 578.61 990.502 626.002 1048.65 640.249C1101.57 653.042 1148.09 645.774 1178.91 622.077C1211.04 597.363 1228.92 541.684 1211.77 491.384C1199.26 454.749 1182.98 416.369 1161.61 380.171C1139.37 342.518 1126.14 298.614 1134.28 260.09C1142.28 222.437 1167.72 189.873 1191.41 155.273C1212.93 123.872 1233.43 93.1973 1245.93 60.3422C1261.34 19.7822 1264.68 -24.9938 1254.36 -67.8799" stroke="#A08B8B" stroke-miterlimit="10"/>
<path d="M39.0117 750.299C65.0341 676.739 109.665 600.125 183.516 572.358C237.305 552.151 300.544 562.327 349.1 592.13C388.497 616.262 419.898 649.699 458.423 665.399C506.979 684.88 562.077 674.267 614.557 647.663C670.964 619.17 713.268 570.905 770.837 553.169C812.996 540.23 860.098 545.464 903.275 559.856C963.17 579.773 1001.11 621.932 1057.23 635.888C1107.38 648.245 1153.47 643.448 1185.16 620.333C1217.72 596.491 1235.32 543.574 1222.09 495.6C1211.76 458.238 1196.35 419.858 1175.42 383.95C1154.34 347.752 1139.95 306.61 1145.62 269.103C1151.29 231.16 1175.27 197.432 1198.83 163.414C1220.63 131.868 1242.73 101.629 1256.69 68.6287C1274.13 27.4871 1279.22 -18.5972 1269.91 -62.9371" stroke="#A08B8B" stroke-miterlimit="10"/>
<path d="M41.1953 752.771C69.1076 677.756 113.447 599.108 188.898 570.178C242.978 549.389 307.089 558.838 355.645 589.949C394.46 614.808 424.553 650.135 462.933 668.452C511.198 691.276 568.912 684.589 621.393 658.421C678.671 629.928 720.249 578.028 778.69 558.402C821.867 543.865 870.423 548.807 914.908 562.909C971.896 581.081 1011.87 617.861 1066.1 631.672C1113.64 643.593 1159.14 641.122 1191.71 618.734C1224.71 595.909 1242.3 545.609 1232.7 499.816C1224.71 461.727 1209.88 423.347 1189.52 387.73C1169.75 352.985 1153.91 314.606 1157.25 277.971C1160.74 239.592 1182.98 204.847 1206.53 171.41C1228.63 139.718 1252.33 110.061 1267.88 76.7698C1287.36 35.0467 1294.05 -12.346 1285.91 -58.1396" stroke="#A08B8B" stroke-miterlimit="10"/>
<path d="M43.375 755.242C73.1772 678.919 117.372 598.235 194.13 568.142C248.647 546.627 313.485 555.64 361.895 588.059C400.274 613.645 428.914 650.862 467.148 671.796C515.267 697.964 575.453 695.202 627.789 669.325C686.085 640.831 726.79 585.297 786.104 563.636C830.298 547.499 880.308 552.296 926.101 566.107C980.182 582.389 1022.2 613.936 1074.53 627.456C1119.31 638.941 1164.37 638.941 1197.81 617.134C1231.39 595.182 1248.98 547.79 1243.02 504.177C1237.64 465.507 1223.11 427.127 1203.33 391.51C1184.73 358.219 1167.57 322.602 1168.59 286.839C1169.61 248.169 1190.69 212.406 1213.95 179.26C1236.48 147.568 1261.49 118.347 1278.64 84.9109C1300.3 42.7517 1308.59 -6.09485 1301.32 -53.3422" stroke="#A08B8B" stroke-miterlimit="10"/>
<path d="M45.5547 757.714C77.3921 679.937 121.296 597.509 199.508 565.816C254.315 543.865 320.026 552.151 368.436 585.733C406.234 612.046 433.419 651.153 471.653 674.558C519.482 704.07 582.285 705.233 634.62 679.792C693.789 651.298 733.622 592.13 793.953 568.433C839.165 550.697 890.629 555.204 937.731 568.724C989.048 583.262 1033.1 609.429 1083.4 622.804C1125.41 633.853 1170.19 636.179 1204.5 614.954C1238.51 594.02 1256.4 549.534 1253.78 507.957C1251.31 468.56 1236.92 430.18 1217.43 394.854C1199.99 363.162 1181.53 330.307 1180.22 295.416C1178.76 256.455 1198.39 219.53 1221.65 186.965C1244.48 155.128 1271.08 126.343 1289.83 92.7612C1313.53 50.0205 1323.41 -0.134404 1317.31 -48.8355" stroke="#A08B8B" stroke-miterlimit="10"/>
<path d="M47.8828 760.185C81.6102 680.955 125.223 596.491 204.744 563.781C259.842 541.102 326.424 548.953 374.689 583.843C412.051 610.883 437.783 651.734 475.871 677.902C523.555 710.612 588.829 715.7 641.019 690.84C701.06 662.201 740.166 599.544 801.369 573.958C847.599 554.623 900.516 559.129 948.927 572.068C997.337 585.006 1043.42 605.795 1091.83 618.734C1131.08 629.346 1175.42 633.998 1210.6 613.5C1245.06 593.438 1263.38 552.296 1263.96 512.463C1264.54 472.63 1250 433.96 1231.1 398.924C1214.82 368.686 1194.9 338.738 1191.41 304.575C1187.34 265.323 1205.81 227.235 1228.92 195.252C1252.04 163.269 1280.24 135.066 1300.45 101.193C1326.18 58.0162 1337.66 6.40754 1332.72 -43.7474" stroke="#A08B8B" stroke-miterlimit="10"/>
<path d="M624.156 1055.15C581.852 1028.99 579.816 964.73 604.676 921.553C629.535 878.376 672.857 849.882 711.237 818.19C749.761 786.498 786.687 745.938 789.885 696.219C793.956 632.69 741.33 574.975 748.162 511.591C753.396 462.308 793.665 424.947 836.115 404.012C860.102 392.237 887.724 388.021 912.583 378.426C1024.96 334.232 1124.98 405.611 1195.05 347.606C1270.94 284.804 1267.01 214.587 1253.05 179.987C1235.17 135.647 1174.99 37.3727 1056.51 64.4127C1008.39 75.4613 959.104 84.7654 909.821 81.7125C836.115 77.2059 764.444 19.2006 759.647 -54.6507C756.449 -105.242 782.617 -157.723 764.444 -204.97C752.233 -236.662 721.122 -258.614 687.976 -266.464C654.831 -274.315 619.94 -269.517 587.23 -260.358" stroke="#A08B8B" stroke-miterlimit="10"/>
<path d="M627.5 1055.01C585.196 1026.37 581.416 961.095 606.275 916.174C630.553 872.27 674.311 843.05 713.563 812.084C752.379 781.41 789.886 742.885 794.974 694.911C801.516 633.562 753.542 576.429 760.665 513.336C766.335 463.181 803.842 424.656 844.838 401.541C868.389 388.166 896.301 382.061 921.888 371.593C1030.48 327.254 1128.18 394.854 1196.94 338.302C1270.79 277.389 1268.61 208.917 1255.53 174.027C1238.81 129.832 1180.66 35.4828 1066.25 59.0338C1019 68.7741 970.153 76.6244 921.306 73.2807C849.49 68.6287 780 13.2402 773.604 -57.8489C769.242 -106.986 793.084 -158.886 775.203 -205.697C762.991 -237.68 733.189 -260.358 701.061 -269.808C668.642 -279.257 633.897 -276.931 600.605 -269.517" stroke="#A08B8B" stroke-miterlimit="10"/>
<path d="M630.844 1054.86C588.685 1023.9 583.015 957.461 608.02 910.65C631.862 866.019 675.911 836.072 716.035 805.688C755.287 776.031 793.085 739.687 800.208 693.457C809.221 634.434 765.754 577.592 773.313 514.935C779.419 464.053 814.019 424.22 853.707 398.779C876.967 383.805 905.025 375.664 931.483 364.47C1036.3 319.985 1131.81 383.95 1198.98 328.707C1270.79 269.684 1270.5 202.957 1258.14 167.921C1242.73 124.017 1186.47 33.4476 1075.99 53.3642C1029.76 61.796 981.202 68.1926 932.791 64.7036C862.865 59.9061 795.411 7.13444 787.56 -61.3379C782.036 -109.167 803.406 -160.339 785.961 -206.569C773.895 -238.843 745.256 -262.248 714.145 -273.152C682.308 -284.346 647.708 -284.346 614.126 -278.676" stroke="#A08B8B" stroke-miterlimit="10"/>
<path d="M634.188 1054.72C592.029 1021.43 584.614 953.826 609.619 905.125C633.025 859.768 677.51 829.093 718.361 799.437C757.903 770.797 796.283 736.488 805.296 692.003C816.635 635.161 777.82 578.9 785.67 516.534C792.212 464.925 823.904 423.784 862.429 396.017C885.253 379.444 913.601 369.413 940.932 357.346C1042.11 313.007 1135.16 373.047 1201.01 319.112C1270.79 261.834 1272.25 196.996 1260.76 161.67C1246.66 117.911 1192.29 31.1215 1085.87 47.6944C1040.52 54.8179 992.396 59.4699 944.567 55.9809C876.53 51.0381 811.256 0.883196 801.807 -64.827C795.12 -111.347 814.018 -161.648 797.009 -207.587C784.943 -240.151 757.612 -264.138 727.374 -276.641C696.264 -289.579 661.809 -291.905 627.791 -287.98" stroke="#A08B8B" stroke-miterlimit="10"/>
<path d="M637.386 1054.57C595.372 1018.96 586.068 950.192 611.218 899.746C634.188 853.662 678.964 822.261 720.832 793.185C760.665 765.564 799.481 733.436 810.529 690.695C824.34 636.033 790.177 580.209 798.318 518.278C805.296 465.943 834.226 423.347 871.297 393.4C893.83 375.228 922.324 363.162 950.527 350.514C1048.07 306.319 1138.79 362.435 1203.19 309.954C1270.79 254.565 1274.14 191.617 1263.52 156C1250.58 112.387 1198.1 29.377 1095.76 42.4609C1051.13 48.276 1003.59 51.4742 956.197 47.8398C890.05 42.7517 826.812 -4.93184 815.908 -67.8799C808.058 -113.092 824.631 -162.665 808.058 -208.168C795.992 -241.023 769.824 -265.737 740.749 -279.839C710.22 -294.522 676.056 -299.174 641.457 -296.993" stroke="#A08B8B" stroke-miterlimit="10"/>
<path d="M640.726 1054.28C598.712 1016.19 587.664 946.412 612.814 894.077C635.347 847.411 680.414 815.137 723.155 786.789C763.279 760.185 802.821 730.092 815.614 689.096C832.042 636.76 802.24 581.372 810.817 519.732C818.231 466.67 844.253 422.621 880.016 390.638C902.113 370.867 930.898 356.91 959.973 343.39C1053.89 299.487 1142.13 351.531 1205.08 300.359C1270.64 246.86 1275.73 185.657 1265.99 149.749C1254.22 106.427 1203.62 26.9056 1105.49 36.7912C1061.74 41.1525 1014.63 43.0424 967.678 39.1172C903.422 33.8837 842.218 -11.183 829.861 -71.3689C820.848 -115.273 834.949 -164.119 818.813 -209.186C806.892 -242.332 781.887 -267.918 753.829 -283.328C724.027 -299.755 690.009 -306.734 654.973 -306.297" stroke="#A08B8B" stroke-miterlimit="10"/>
<path d="M644.072 1054.14C602.204 1013.72 589.265 942.778 614.415 888.552C636.513 841.16 681.87 808.014 725.483 780.392C765.898 754.806 805.876 726.894 820.705 687.497C839.604 637.342 814.454 582.535 823.322 521.186C831.172 467.397 854.287 421.894 888.741 387.73C910.547 366.215 939.477 350.514 969.28 336.122C1059.56 292.654 1145.33 340.483 1206.97 290.619C1270.5 238.865 1277.33 179.551 1268.46 143.498C1258 100.466 1209.01 24.2889 1115.09 30.9762C1072.06 34.0291 1025.54 34.3198 979.165 30.2493C916.944 24.8704 857.485 -17.5796 843.82 -75.1487C833.643 -117.744 845.419 -165.718 829.573 -210.494C817.652 -243.931 793.955 -270.244 766.915 -287.253C737.695 -305.425 703.822 -314.729 668.495 -316.038" stroke="#A08B8B" stroke-miterlimit="10"/>
<path d="M647.417 1053.99C605.694 1011.25 590.865 939.143 616.161 883.173C637.822 835.054 683.47 801.181 727.955 774.286C768.806 749.572 809.221 723.986 825.939 686.334C847.31 638.505 826.666 583.988 835.97 523.076C844.257 468.559 864.464 421.603 897.755 385.259C919.126 361.999 948.346 344.553 979.021 329.434C1065.81 286.548 1149.11 330.016 1209.3 281.46C1270.79 231.596 1279.22 174.172 1271.37 137.828C1262.07 94.9418 1213.51 10.3327 1125.27 25.888C1083.55 33.1568 1037.03 26.4695 991.087 22.2536C930.756 16.7293 873.332 -23.2493 858.213 -78.0562C846.728 -119.343 856.178 -166.591 840.768 -210.785C828.992 -244.512 806.459 -271.698 780.291 -290.015C751.797 -310.077 718.07 -321.562 682.162 -324.615" stroke="#A08B8B" stroke-miterlimit="10"/>
<path d="M650.617 1053.85C608.894 1008.78 592.467 935.654 617.617 877.649C638.842 828.948 684.781 794.203 730.138 768.035C771.28 744.339 812.131 720.788 830.884 684.88C854.581 639.232 838.735 585.297 848.329 524.675C857.052 469.432 874.206 420.876 906.335 382.642C927.269 357.637 956.78 338.448 988.327 322.456C1071.63 280.152 1152.31 319.258 1211.19 272.01C1270.65 224.036 1280.82 168.357 1273.85 131.722C1265.71 89.1268 1219.18 6.69827 1134.87 20.2183C1093.87 26.7602 1047.93 17.8923 1002.43 13.531C943.987 7.8613 888.453 -29.5005 872.026 -81.5453C859.378 -121.669 866.502 -168.044 851.528 -211.803C839.752 -245.821 818.527 -273.878 793.377 -293.504C765.465 -315.456 732.028 -329.122 695.684 -333.919" stroke="#A08B8B" stroke-miterlimit="10"/>
<path d="M653.959 1053.7C612.381 1006.16 594.064 932.02 619.359 872.27C640.148 822.842 686.378 787.225 732.608 761.784C773.894 738.96 815.472 717.735 836.116 683.571C862.283 640.249 851.089 586.605 860.975 526.419C870.134 470.449 884.381 420.295 915.201 380.025C935.699 353.276 965.646 332.342 997.92 315.478C1077.73 273.9 1155.94 308.5 1213.22 262.706C1270.65 216.477 1282.57 162.833 1276.46 125.907C1269.48 83.6025 1224.85 3.50003 1144.75 14.9848C1104.34 20.7998 1059.12 9.89659 1014.2 5.38991C957.65 -0.279772 904.006 -35.3155 886.271 -84.5982C872.314 -123.414 877.257 -169.062 862.574 -212.384C850.944 -246.693 830.882 -275.623 806.75 -296.703C779.564 -320.544 746.128 -336.39 709.493 -342.932" stroke="#A08B8B" stroke-miterlimit="10"/>
<path d="M657.304 1053.41C615.726 1003.55 595.809 928.24 620.959 866.601C641.457 816.591 687.687 780.102 734.935 755.388C776.512 733.581 818.671 714.391 841.205 681.972C869.844 640.831 863.157 587.768 873.478 527.873C883.073 471.176 894.267 419.422 923.924 377.118C943.986 348.624 974.224 326.091 1007.22 308.355C1083.55 267.504 1159.14 297.597 1215.11 253.112C1270.5 208.772 1284.17 156.872 1278.93 119.656C1273.12 77.4967 1230.52 0.010972 1154.49 9.1697C1114.51 13.9671 1070.17 1.31934 1025.69 -3.47808C971.026 -9.29314 919.127 -41.8575 900.228 -88.2326C884.963 -125.885 887.58 -170.516 873.333 -213.547C861.848 -248.147 842.949 -277.949 819.689 -300.337C793.085 -326.069 759.939 -344.095 722.723 -352.382" stroke="#A08B8B" stroke-miterlimit="10"/>
<path d="M660.644 1053.26C619.212 1001.07 597.406 924.606 622.701 861.076C642.763 810.34 689.284 772.978 737.403 748.991C779.272 728.057 821.867 711.193 846.436 680.518C877.546 641.703 875.511 589.077 885.978 529.472C896.154 472.049 904.15 418.55 932.789 374.355C952.415 344.117 982.944 319.839 1016.82 301.231C1089.65 261.253 1162.78 286.693 1217.29 243.517C1270.64 201.067 1285.91 151.057 1281.69 113.55C1277.04 71.6815 1236.48 11.2049 1164.37 3.64533C1124.83 -0.570585 1081.36 -7.11252 1037.32 -11.91C984.543 -17.8704 934.388 -47.818 914.327 -91.5763C897.608 -127.92 898.19 -171.824 884.234 -214.274C872.749 -249.31 855.158 -279.839 832.916 -303.681C807.039 -331.302 774.038 -351.51 736.386 -361.541" stroke="#A08B8B" stroke-miterlimit="10"/>
<path d="M663.843 1053.12C622.411 998.602 599.006 921.117 624.156 855.697C643.927 804.379 690.593 766.145 739.585 742.885C781.744 722.968 824.921 708.14 851.379 679.21C884.961 642.575 887.578 590.385 898.336 531.217C908.948 473.066 913.891 417.968 941.367 371.884C960.412 339.756 991.522 314.024 1026.12 294.398C1095.61 255.292 1166.12 276.081 1219.04 234.213C1270.35 193.652 1287.22 145.387 1284.02 107.59C1280.53 66.0119 1241.42 8.15204 1173.97 -1.87894C1135.01 -7.694 1092.27 -15.399 1048.8 -20.4871C997.919 -26.4476 949.363 -53.9237 928.283 -94.9199C910.111 -129.956 908.658 -173.133 895.138 -215.146C883.798 -250.473 867.371 -281.874 846.146 -307.024C820.996 -336.536 788.14 -358.924 749.906 -370.699" stroke="#A08B8B" stroke-miterlimit="10"/>
<path d="M667.19 1052.97C625.903 995.986 600.753 917.482 625.903 850.173C645.238 798.128 692.195 759.022 742.059 736.634C784.509 717.59 828.122 705.087 856.616 677.902C892.524 643.447 899.938 591.839 910.986 532.961C922.035 474.084 923.925 417.387 950.238 369.267C968.846 335.395 1000.25 308.064 1035.72 287.566C1101.87 249.332 1169.61 265.468 1221.22 224.908C1270.5 186.238 1289.11 139.863 1286.78 101.774C1284.31 60.4875 1246.95 5.09909 1183.86 -7.25792C1145.48 -14.6721 1103.46 -23.5401 1060.43 -28.919C1011.44 -35.0248 964.485 -60.0296 942.388 -98.2636C922.762 -132.136 919.128 -174.441 906.044 -216.019C894.704 -251.636 879.73 -284.055 859.232 -310.368C834.809 -341.915 801.954 -366.338 763.429 -379.858" stroke="#A08B8B" stroke-miterlimit="10"/>
<path d="M670.532 1052.68C629.245 993.369 602.496 913.848 627.501 844.503C646.545 791.877 693.502 751.753 744.384 730.092C787.124 711.92 831.319 701.744 861.702 676.157C900.082 644.029 912.148 592.857 923.487 534.27C935.118 474.665 933.664 416.369 959.105 366.215C977.131 330.597 1009.11 301.667 1045.17 280.152C1107.97 242.935 1172.95 254.275 1223.25 215.168C1270.5 178.388 1290.71 133.757 1289.55 95.378C1288.24 54.2364 1252.47 1.31934 1193.89 -13.0729C1156.24 -22.377 1114.8 -32.1173 1072.21 -37.6416C1025.11 -43.7474 979.748 -66.2807 956.633 -101.898C935.554 -134.462 929.884 -176.04 917.091 -217.182C905.897 -253.09 892.086 -286.381 872.606 -314.148C849.055 -347.584 816.2 -374.188 777.239 -389.453" stroke="#A08B8B" stroke-miterlimit="10"/>
<path d="M673.875 1052.54C632.733 990.898 604.239 910.214 629.099 839.124C647.852 785.771 694.954 744.775 746.708 723.986C789.594 706.686 834.37 698.691 866.789 674.994C907.64 645.047 924.358 594.31 935.988 536.16C948.055 475.828 943.548 415.788 967.826 363.743C985.271 326.236 1017.69 295.852 1054.62 273.319C1114.22 236.975 1176.44 243.662 1225.29 205.864C1270.5 170.828 1292.31 128.233 1292.16 89.5629C1291.87 48.7121 1257.85 -2.02431 1203.63 -18.4519C1166.56 -29.6459 1125.85 -40.2583 1083.84 -46.0734C1038.62 -52.3246 994.721 -72.0958 970.733 -105.096C948.055 -136.207 940.495 -177.203 927.993 -217.908C916.944 -254.107 904.442 -288.416 885.834 -317.346C863.009 -352.818 830.3 -381.457 790.757 -398.466" stroke="#A08B8B" stroke-miterlimit="10"/>
<path d="M677.073 1052.39C636.077 988.281 605.839 906.725 630.698 833.6C649.015 779.665 696.408 737.652 749.035 717.59C792.211 701.162 837.569 695.347 871.878 673.395C915.055 645.628 936.57 595.473 948.491 537.468C961.139 476.41 953.289 414.77 976.549 360.836C993.413 321.584 1026.41 289.746 1064.07 266.195C1120.33 231.014 1179.79 232.759 1227.18 196.269C1270.35 163.123 1293.76 122.273 1294.63 83.3118C1295.51 42.7517 1263.23 -6.09482 1213.37 -24.1215C1177.02 -37.3508 1136.9 -48.6902 1095.32 -54.6506C1052.14 -60.9018 1009.4 -78.2016 984.545 -108.585C960.267 -138.387 950.817 -178.511 938.606 -218.781C927.557 -255.27 916.508 -290.451 898.772 -320.835C876.821 -358.197 844.111 -389.017 804.132 -407.77" stroke="#A08B8B" stroke-miterlimit="10"/>
<path d="M680.415 1052.25C639.419 985.809 607.582 903.09 632.296 828.221C650.323 773.559 697.715 730.673 751.359 711.484C794.827 695.928 840.62 692.294 876.965 672.087C922.613 646.5 948.781 596.927 960.992 539.213C974.076 477.428 963.027 414.189 985.27 358.219C1001.55 317.223 1035.28 283.931 1073.51 259.217C1126.58 225.054 1183.13 221.856 1229.21 186.82C1270.21 155.418 1295.36 116.458 1297.25 77.3512C1299.14 37.0819 1268.9 -9.87468 1223.11 -29.6459C1187.63 -44.9104 1147.95 -56.9767 1106.8 -63.2279C1065.66 -69.4791 1024.38 -84.0167 998.645 -111.929C972.622 -140.277 961.428 -179.82 949.653 -219.653C938.75 -256.433 929.009 -292.487 912 -324.179C890.921 -363.576 858.066 -396.431 817.796 -416.929" stroke="#A08B8B" stroke-miterlimit="10"/>
<path d="M683.76 1052.1C642.909 983.338 609.327 899.601 634.041 822.697C651.777 767.454 699.315 723.55 753.977 705.087C797.735 690.404 844.11 689.096 882.344 670.633C930.464 647.227 961.284 598.09 973.786 540.812C987.451 478.3 973.059 413.462 994.429 355.457C1010.13 312.716 1044.44 277.971 1083.4 252.094C1133.26 218.948 1186.91 210.952 1231.68 177.225C1270.64 147.714 1297.39 110.643 1300.3 71.1001C1303.21 30.9762 1275.01 -14.0905 1233.43 -35.3155C1198.39 -52.7607 1159.14 -65.2631 1118.58 -71.6597C1079.18 -77.9109 1039.21 -89.8317 1012.75 -115.273C984.98 -142.022 972.042 -181.128 960.557 -220.525C949.799 -257.596 941.367 -294.667 925.23 -327.522C905.023 -368.809 872.168 -403.845 831.317 -426.088" stroke="#A08B8B" stroke-miterlimit="10"/>
<path d="M687.103 1051.81C646.252 980.721 611.071 895.821 635.64 817.173C653.085 761.348 700.623 716.281 756.302 698.836C800.206 685.025 847.163 685.898 887.432 669.179C937.878 648.1 973.495 599.398 986.143 542.411C1000.39 479.172 982.654 412.735 1003.01 352.84C1018.13 308.209 1053.16 272.156 1092.56 245.261C1139.22 213.278 1190.11 200.34 1233.43 168.066C1270.35 140.299 1298.7 105.118 1302.63 65.4304C1306.55 25.5972 1280.68 -17.8704 1242.88 -40.5491C1209.3 -60.7565 1170.33 -73.4042 1130.07 -80.2369C1092.56 -86.4881 1054.03 -95.5015 1026.7 -118.616C997.191 -143.621 982.508 -182.437 971.314 -221.398C960.702 -258.759 953.578 -296.703 938.314 -331.011C918.979 -374.334 886.124 -411.405 844.837 -435.392" stroke="#A08B8B" stroke-miterlimit="10"/>
<path d="M690.3 1051.66C649.595 978.104 612.96 892.332 637.238 811.648C654.392 755.097 702.076 709.158 758.627 692.585C802.822 679.501 850.36 682.844 892.519 667.871C945.436 648.972 985.706 600.852 998.644 544.155C1013.47 480.19 992.393 412.008 1011.73 350.223C1026.27 303.848 1062.03 266.631 1102.01 238.283C1145.47 207.463 1193.45 189.582 1235.32 158.617C1270.21 132.74 1300.01 99.4485 1305.1 59.3246C1310.04 19.6368 1286.64 -22.0863 1252.62 -46.0734C1220.34 -68.7522 1181.38 -81.5453 1141.69 -88.6688C1106.08 -94.92 1068.86 -101.171 1040.8 -121.96C1009.55 -145.22 993.12 -183.745 982.217 -222.124C971.749 -259.777 965.934 -298.593 951.397 -334.21C932.934 -379.422 900.079 -418.528 858.356 -444.405" stroke="#A08B8B" stroke-miterlimit="10"/>
<path d="M693.647 1051.52C652.941 975.633 614.562 888.698 638.84 806.124C655.558 748.991 703.532 702.034 760.956 686.188C805.441 673.977 853.415 679.501 897.61 666.272C952.998 649.699 997.92 601.87 1011.15 545.609C1026.41 480.917 1002.14 411.136 1020.45 347.316C1034.41 299.196 1071.04 260.671 1111.46 231.014C1151.87 201.358 1196.94 178.533 1237.35 148.877C1270.21 124.889 1301.61 93.3427 1307.72 53.0734C1313.68 13.6763 1293.03 -26.4476 1262.36 -51.8885C1231.69 -77.3293 1192.43 -90.1225 1153.33 -97.3913C1119.6 -103.643 1083.84 -106.841 1054.91 -125.594C1021.76 -146.965 1003.59 -185.344 993.268 -223.287C982.801 -261.231 978.585 -301.064 964.774 -337.99C947.183 -385.092 914.183 -426.378 872.024 -454" stroke="#A08B8B" stroke-miterlimit="10"/>
</g>
</svg>
