<svg width="327" height="552" viewBox="0 0 327 552" fill="none" xmlns="http://www.w3.org/2000/svg">
<g opacity="0.4">
<path d="M-358.844 1510.15C-401.148 1483.99 -403.184 1419.73 -378.324 1376.55C-353.465 1333.38 -310.143 1304.88 -271.763 1273.19C-233.239 1241.5 -196.313 1200.94 -193.115 1151.22C-189.044 1087.69 -241.67 1029.98 -234.838 966.591C-229.604 917.308 -189.335 879.947 -146.885 859.012C-122.898 847.237 -95.2762 843.021 -70.4168 833.426C41.9593 789.232 141.978 860.611 212.05 802.606C287.936 739.804 284.011 669.587 270.055 634.987C252.174 590.647 191.988 492.373 73.506 519.413C25.3863 530.461 -23.8964 539.765 -73.179 536.713C-146.885 532.206 -218.556 474.201 -223.353 400.349C-226.551 349.758 -200.383 297.277 -218.556 250.03C-230.767 218.338 -261.878 196.386 -295.024 188.536C-328.169 180.685 -363.06 185.483 -395.77 194.642" stroke="#A08B8B" stroke-miterlimit="10"/>
<path d="M-355.5 1510.01C-397.804 1481.37 -401.584 1416.1 -376.725 1371.17C-352.447 1327.27 -308.689 1298.05 -269.437 1267.08C-230.621 1236.41 -193.114 1197.89 -188.026 1149.91C-181.484 1088.56 -229.458 1031.43 -222.335 968.336C-216.665 918.181 -179.158 879.656 -138.162 856.541C-114.611 843.166 -86.6986 837.061 -61.1124 826.593C47.4839 782.254 145.177 849.854 213.94 793.302C287.791 732.389 285.611 663.917 272.527 629.027C255.808 584.832 197.658 490.483 83.2465 514.034C35.9991 523.774 -12.8473 531.624 -61.6938 528.281C-133.51 523.629 -203 468.24 -209.396 397.151C-213.758 348.014 -189.916 296.114 -207.797 249.303C-220.009 217.32 -249.811 194.642 -281.939 185.192C-314.358 175.743 -349.103 178.069 -382.395 185.483" stroke="#A08B8B" stroke-miterlimit="10"/>
<path d="M-352.156 1509.86C-394.315 1478.9 -399.985 1412.46 -374.98 1365.65C-351.138 1321.02 -307.089 1291.07 -266.965 1260.69C-227.713 1231.03 -189.915 1194.69 -182.792 1148.46C-173.779 1089.43 -217.246 1032.59 -209.687 969.935C-203.581 919.053 -168.981 879.22 -129.293 853.779C-106.033 838.805 -77.9755 830.664 -51.5169 819.47C53.2996 774.985 148.812 838.95 215.976 783.707C287.792 724.684 287.501 657.957 275.144 622.921C259.734 579.017 203.473 488.448 92.9873 508.364C46.7576 516.796 -1.7982 523.193 -50.2086 519.704C-120.135 514.906 -187.589 462.134 -195.44 393.662C-200.964 345.833 -179.594 294.661 -197.039 248.431C-209.105 216.157 -237.744 192.752 -268.855 181.848C-300.692 170.654 -335.292 170.654 -368.874 176.324" stroke="#A08B8B" stroke-miterlimit="10"/>
<path d="M-348.812 1509.72C-390.971 1476.43 -398.386 1408.83 -373.381 1360.13C-349.975 1314.77 -305.49 1284.09 -264.639 1254.44C-225.097 1225.8 -186.717 1191.49 -177.704 1147C-166.365 1090.16 -205.18 1033.9 -197.33 971.534C-190.788 919.925 -159.096 878.784 -120.571 851.017C-97.747 834.444 -69.3985 824.413 -42.0677 812.346C59.1143 768.007 152.155 828.047 218.011 774.112C287.792 716.834 289.245 651.996 277.761 616.67C263.659 572.911 209.288 486.122 102.873 502.694C57.5151 509.818 9.39555 514.47 -38.4333 510.981C-106.47 506.038 -171.744 455.883 -181.193 390.173C-187.88 343.653 -168.982 293.352 -185.991 247.413C-198.057 214.849 -225.388 190.862 -255.626 178.359C-286.736 165.421 -321.191 163.095 -355.209 167.02" stroke="#A08B8B" stroke-miterlimit="10"/>
<path d="M-345.614 1509.57C-387.628 1473.96 -396.932 1405.19 -371.782 1354.75C-348.812 1308.66 -304.036 1277.26 -262.168 1248.19C-222.335 1220.56 -183.519 1188.44 -172.471 1145.69C-158.66 1091.03 -192.823 1035.21 -184.682 973.278C-177.704 920.943 -148.774 878.347 -111.703 848.4C-89.1698 830.228 -60.676 818.162 -32.4729 805.514C65.0747 761.319 155.79 817.435 220.191 764.954C287.792 709.565 291.135 646.617 280.523 611C267.584 567.387 215.103 484.377 112.758 497.461C68.1277 503.276 20.5895 506.474 -26.8032 502.84C-92.9496 497.752 -156.188 450.068 -167.092 387.12C-174.942 341.908 -158.369 292.335 -174.942 246.832C-187.008 213.977 -213.176 189.263 -242.251 175.161C-272.78 160.478 -306.944 155.826 -341.543 158.007" stroke="#A08B8B" stroke-miterlimit="10"/>
<path d="M-342.274 1509.28C-384.288 1471.19 -395.336 1401.41 -370.186 1349.08C-347.653 1302.41 -302.586 1270.14 -259.845 1241.79C-219.721 1215.18 -180.179 1185.09 -167.386 1144.1C-150.958 1091.76 -180.76 1036.37 -172.183 974.732C-164.769 921.67 -138.747 877.621 -102.984 845.638C-80.8868 825.867 -52.1022 811.91 -23.0269 798.39C70.8863 754.487 159.13 806.531 222.078 755.359C287.643 701.86 292.731 640.657 282.991 604.749C271.215 561.427 220.624 481.906 122.495 491.791C78.7366 496.153 31.6347 498.042 -15.322 494.117C-79.5784 488.884 -140.782 443.817 -153.139 383.631C-162.152 339.727 -148.051 290.881 -164.187 245.814C-176.108 212.668 -201.113 187.082 -229.171 171.672C-258.973 155.245 -292.991 148.266 -328.027 148.703" stroke="#A08B8B" stroke-miterlimit="10"/>
<path d="M-338.928 1509.14C-380.796 1468.72 -393.735 1397.78 -368.585 1343.55C-346.487 1296.16 -301.13 1263.01 -257.517 1235.39C-217.102 1209.81 -177.124 1181.89 -162.295 1142.5C-143.396 1092.34 -168.546 1037.53 -159.678 976.186C-151.828 922.397 -128.713 876.894 -94.259 842.73C-72.4526 821.215 -43.5226 805.514 -13.7204 791.122C76.5584 747.654 162.331 795.483 223.97 745.619C287.5 693.865 294.333 634.551 285.465 598.498C274.997 555.466 226.006 479.289 132.092 485.976C89.0608 489.029 42.5403 489.32 -3.83479 485.249C-66.056 479.87 -125.515 437.42 -139.18 379.851C-149.357 337.256 -137.581 289.282 -153.427 244.506C-165.348 211.069 -189.045 184.756 -216.085 167.747C-245.305 149.575 -279.178 140.271 -314.505 138.962" stroke="#A08B8B" stroke-miterlimit="10"/>
<path d="M-335.583 1508.99C-377.306 1466.25 -392.135 1394.14 -366.839 1338.17C-345.178 1290.05 -299.53 1256.18 -255.045 1229.29C-214.194 1204.57 -173.779 1178.99 -157.061 1141.33C-135.69 1093.5 -156.334 1038.99 -147.03 978.076C-138.743 923.559 -118.536 876.603 -85.2447 840.259C-63.8744 816.999 -34.6538 799.553 -3.9793 784.434C82.8105 741.548 166.111 785.016 226.297 736.46C287.791 686.596 296.223 629.172 288.373 592.828C279.069 549.942 230.513 465.333 142.27 480.888C100.546 488.157 54.026 481.469 8.08703 477.254C-52.2442 471.729 -109.668 431.751 -124.787 376.944C-136.272 335.657 -126.822 288.409 -142.232 244.215C-154.008 210.488 -176.541 183.302 -202.709 164.985C-231.203 144.923 -264.93 133.438 -300.838 130.385" stroke="#A08B8B" stroke-miterlimit="10"/>
<path d="M-332.383 1508.85C-374.106 1463.78 -390.533 1390.65 -365.383 1332.65C-344.158 1283.95 -298.219 1249.2 -252.862 1223.04C-211.72 1199.34 -170.869 1175.79 -152.116 1139.88C-128.419 1094.23 -144.265 1040.3 -134.671 979.675C-125.948 924.432 -108.794 875.876 -76.6654 837.642C-55.7311 812.637 -26.2197 793.448 5.32704 777.456C88.6278 735.152 169.312 774.258 228.189 727.01C287.648 679.036 297.825 623.357 290.847 586.722C282.706 544.127 236.185 461.698 151.867 475.218C110.87 481.76 64.9314 472.892 19.4286 468.531C-39.0128 462.861 -94.5466 425.5 -110.974 373.455C-123.622 333.331 -116.498 286.956 -131.472 243.197C-143.248 209.179 -164.473 181.122 -189.623 161.496C-217.535 139.544 -250.972 125.878 -287.316 121.081" stroke="#A08B8B" stroke-miterlimit="10"/>
<path d="M-329.041 1508.7C-370.619 1461.16 -388.936 1387.02 -363.641 1327.27C-342.852 1277.84 -296.622 1242.23 -250.392 1216.78C-209.106 1193.96 -167.528 1172.73 -146.884 1138.57C-120.717 1095.25 -131.911 1041.61 -122.025 981.419C-112.866 925.449 -98.6193 875.295 -67.7995 835.025C-47.3014 808.276 -17.3539 787.342 14.9197 770.478C94.7314 728.9 172.944 763.5 230.222 717.706C287.646 671.477 299.567 617.833 293.461 580.907C286.483 538.602 241.852 458.5 161.75 469.985C121.335 475.8 76.1232 464.897 31.2019 460.39C-25.3496 454.72 -78.9935 419.684 -96.7295 370.402C-110.686 331.586 -105.743 285.938 -120.426 242.616C-132.056 208.307 -152.118 179.377 -176.25 158.297C-203.436 134.456 -236.872 118.61 -273.507 112.068" stroke="#A08B8B" stroke-miterlimit="10"/>
<path d="M-325.696 1508.41C-367.274 1458.55 -387.191 1383.24 -362.041 1321.6C-341.543 1271.59 -295.313 1235.1 -248.065 1210.39C-206.488 1188.58 -164.329 1169.39 -141.795 1136.97C-113.156 1095.83 -119.843 1042.77 -109.522 982.873C-99.9267 926.176 -88.7327 874.422 -59.0759 832.118C-39.0139 803.624 -8.77559 781.091 24.2249 763.355C100.548 722.504 176.143 752.597 232.113 708.112C287.502 663.772 301.167 611.872 295.934 574.656C290.119 532.497 247.523 455.011 171.491 464.17C131.513 468.967 87.173 456.319 42.6877 451.522C-11.9739 445.707 -63.8733 413.143 -82.7722 366.767C-98.0368 329.115 -95.42 284.484 -109.667 241.453C-121.152 206.853 -140.051 177.051 -163.311 154.663C-189.915 128.931 -223.061 110.905 -260.277 102.618" stroke="#A08B8B" stroke-miterlimit="10"/>
<path d="M-322.356 1508.26C-363.788 1456.07 -385.594 1379.61 -360.299 1316.08C-340.237 1265.34 -293.716 1227.98 -245.597 1203.99C-203.728 1183.06 -161.133 1166.19 -136.564 1135.52C-105.454 1096.7 -107.489 1044.08 -97.0219 984.472C-86.8455 927.049 -78.8498 873.55 -50.2106 829.356C-30.5848 799.117 -0.0557757 774.839 33.817 756.231C106.651 716.253 179.775 741.693 234.291 698.517C287.644 656.067 302.909 606.057 298.693 568.55C294.041 526.682 253.481 466.205 181.374 458.645C141.832 454.429 98.3642 447.887 54.3151 443.09C1.54342 437.13 -48.6115 407.182 -68.6735 363.424C-85.3918 327.08 -84.8102 283.176 -98.7664 240.726C-110.251 205.69 -127.842 175.161 -150.084 151.319C-175.961 123.698 -208.962 103.49 -246.614 93.4595" stroke="#A08B8B" stroke-miterlimit="10"/>
<path d="M-319.157 1508.12C-360.589 1453.6 -383.994 1376.12 -358.844 1310.7C-339.073 1259.38 -292.407 1221.15 -243.415 1197.89C-201.256 1177.97 -158.079 1163.14 -131.621 1134.21C-98.0388 1097.58 -95.4221 1045.39 -84.6642 986.217C-74.0517 928.066 -69.1089 872.968 -41.6327 826.884C-22.5884 794.756 8.5222 769.024 43.1218 749.398C112.612 710.292 183.119 731.081 236.037 689.213C287.354 648.652 304.218 600.387 301.02 562.59C297.531 521.012 258.425 463.152 190.97 453.121C152.009 447.306 109.268 439.601 65.8005 434.513C14.9187 428.552 -33.637 401.076 -54.7166 360.08C-72.8887 325.044 -74.3424 281.867 -87.8624 239.854C-99.2018 204.527 -115.629 173.126 -136.854 147.976C-162.004 118.464 -194.86 96.0763 -233.094 84.3008" stroke="#A08B8B" stroke-miterlimit="10"/>
<path d="M-315.81 1507.97C-357.097 1450.99 -382.247 1372.48 -357.097 1305.17C-337.762 1253.13 -290.805 1214.02 -240.941 1191.63C-198.491 1172.59 -154.878 1160.09 -126.384 1132.9C-90.4764 1098.45 -83.0622 1046.84 -72.0136 987.961C-60.965 929.084 -59.0751 872.387 -32.7619 824.267C-14.1537 790.395 17.2476 763.064 52.7195 742.566C118.866 704.332 186.611 720.468 238.22 679.908C287.503 641.238 306.111 594.863 303.785 556.774C301.313 515.488 263.952 460.099 200.858 447.742C162.479 440.328 120.465 431.46 77.4335 426.081C28.4416 419.975 -18.515 394.97 -40.6122 356.736C-60.238 322.864 -63.8724 280.559 -76.9563 238.981C-88.2957 203.364 -103.27 170.945 -123.768 144.632C-148.191 113.085 -181.046 88.662 -219.571 75.142" stroke="#A08B8B" stroke-miterlimit="10"/>
<path d="M-312.468 1507.68C-353.755 1448.37 -380.504 1368.85 -355.499 1299.5C-336.455 1246.88 -289.498 1206.75 -238.616 1185.09C-195.876 1166.92 -151.681 1156.74 -121.298 1131.16C-82.9182 1099.03 -70.8519 1047.86 -59.5126 989.27C-47.8824 929.665 -49.3362 871.369 -23.8953 821.215C-5.86861 785.597 26.1142 756.667 62.1675 735.152C124.97 697.935 189.954 709.275 240.254 670.168C287.501 633.388 307.709 588.757 306.546 550.378C305.237 509.236 269.475 456.319 210.888 441.927C173.235 432.623 131.803 422.883 89.2076 417.358C42.1056 411.253 -3.25185 388.719 -26.3667 353.102C-47.4463 320.538 -53.116 278.96 -65.9092 237.818C-77.1031 201.91 -90.9139 168.619 -110.394 140.852C-133.945 107.416 -166.8 80.8117 -205.761 65.5472" stroke="#A08B8B" stroke-miterlimit="10"/>
<path d="M-309.125 1507.54C-350.267 1445.9 -378.761 1365.21 -353.901 1294.12C-335.148 1240.77 -288.046 1199.78 -236.292 1178.99C-193.406 1161.69 -148.63 1153.69 -116.211 1129.99C-75.3599 1100.05 -58.6417 1049.31 -47.0116 991.16C-34.9453 930.828 -39.4519 870.788 -15.1741 818.743C2.27113 781.236 34.69 750.852 71.6157 728.319C131.22 691.975 193.441 698.662 242.288 660.864C287.5 625.828 309.306 583.233 309.161 544.563C308.87 503.712 274.852 452.976 220.627 436.548C183.556 425.354 142.85 414.742 100.836 408.927C55.6243 402.675 11.7206 382.904 -12.2665 349.904C-34.9453 318.793 -42.5049 277.797 -55.0073 237.092C-66.0559 200.893 -78.5583 166.584 -97.1665 137.654C-119.991 102.182 -152.7 73.5429 -192.243 56.5338" stroke="#A08B8B" stroke-miterlimit="10"/>
<path d="M-305.927 1507.39C-346.923 1443.28 -377.161 1361.72 -352.302 1288.6C-333.985 1234.67 -286.592 1192.65 -233.965 1172.59C-190.789 1156.16 -145.431 1150.35 -111.122 1128.4C-67.9454 1100.63 -46.4297 1050.47 -34.5089 992.468C-21.8611 931.41 -29.7114 869.77 -6.45113 815.836C10.4125 776.584 43.413 744.746 81.0655 721.195C137.326 686.014 196.785 687.759 244.178 651.269C287.355 618.123 310.76 577.273 311.633 538.312C312.505 497.752 280.231 448.905 230.367 430.878C194.023 417.649 153.899 406.31 112.321 400.349C69.1446 394.098 26.404 376.798 1.54458 346.415C-22.7333 316.612 -32.1828 276.489 -44.3945 236.219C-55.4431 199.73 -66.4916 164.549 -84.2276 134.165C-106.179 96.8032 -138.889 65.9833 -178.868 47.2297" stroke="#A08B8B" stroke-miterlimit="10"/>
<path d="M-302.585 1507.25C-343.581 1440.81 -375.418 1358.09 -350.704 1283.22C-332.677 1228.56 -285.285 1185.67 -231.641 1166.48C-188.173 1150.93 -142.38 1147.29 -106.035 1127.09C-60.3872 1101.5 -34.2195 1051.93 -22.0078 994.213C-8.92393 932.428 -19.9725 869.189 2.27008 813.219C18.5522 772.223 52.2795 738.931 90.5136 714.217C143.576 680.054 200.128 676.856 246.212 641.82C287.208 610.418 312.358 571.458 314.248 532.351C316.138 492.082 285.9 445.125 240.106 425.354C204.634 410.09 164.946 398.023 123.805 391.772C82.6633 385.521 41.3763 370.983 15.6446 343.071C-10.3778 314.723 -21.5717 275.18 -33.3472 235.347C-44.2504 198.567 -53.9907 162.513 -70.9997 130.821C-92.0793 91.4242 -124.934 58.5691 -165.204 38.071" stroke="#A08B8B" stroke-miterlimit="10"/>
<path d="M-299.24 1507.1C-340.091 1438.34 -373.673 1354.6 -348.959 1277.7C-331.223 1222.45 -283.685 1178.55 -229.023 1160.09C-185.265 1145.4 -138.89 1144.1 -100.656 1125.63C-52.5363 1102.23 -21.7164 1053.09 -9.214 995.812C4.45139 933.3 -9.94087 868.462 11.4295 810.457C27.1302 767.716 61.439 732.971 100.4 707.094C150.264 673.948 203.908 665.952 248.684 632.225C287.645 602.714 314.394 565.643 317.302 526.1C320.209 485.976 292.006 440.909 250.428 419.684C215.393 402.239 176.141 389.737 135.581 383.34C96.184 377.089 56.2054 365.168 29.7469 339.727C1.97997 312.978 -10.9585 273.872 -22.4432 234.475C-33.2011 197.404 -41.633 160.333 -57.7698 127.478C-77.9771 86.1907 -110.832 51.1549 -151.683 28.9123" stroke="#A08B8B" stroke-miterlimit="10"/>
<path d="M-295.897 1506.81C-336.748 1435.72 -371.929 1350.82 -347.36 1272.17C-329.915 1216.35 -282.377 1171.28 -226.698 1153.84C-182.794 1140.03 -135.837 1140.9 -95.568 1124.18C-45.1224 1103.1 -9.50508 1054.4 3.14268 997.411C17.3896 934.172 -0.346413 867.735 20.0063 807.84C35.1255 763.209 70.1613 727.156 109.558 700.261C156.224 668.278 207.106 655.34 250.428 623.066C287.354 595.299 315.702 560.118 319.627 520.43C323.553 480.597 297.675 437.13 259.878 414.451C226.296 394.244 187.335 381.596 147.065 374.763C109.558 368.512 71.0335 359.499 43.7027 336.384C14.1913 311.379 -0.49175 272.563 -11.6857 233.602C-22.2982 196.241 -29.4217 158.297 -44.6862 123.989C-64.0213 80.6664 -96.8764 43.5953 -138.163 19.6082" stroke="#A08B8B" stroke-miterlimit="10"/>
<path d="M-292.7 1506.66C-333.405 1433.1 -370.04 1347.33 -345.762 1266.65C-328.608 1210.1 -280.924 1164.16 -224.373 1147.58C-180.178 1134.5 -132.64 1137.84 -90.4808 1122.87C-37.5637 1103.97 2.70558 1055.85 15.6441 999.155C30.4725 935.19 9.3929 867.008 28.728 805.223C43.2656 758.848 79.0283 721.631 119.007 693.283C162.474 662.463 210.449 644.582 252.317 613.617C287.208 587.74 317.01 554.448 322.098 514.325C327.041 474.637 303.635 432.914 269.617 408.927C237.343 386.248 198.382 373.455 158.695 366.331C123.077 360.08 85.861 353.829 57.8033 333.04C26.5473 309.78 10.1198 271.255 -0.783436 232.876C-11.2505 195.223 -17.0656 156.408 -31.6033 120.79C-50.0661 75.5782 -82.9212 36.4719 -124.644 10.5949" stroke="#A08B8B" stroke-miterlimit="10"/>
<path d="M-289.353 1506.52C-330.059 1430.63 -368.438 1343.7 -344.16 1261.12C-327.442 1203.99 -279.468 1157.03 -222.044 1141.19C-177.559 1128.98 -129.585 1134.5 -85.3902 1121.27C-30.0017 1104.7 14.9197 1056.87 28.149 1000.61C43.4135 935.917 19.1356 866.136 37.453 802.316C51.4092 754.196 88.0441 715.671 128.459 686.014C168.873 656.358 213.94 633.533 254.355 603.877C287.21 579.889 318.611 548.343 324.717 508.073C330.678 468.676 310.034 428.552 279.36 403.112C248.685 377.671 209.433 364.878 170.327 357.609C136.6 351.357 100.837 348.159 71.9073 329.406C38.7614 308.035 20.5894 269.656 10.2677 231.713C-0.199453 193.769 -4.41543 153.936 -18.2262 117.01C-35.8168 69.9085 -68.8172 28.6215 -110.976 1" stroke="#A08B8B" stroke-miterlimit="10"/>
</g>
</svg>
