<svg width="887" height="700" viewBox="0 0 887 700" fill="none" xmlns="http://www.w3.org/2000/svg">
<g opacity="0.4">
<path d="M193.852 718.726C216.385 687.47 240.954 657.522 267.121 629.174C278.751 616.526 291.108 604.024 306.518 596.464C345.915 577.275 393.163 595.883 430.234 619.143C464.397 640.659 496.089 666.1 524.292 695.03C552.205 723.669 577.355 756.088 611.228 777.458C645.1 798.828 691.475 806.679 724.331 783.709C743.811 770.044 755.441 747.22 759.948 723.814C764.454 700.409 762.274 676.276 758.349 652.725C753.987 625.83 747.591 597.773 756.168 571.75C765.036 545.001 790.477 524.358 818.535 521.45C858.513 517.234 893.549 545.146 927.276 566.953C970.017 594.72 1019.74 615.509 1070.62 612.601C1121.5 609.694 1172.96 578.583 1188.23 529.882" stroke="white" stroke-miterlimit="10"/>
<path d="M199.229 729.193C221.471 698.373 245.604 669.153 271.481 641.386C282.965 629.029 295.177 616.817 310.296 609.548C340.68 594.72 375.861 602.279 407.262 616.817C415.84 620.742 424.126 625.249 431.976 630.046C465.849 650.399 497.105 674.677 525.308 702.444C553.075 729.92 578.08 761.176 611.662 781.819C630.415 793.304 652.658 801.3 674.61 802.608C693.654 803.771 712.698 799.991 728.545 789.234C731.307 787.344 734.069 785.163 736.54 782.837C752.096 768.736 761.545 748.383 765.616 727.594C766.924 720.907 767.796 714.219 768.232 707.387C769.395 689.796 768.087 671.915 766.052 654.47C762.853 626.848 758.637 598.5 768.232 572.623C777.682 546.891 802.105 526.974 829.581 523.921C868.542 519.705 902.996 545.873 935.851 566.226C938.468 567.825 941.085 569.424 943.702 571.023C983.68 594.429 1028.89 610.566 1074.83 606.931C1123.82 603.006 1172.96 572.041 1187.06 524.358" stroke="white" stroke-miterlimit="10"/>
<path d="M204.465 739.515C226.271 709.276 250.113 680.492 275.699 653.452C287.039 641.386 299.105 629.61 314.079 622.341C344.026 607.804 378.335 614.491 409.3 628.156C417.732 631.936 425.873 636.152 433.724 640.513C467.16 659.558 498.271 682.818 526.183 709.277C553.95 735.444 578.809 765.683 611.955 785.599C631.436 797.229 654.26 805.516 676.939 807.26C696.564 808.714 716.19 805.225 732.618 794.322C735.525 792.432 738.288 790.251 740.904 787.925C757.041 773.533 766.781 752.599 771.143 731.228C772.596 724.396 773.469 717.418 774.05 710.44C775.504 692.267 774.777 673.95 773.469 656.069C771.433 627.72 769.253 599.081 780.011 573.349C790.187 548.781 813.593 529.446 840.342 526.393C878.43 522.032 912.012 546.6 944.286 565.499C946.757 566.953 949.374 568.407 951.991 569.86C990.952 591.376 1034.71 605.768 1078.9 601.116C1125.86 596.174 1172.67 565.354 1185.76 518.833" stroke="white" stroke-miterlimit="10"/>
<path d="M209.697 749.982C231.068 720.18 254.619 692.122 279.914 665.664C291.108 653.888 303.029 642.403 317.712 635.28C347.078 620.888 380.66 626.993 411.189 639.641C419.476 643.13 427.617 647.055 435.322 651.271C468.322 669.153 499.142 691.104 527.054 716.4C554.676 741.405 579.39 770.48 612.245 789.524C632.452 801.3 655.858 809.877 679.118 812.058C699.326 813.948 719.678 810.459 736.687 799.555C739.74 797.52 742.648 795.339 745.41 793.013C762.274 778.33 772.159 756.815 776.957 734.717C778.41 727.594 779.573 720.471 780.155 713.347C781.899 694.739 781.609 675.84 781.027 657.522C780.155 628.447 780.155 599.663 791.93 573.786C802.688 550.38 825.222 531.626 851.244 528.428C888.315 523.921 921.316 546.891 952.717 564.191C955.188 565.499 957.66 566.953 960.276 568.261C998.365 588.032 1040.67 600.535 1082.97 594.865C1128.04 588.759 1172.38 558.23 1184.45 512.873" stroke="white" stroke-miterlimit="10"/>
<path d="M215.076 760.449C236.01 731.228 259.271 703.607 284.275 678.021C295.469 666.681 307.245 655.342 321.492 648.364C350.276 634.262 383.277 639.641 413.224 651.271C421.365 654.47 429.361 658.104 436.921 662.029C469.485 678.747 500.16 699.536 527.781 723.523C555.257 747.365 579.971 775.277 612.39 793.595C633.324 805.516 657.312 814.384 681.299 816.855C701.942 819.036 723.022 815.838 740.612 804.789C743.811 802.754 746.718 800.573 749.626 798.247C767.071 783.273 777.247 761.176 782.335 738.497C783.935 731.228 785.098 723.96 785.97 716.545C788.151 697.501 788.296 678.021 788.441 659.412C788.732 629.465 790.767 600.68 803.706 574.803C814.9 552.561 836.561 534.389 862.002 531.045C898.201 526.393 930.474 547.909 961.149 563.609C963.62 564.918 965.946 566.081 968.417 567.244C1005.49 585.125 1046.34 595.883 1086.75 589.196C1129.79 582.072 1171.94 551.688 1182.85 507.348" stroke="white" stroke-miterlimit="10"/>
<path d="M220.309 770.916C240.807 742.132 263.776 715.237 288.49 690.232C299.539 679.184 311.169 668.28 325.27 661.302C353.474 647.491 385.747 651.998 415.259 662.901C423.254 665.809 431.105 669.298 438.664 672.787C470.792 688.342 501.176 707.823 528.798 730.647C556.128 753.326 580.842 780.075 612.825 797.665C634.486 809.732 659.055 818.89 683.624 821.798C704.849 824.269 726.655 821.362 744.827 810.168C748.025 808.133 751.224 805.952 754.131 803.48C772.303 788.216 782.625 765.537 788.004 742.132C789.749 734.717 790.912 727.158 791.929 719.598C794.401 699.972 795.127 680.201 796 661.012C797.454 630.337 801.379 601.407 815.626 575.385C827.256 554.305 848.19 536.569 872.904 533.371C908.085 528.719 939.632 548.49 969.579 562.737C971.905 563.9 974.377 564.918 976.703 566.081C1012.9 582.072 1052.3 590.94 1090.82 583.38C1131.97 575.239 1171.65 545.001 1181.54 501.824" stroke="white" stroke-miterlimit="10"/>
<path d="M225.545 781.383C245.607 753.18 268.286 726.722 292.709 702.444C303.612 691.686 315.097 681.073 328.908 674.241C356.675 660.575 388.221 664.501 417.151 674.386C425.147 677.003 432.852 680.201 440.266 683.545C472.104 697.937 502.051 716.255 529.673 737.77C556.858 759.141 581.572 784.727 613.119 801.736C635.507 813.802 660.657 823.397 685.952 826.595C707.759 829.358 730.147 826.595 748.901 815.401C752.244 813.366 755.442 811.185 758.495 808.569C777.249 793.159 787.861 769.753 793.531 745.621C795.421 737.916 796.729 730.211 797.747 722.506C800.509 702.444 801.818 682.091 803.417 662.465C806.033 631.064 811.849 601.989 827.404 575.966C839.325 555.904 859.532 538.895 883.665 535.552C917.973 530.754 948.793 548.926 978.014 561.574C980.34 562.592 982.666 563.609 984.992 564.481C1020.17 578.728 1058.12 585.706 1094.9 577.129C1134 567.97 1171.36 537.878 1180.23 495.718" stroke="white" stroke-miterlimit="10"/>
<path d="M230.777 791.85C250.549 764.083 272.791 738.352 296.924 714.655C307.682 704.188 319.021 693.867 332.541 687.179C359.726 673.805 390.546 676.858 419.04 685.871C426.89 688.342 434.45 691.104 441.864 694.157C473.265 707.387 503.068 724.396 530.398 744.894C557.438 765.101 582.152 789.524 613.263 805.807C636.378 818.018 662.11 828.049 687.987 831.538C710.229 834.591 733.489 832.12 752.825 820.78C756.314 818.745 759.657 816.419 762.856 813.948C782.336 798.247 793.094 774.26 799.2 749.546C801.09 741.695 802.543 733.7 803.706 725.849C806.759 705.351 808.649 684.417 810.975 664.355C814.755 632.227 822.46 603.006 839.324 576.984C851.535 558.085 871.161 541.657 894.567 538.314C927.858 533.371 958.096 549.944 986.445 561.138C988.625 562.01 990.951 562.882 993.277 563.755C1027.59 576.112 1064.08 581.345 1098.97 571.75C1136.18 561.574 1171.22 531.626 1178.92 490.63" stroke="white" stroke-miterlimit="10"/>
<path d="M236.156 802.318C255.491 775.132 277.443 749.837 301.285 726.867C311.897 716.691 323.091 706.805 336.466 700.118C363.07 687.034 393.163 689.36 421.221 697.356C428.926 699.536 436.34 702.008 443.609 704.915C474.574 716.836 504.085 732.828 531.416 752.017C558.456 771.062 583.17 794.176 613.699 809.877C637.686 822.089 663.854 832.556 690.458 836.481C713.282 839.825 737.124 837.499 757.04 826.159C760.675 824.124 764.018 821.798 767.362 819.181C787.424 803.19 798.473 778.476 804.869 753.18C806.905 745.185 808.504 737.043 809.812 728.902C813.301 707.823 815.627 686.452 818.68 665.954C823.623 633.099 833.218 603.733 851.39 577.565C863.892 559.684 882.937 543.983 905.615 540.494C938.034 535.552 967.4 550.525 995.167 560.12C997.348 560.847 999.528 561.574 1001.71 562.301C1035.15 572.768 1070.04 576.257 1103.18 565.644C1138.51 554.451 1171.07 524.648 1177.61 484.815" stroke="white" stroke-miterlimit="10"/>
<path d="M241.389 812.785C260.288 786.035 281.949 761.467 305.5 739.079C315.967 729.193 327.161 719.598 340.099 713.202C366.267 700.263 395.633 702.008 423.109 708.986C430.669 710.876 438.083 713.202 445.207 715.673C475.736 726.431 504.956 741.259 532.142 759.141C559.036 776.877 583.75 798.828 613.843 813.948C638.557 826.305 665.307 837.062 692.492 841.278C715.898 844.913 740.466 842.878 760.964 831.393C764.744 829.358 768.233 827.032 771.577 824.269C792.366 807.987 803.56 782.692 810.247 756.669C812.428 748.383 814.027 740.096 815.481 731.81C819.26 710.294 822.168 688.342 825.948 667.553C832.054 633.971 843.393 604.46 863.019 578.292C875.667 561.574 894.129 546.455 916.227 542.82C947.628 537.732 976.413 551.107 1003.31 559.103C1005.49 559.684 1007.52 560.411 1009.7 560.847C1042.12 569.57 1075.7 571.023 1106.96 559.539C1140.25 547.327 1170.64 517.67 1176.01 478.855" stroke="white" stroke-miterlimit="10"/>
<path d="M246.625 823.106C265.088 796.939 286.458 772.951 309.864 751.29C320.186 741.695 331.234 732.391 344.027 726.14C369.614 713.492 398.253 714.51 425.293 720.471C432.707 722.07 439.976 724.105 447.099 726.286C477.192 735.88 506.268 749.4 533.308 766.119C560.057 782.692 584.771 803.335 614.428 817.873C639.869 830.23 667.199 841.424 695.112 846.076C719.099 850.001 744.249 848.111 765.474 836.626C769.254 834.591 772.888 832.12 776.377 829.503C797.748 812.93 809.232 787.053 816.21 760.449C818.391 752.017 820.135 743.44 821.735 735.008C825.805 713.056 829.294 690.523 833.801 669.298C841.07 634.989 854.154 605.187 875.379 579.019C888.172 563.318 906.198 548.926 927.569 545.292C958.098 540.058 986.01 551.834 1012.32 558.376C1014.36 558.957 1016.54 559.393 1018.57 559.829C1050.12 566.662 1082.1 566.371 1111.47 553.869C1142.87 540.64 1170.78 511.128 1175.15 473.476" stroke="white" stroke-miterlimit="10"/>
<path d="M251.857 833.573C269.884 807.842 290.964 784.436 314.079 763.502C324.4 754.198 335.158 745.184 347.661 739.079C372.665 726.722 400.723 726.867 427.182 731.955C434.45 733.409 441.719 735.008 448.697 737.043C478.499 745.475 507.139 757.832 534.033 773.242C560.637 788.652 585.351 807.987 614.572 821.943C640.74 834.446 668.507 845.93 697.146 850.873C721.569 855.089 747.591 853.49 769.253 841.86C773.178 839.825 776.958 837.353 780.592 834.591C802.689 817.727 814.319 791.269 821.734 763.938C824.06 755.361 825.949 746.493 827.549 737.916C831.91 715.382 835.98 692.558 841.069 670.752C849.5 635.716 864.183 605.623 887.008 579.601C899.946 564.772 917.537 551.252 938.18 547.472C967.692 542.239 995.022 552.415 1020.46 557.358C1022.5 557.794 1024.53 558.085 1026.57 558.376C1057.1 563.464 1087.77 561.283 1115.25 547.763C1144.61 533.516 1170.2 504.15 1173.54 467.515" stroke="white" stroke-miterlimit="10"/>
<path d="M257.234 844.041C274.825 818.89 295.614 796.066 318.438 775.714C328.614 766.7 339.227 758.123 351.438 752.017C375.862 739.951 403.192 739.369 429.215 743.44C436.338 744.603 443.462 746.057 450.294 747.656C479.66 754.925 508.154 765.973 534.904 780.366C561.362 794.467 586.222 812.639 614.861 825.869C641.901 838.371 670.104 850.437 699.47 855.671C724.475 860.177 751.079 858.869 773.467 847.093C777.537 844.913 781.317 842.587 785.097 839.825C807.775 822.67 819.696 795.63 827.401 767.718C829.873 758.85 831.763 749.982 833.652 741.114C838.45 718.145 842.957 694.739 848.772 672.496C858.366 636.734 874.649 606.35 899.072 580.328C912.01 566.517 929.165 553.578 949.227 549.798C977.866 544.42 1004.47 552.997 1029.18 556.486C1031.07 556.777 1033.11 557.067 1035 557.213C1064.66 560.411 1093.73 556.486 1119.46 541.948C1146.94 526.538 1170.2 497.463 1172.38 461.991" stroke="white" stroke-miterlimit="10"/>
<path d="M262.469 854.508C279.769 829.794 300.121 807.551 322.655 787.925C332.686 779.203 343.153 770.916 355.219 764.956C379.206 753.035 405.81 751.726 431.251 754.925C438.229 755.797 445.207 756.96 452.04 758.414C480.97 764.52 509.173 774.405 535.922 787.489C562.381 800.428 587.095 817.291 615.298 829.939C643.065 842.441 671.849 854.944 701.797 860.614C727.383 865.411 754.714 864.248 777.538 852.472C781.754 850.292 785.679 847.82 789.459 845.058C812.719 827.758 824.931 799.991 832.926 771.352C835.398 762.339 837.578 753.18 839.468 744.167C844.556 720.761 849.645 696.774 856.187 674.095C866.944 637.606 884.68 606.931 910.848 581.054C923.787 568.116 940.65 556.05 959.985 552.27C987.607 546.746 1013.48 553.724 1037.47 555.614C1039.36 555.759 1041.25 555.904 1043.14 555.904C1071.78 557.213 1099.55 551.398 1123.39 535.988C1148.83 519.56 1169.76 490.63 1170.93 456.176" stroke="white" stroke-miterlimit="10"/>
<path d="M267.703 864.975C284.567 840.842 304.629 819.181 326.871 800.137C336.757 791.705 347.224 783.709 358.854 777.894C382.26 766.264 408.137 764.229 433.142 766.409C440.12 766.991 446.952 767.863 453.64 769.026C482.134 773.969 510.046 782.546 536.65 794.467C562.963 806.243 587.822 821.798 615.444 833.864C643.938 846.367 673.304 859.305 703.978 865.266C730 870.354 758.058 869.481 781.609 857.561C785.825 855.38 790.041 852.909 793.821 850.001C817.808 832.41 830.165 804.062 838.451 774.696C841.068 765.392 843.249 756.088 845.284 746.929C850.663 722.942 856.333 698.519 863.602 675.549C875.522 638.333 894.712 607.222 922.624 581.636C935.708 569.715 952.136 558.376 970.744 554.45C997.493 548.926 1022.64 554.16 1045.9 554.596C1047.79 554.596 1049.54 554.596 1051.43 554.596C1079.19 554.16 1105.36 546.455 1127.46 530.027C1151.01 512.582 1169.47 483.797 1169.62 450.506" stroke="white" stroke-miterlimit="10"/>
<path d="M273.082 875.442C289.51 851.746 309.281 830.666 331.233 812.494C340.973 804.353 351.295 796.793 362.634 790.978C385.458 779.639 410.608 776.877 435.177 778.04C442.01 778.33 448.697 779.057 455.239 779.93C483.297 783.564 511.063 791.124 537.522 801.736C563.69 812.203 588.549 826.45 615.735 838.08C645.101 850.583 674.903 863.957 706.159 870.354C732.763 875.733 761.547 875.006 785.534 863.085C789.896 860.904 794.112 858.433 798.182 855.525C822.751 837.644 835.544 808.569 844.121 778.766C846.883 769.317 849.064 759.868 851.245 750.418C856.914 725.995 863.165 700.99 871.161 677.584C884.39 639.496 904.889 607.949 934.545 582.654C947.629 571.605 963.621 561.138 981.647 557.213C1007.38 551.543 1031.8 555.323 1054.34 554.16C1056.08 554.014 1057.82 554.014 1059.71 553.724C1086.46 551.398 1111.32 541.948 1131.53 524.503C1153.05 506.04 1169.33 477.401 1168.17 445.273" stroke="white" stroke-miterlimit="10"/>
<path d="M278.314 885.909C294.306 862.794 313.786 842.296 335.447 824.706C345.042 816.855 355.219 809.586 366.413 804.062C388.655 792.868 413.224 789.379 437.211 789.67C443.898 789.815 450.44 790.106 456.982 790.687C484.749 793.159 512.08 799.555 538.393 808.859C564.415 818.164 589.42 831.102 616.024 842.151C646.117 854.653 676.501 868.464 708.484 875.151C735.669 880.821 765.035 880.385 789.749 868.318C794.256 866.138 798.617 863.521 802.688 860.614C827.983 842.441 840.922 812.785 849.79 782.256C852.552 772.661 855.023 762.92 857.349 753.326C863.31 728.466 870.142 702.88 878.865 679.038C893.257 640.223 915.209 608.094 946.61 583.235C959.694 572.913 975.395 563.464 992.695 559.393C1017.55 553.578 1041.25 555.759 1063.06 552.997C1064.8 552.851 1066.55 552.561 1068.15 552.27C1094.02 548.054 1117.28 536.86 1135.75 518.397C1155.37 498.917 1169.18 470.423 1167 439.312" stroke="white" stroke-miterlimit="10"/>
<path d="M283.547 896.376C299.102 873.697 318.292 853.781 339.662 836.917C349.112 829.358 359.143 822.38 370.046 817.001C391.852 806.097 415.549 801.881 439.1 801.154C445.642 801.009 452.184 801.009 458.58 801.3C485.911 802.608 512.951 807.696 539.264 815.837C565.141 823.979 590.146 835.609 616.314 846.076C647.279 858.578 678.099 872.825 710.663 879.949C738.285 885.909 768.523 885.618 793.819 873.697C798.471 871.517 802.832 868.9 807.048 865.992C832.925 847.53 846.154 817.291 855.313 786.181C858.22 776.295 860.692 766.41 863.163 756.669C869.56 731.228 876.683 705.351 886.278 680.928C901.833 641.386 924.948 608.531 958.385 584.107C971.323 574.658 986.733 566.081 1003.45 561.865C1027.29 555.904 1050.41 556.486 1071.34 552.27C1072.94 551.979 1074.69 551.543 1076.29 551.107C1101.14 545.146 1123.1 531.917 1139.52 512.727C1157.11 492.229 1168.6 463.881 1165.4 433.933" stroke="white" stroke-miterlimit="10"/>
<path d="M288.783 906.698C303.902 884.601 322.801 865.266 343.881 848.983C353.185 841.715 363.071 835.173 373.828 829.794C395.053 819.181 418.168 814.093 441.138 812.639C447.534 812.203 453.931 812.058 460.328 812.058C487.222 812.203 514.117 816.128 540.285 823.106C566.016 829.939 591.166 840.261 616.753 850.292C648.59 862.649 679.846 877.623 713.137 885.037C741.34 891.288 772.306 891.288 798.037 879.222C802.689 877.041 807.341 874.424 811.557 871.371C838.161 852.618 851.536 821.798 860.985 789.96C864.038 779.929 866.655 769.753 869.126 759.867C875.814 733.99 883.519 707.532 893.84 682.673C910.559 642.403 934.982 608.676 970.308 584.98C983.247 576.257 998.366 568.552 1014.36 564.481C1037.33 558.521 1059.57 557.503 1079.92 551.688C1081.52 551.252 1083.12 550.816 1084.72 550.235C1108.71 542.384 1129.06 527.41 1143.74 507.203C1159.44 485.687 1168.6 457.484 1164.24 428.554" stroke="white" stroke-miterlimit="10"/>
<path d="M294.162 917.165C308.991 895.504 327.453 876.896 348.242 861.195C357.546 854.217 367.287 847.966 377.608 842.732C398.252 832.265 420.64 826.595 443.173 824.124C449.424 823.397 455.675 822.961 461.927 822.67C488.385 821.653 514.989 824.269 541.012 830.084C566.743 835.754 591.748 844.622 616.898 854.217C649.462 866.429 681.3 881.984 715.173 889.689C743.957 896.231 775.504 896.522 801.962 884.31C806.76 882.129 811.412 879.512 815.773 876.314C842.959 857.27 856.624 825.868 866.364 793.304C869.417 783.128 872.179 772.806 874.796 762.63C881.774 736.317 890.061 709.277 900.964 684.126C918.845 643.13 944.577 608.385 981.793 585.561C994.877 577.565 1009.56 570.878 1024.82 566.662C1046.78 560.556 1068.44 557.94 1087.92 550.525C1089.52 549.944 1090.97 549.362 1092.57 548.635C1115.54 538.895 1134.58 522.177 1147.38 500.952C1161.04 478.419 1167.88 450.361 1162.5 422.594" stroke="white" stroke-miterlimit="10"/>
<path d="M299.395 927.632C313.787 906.552 331.959 888.38 352.457 873.407C361.616 866.865 371.211 860.759 381.242 855.671C401.303 845.494 423.11 838.952 445.062 835.609C451.168 834.591 457.419 833.864 463.525 833.428C489.547 831.247 516.006 832.701 541.883 837.208C567.469 841.715 592.619 849.274 617.188 858.287C650.624 870.499 682.898 886.49 717.498 894.632C746.864 901.464 779.137 901.9 806.032 889.689C810.975 887.508 815.772 884.746 820.279 881.693C848.191 862.503 862.002 830.375 872.178 797.229C875.376 786.762 878.139 776.295 881.046 765.973C888.315 739.079 897.183 711.603 908.813 686.016C927.857 644.293 954.752 608.385 994.004 586.433C1007.09 579.164 1021.33 573.495 1036.02 569.134C1057.1 562.882 1077.89 558.666 1096.78 549.798C1098.24 549.072 1099.69 548.345 1101.15 547.618C1123.24 536.133 1140.69 517.525 1151.74 495.282C1163.51 471.586 1167.87 443.819 1161.48 417.215" stroke="white" stroke-miterlimit="10"/>
<path d="M304.627 938.099C337.046 890.27 390.399 858.724 446.951 847.239C503.502 835.754 562.961 843.168 617.477 862.358C651.641 874.424 684.496 890.997 719.677 899.429C755.003 907.861 794.691 907.279 824.639 886.781C862.146 861.195 874.648 812.639 886.86 768.881C906.922 696.92 939.196 620.451 1005.92 587.015C1039.21 570.297 1078.03 566.226 1109.58 546.309C1153.19 518.833 1175 460.828 1160.31 411.4" stroke="white" stroke-miterlimit="10"/>
<path d="M1.5186 726.286C-4.58721 676.857 44.2593 635.134 93.3966 627.429C142.679 619.724 191.962 635.571 240.808 645.747C289.655 655.923 344.462 659.267 385.167 630.628C437.212 593.993 449.278 516.943 502.922 482.489C544.645 455.594 599.016 463.735 641.757 483.652C665.889 494.991 686.533 513.89 709.648 527.12C814.464 587.16 821.588 709.713 910.704 727.885C1007.09 747.656 1059.42 700.699 1077.74 667.989C1101 626.266 1139.96 517.816 1044.74 442.51C1006.07 411.836 967.837 379.272 939.343 339.002C896.747 278.671 897.038 186.502 951.554 136.638C988.916 102.475 1046.34 89.9724 1071.64 46.214C1088.64 16.7026 1086.32 -21.2407 1071.64 -51.9151C1056.95 -82.5896 1031.37 -106.867 1003.74 -126.639" stroke="white" stroke-miterlimit="10"/>
<path d="M3.84578 728.757C-0.370139 677.875 48.1856 633.971 98.7767 625.249C148.205 616.672 198.36 632.372 247.206 643.712C295.471 654.76 348.97 659.848 389.53 633.826C441.429 600.535 455.967 527.265 509.465 493.392C552.061 466.498 605.559 471.44 649.318 488.886C674.468 498.917 696.71 516.798 720.988 530.173C823.624 587.015 832.056 705.642 919.282 723.669C1013.05 743.004 1065.09 698.519 1083.99 666.39C1107.98 625.685 1145.05 521.305 1055.06 446.872C1017.99 416.197 981.212 382.906 953.155 342.928C911.722 284.05 911.432 195.08 962.895 145.652C998.512 111.488 1053.76 97.532 1079.05 54.3551C1096.35 24.8437 1095.33 -12.6635 1082.54 -43.6287C1069.6 -74.8846 1046.05 -100.471 1019.3 -121.696" stroke="white" stroke-miterlimit="10"/>
<path d="M6.02414 731.228C3.69812 678.893 51.9631 632.808 104.153 623.068C153.872 613.764 204.899 629.319 253.6 641.531C301.284 653.452 353.329 660.285 393.889 636.734C445.497 606.641 462.652 537.296 516.15 503.859C559.618 476.819 612.39 478.855 657.02 493.828C683.188 502.551 707.175 519.415 732.471 532.935C832.781 586.869 842.666 701.281 928.002 719.017C1019.01 737.916 1070.76 695.902 1090.39 664.355C1114.96 624.813 1150.28 524.212 1065.53 450.652C1030.06 419.832 994.585 385.959 967.109 346.126C926.985 288.702 925.967 202.93 974.377 153.938C1008.1 120.065 1061.31 104.801 1086.46 62.0601C1104.05 32.4033 1104.34 -4.52239 1093.3 -35.633C1082.1 -67.4704 1060.44 -94.3651 1034.85 -117.044" stroke="white" stroke-miterlimit="10"/>
<path d="M8.20608 733.7C7.76995 680.056 55.7442 631.791 109.388 620.887C159.398 610.711 211.152 626.121 259.998 639.496C307.1 652.434 357.837 660.721 398.251 639.932C449.715 613.183 469.195 547.618 522.694 514.763C567.034 487.577 618.933 486.56 664.727 499.062C691.912 506.476 717.498 522.322 743.957 536.133C841.941 587.16 853.425 697.356 936.726 714.946C1024.97 733.409 1076.43 694.012 1096.79 662.901C1122.08 624.377 1155.66 527.701 1076 455.158C1041.98 424.193 1008.25 389.739 980.92 350.196C942.25 294.081 940.36 211.653 985.718 163.242C1017.85 128.933 1068.87 112.07 1094.02 70.0558C1111.9 40.1082 1113.36 3.76407 1104.2 -27.4919C1094.75 -59.7655 1075.12 -88.1139 1050.56 -112.246" stroke="white" stroke-miterlimit="10"/>
<path d="M10.3867 736.171C11.8405 681.073 59.524 630.773 114.622 618.707C164.922 607.804 217.403 622.923 266.249 637.315C312.77 651.126 362.198 661.157 402.322 642.985C453.494 619.579 475.592 557.939 529.09 525.52C574.157 498.19 625.475 494.119 672.141 504.15C700.344 510.256 727.675 525.084 755.151 539.04C850.663 587.306 863.747 693.285 945.013 710.439C1030.64 728.466 1081.67 691.54 1102.75 661.011C1128.62 623.65 1160.46 530.609 1086.17 459.229C1053.75 428.118 1021.34 392.937 994.586 353.831C957.224 299.024 954.607 219.939 996.912 171.965C1027.3 137.51 1076.29 119.338 1101.29 77.9061C1119.46 47.9585 1122.37 12.0505 1114.96 -19.3508C1107.25 -52.3513 1089.52 -81.8627 1066.11 -107.449" stroke="white" stroke-miterlimit="10"/>
<path d="M12.5684 738.642C15.912 682.091 63.4501 629.61 120.002 616.526C170.447 604.751 223.946 619.724 272.792 635.28C318.731 649.963 366.851 661.884 406.83 646.183C457.857 626.121 482.425 568.261 535.779 536.424C581.718 508.948 632.309 501.679 679.847 509.529C709.213 514.326 737.997 528.137 766.637 542.239C859.678 587.887 874.361 689.36 953.736 706.369C1036.6 723.959 1087.34 689.505 1109.29 659.558C1135.75 623.359 1165.99 533.952 1096.79 463.735C1065.97 432.334 1035 396.717 1008.69 357.756C972.635 304.403 969.291 228.371 1008.54 181.123C1037.18 146.669 1083.99 127.043 1109 86.1926C1127.46 56.0996 1131.68 20.6277 1126.01 -10.919C1120.05 -44.5009 1104.2 -75.3208 1081.96 -102.361" stroke="white" stroke-miterlimit="10"/>
<path d="M14.8926 741.114C20.1261 683.109 67.3735 628.592 125.379 614.346C176.115 601.843 230.341 616.526 279.187 633.099C324.545 648.654 371.211 662.32 411.189 649.091C462.071 632.372 489.111 578.438 542.464 546.891C589.275 519.269 639.285 508.802 687.55 514.327C717.934 517.816 748.317 530.609 778.265 544.856C868.689 588.032 885.262 684.853 962.602 701.572C1042.56 719.017 1093.01 687.034 1115.68 657.522C1142.72 622.341 1171.36 536.569 1107.25 467.515C1077.89 435.969 1048.52 399.77 1022.64 361.1C987.898 309.2 983.827 236.367 1020.03 189.555C1046.92 154.956 1091.7 134.021 1116.56 93.7522C1135.16 63.5138 1140.83 28.4781 1137.05 -3.214C1132.98 -37.3775 1119.03 -69.6511 1097.8 -97.9995" stroke="white" stroke-miterlimit="10"/>
<path d="M17.0742 743.585C24.1977 684.272 71.1543 627.575 130.613 612.165C181.64 598.936 236.738 613.183 285.439 631.064C330.215 647.346 375.573 662.901 415.406 652.289C465.997 638.914 495.654 588.759 548.862 557.794C596.545 530.027 645.828 516.362 694.965 519.56C726.512 521.595 758.495 533.516 789.46 547.908C877.267 588.614 895.585 680.783 971.035 697.356C1048.38 714.074 1098.53 684.708 1121.94 655.778C1149.56 621.614 1176.6 539.331 1117.72 471.731C1089.95 439.894 1062.04 403.259 1036.45 364.879C1002.87 314.288 998.075 244.653 1031.37 198.569C1056.37 163.824 1099.11 141.581 1123.97 101.893C1142.87 71.5095 1149.99 36.9099 1147.81 5.21784C1145.49 -29.6725 1133.42 -63.1091 1113.21 -92.9113" stroke="white" stroke-miterlimit="10"/>
<path d="M19.2539 746.057C28.2673 685.289 74.9331 626.557 135.991 609.984C187.309 596.028 243.134 609.984 291.98 629.029C336.175 646.183 380.224 663.337 419.912 655.487C470.357 645.456 502.486 599.226 555.693 568.697C604.249 540.93 652.95 523.921 702.814 524.939C735.379 525.666 768.961 536.569 801.089 551.107C886.134 589.486 906.342 677.003 979.902 693.14C1054.63 709.422 1104.34 682.527 1128.48 654.179C1156.53 621.178 1182.27 542.239 1128.33 476.092C1102.02 443.819 1075.71 406.893 1050.56 368.805C1018.28 319.667 1012.76 252.939 1043 207.582C1066.26 172.546 1106.96 149.141 1131.68 109.889C1150.86 79.3599 1159.3 45.3418 1159.01 13.3589C1158.57 -22.1129 1148.25 -56.8579 1129.2 -88.1139" stroke="white" stroke-miterlimit="10"/>
<path d="M21.4355 748.528C32.3388 686.307 78.7139 625.54 141.226 607.804C192.834 593.121 249.386 606.786 298.232 626.848C341.845 644.875 384.586 663.774 424.129 658.54C474.283 651.853 509.028 609.403 562.236 579.455C611.664 551.543 659.639 531.19 710.375 530.027C744.102 529.3 779.138 539.477 812.429 554.014C894.858 590.068 916.81 672.787 988.48 688.778C1060.44 704.624 1109.87 680.201 1134.73 652.289C1163.37 620.306 1187.65 544.565 1138.65 480.163C1113.94 447.599 1088.94 410.237 1064.37 372.294C1033.4 324.61 1027.01 260.935 1054.34 216.159C1075.85 180.978 1114.52 156.264 1139.09 117.594C1158.57 87.0648 1168.46 53.3375 1169.76 21.2093C1171.22 -14.9895 1162.79 -50.8975 1144.76 -83.6072" stroke="white" stroke-miterlimit="10"/>
<path d="M23.6152 751C36.4084 687.325 82.6381 624.667 146.458 605.623C198.358 590.213 255.782 603.442 304.628 624.813C347.66 643.566 388.946 664.355 428.344 661.738C478.353 658.249 515.569 619.87 568.632 590.213C618.932 562.155 666.18 538.459 717.788 535.115C752.533 532.935 789.168 542.239 823.622 556.922C903.289 590.795 927.276 668.571 996.911 684.272C1066.11 699.682 1115.1 677.73 1140.98 650.399C1170.2 619.434 1193.02 546.891 1149.12 484.088C1126.01 451.088 1102.45 413.435 1078.32 375.783C1048.67 329.553 1041.4 268.786 1065.82 224.882C1085.59 189.41 1122.08 163.533 1146.65 125.444C1166.42 94.7698 1177.76 61.4786 1180.81 29.3503C1184.16 -7.42992 1177.47 -44.6463 1160.61 -78.8098" stroke="white" stroke-miterlimit="10"/>
<path d="M25.9414 753.471C40.6244 688.488 86.5634 623.65 151.837 603.442C204.028 587.305 262.178 600.244 311.025 622.632C353.62 642.258 393.453 664.791 432.705 664.646C482.424 664.5 522.257 630.046 575.319 600.826C626.492 572.768 673.158 545.582 725.493 540.203C761.401 536.424 799.345 545.146 835.107 559.975C912.011 591.667 937.888 664.5 1005.63 680.056C1072.22 695.03 1120.77 675.549 1147.38 648.8C1177.03 618.998 1198.84 549.362 1159.59 488.449C1138.07 455.013 1115.97 417.07 1092.13 379.708C1063.64 334.932 1055.64 276.927 1077.16 233.895C1095.04 198.133 1129.64 171.092 1154.06 133.585C1174.13 102.766 1186.92 69.9104 1191.57 37.6368C1196.95 0.129651 1192.01 -38.2498 1176.16 -73.867" stroke="white" stroke-miterlimit="10"/>
<path d="M28.1211 755.942C44.694 689.505 90.3423 622.632 157.215 601.262C209.551 584.398 268.719 596.9 317.42 620.597C359.434 640.949 397.959 665.373 437.065 667.844C486.639 671.042 528.943 640.368 581.86 611.729C633.905 583.526 679.844 552.997 733.052 545.437C769.978 540.204 809.52 548.199 846.446 563.028C920.588 592.685 948.355 660.575 1014.21 675.694C1078.03 690.378 1126.15 673.223 1153.63 647.055C1183.86 618.271 1204.51 551.688 1169.91 492.665C1149.99 458.647 1129.2 420.559 1105.94 383.342C1078.76 340.02 1069.74 284.922 1088.5 242.763C1104.49 206.71 1137.2 178.361 1161.48 141.581C1181.83 110.616 1196.22 78.1969 1202.33 45.7779C1209.6 7.68924 1206.4 -31.9986 1191.71 -69.0696" stroke="white" stroke-miterlimit="10"/>
<path d="M30.3027 758.414C48.7656 690.523 94.2684 621.76 162.45 599.081C215.076 581.636 274.971 593.557 323.818 618.416C365.25 639.496 402.321 665.809 441.428 670.897C490.71 677.439 535.632 650.69 588.549 622.487C641.466 594.284 686.678 560.12 740.758 550.525C778.701 543.838 819.843 551.107 857.931 565.935C929.166 593.557 958.968 656.505 1022.93 671.333C1083.99 685.58 1131.82 670.897 1160.02 645.311C1190.7 617.544 1210.47 553.724 1180.52 496.881C1162.35 462.282 1142.87 424.048 1120.05 387.122C1094.17 345.108 1084.14 292.918 1100.13 251.631C1114.23 215.142 1144.9 185.775 1169.18 149.431C1189.83 118.321 1205.67 86.3379 1213.52 53.919C1222.83 15.2488 1221.23 -25.7474 1207.56 -64.2722" stroke="white" stroke-miterlimit="10"/>
<path d="M32.4824 760.885C52.9805 691.54 98.0472 620.742 167.828 596.9C220.745 578.728 281.512 590.213 330.214 616.381C371.064 638.333 406.827 666.245 445.788 674.095C494.925 683.836 542.318 661.157 595.09 633.39C648.879 605.042 693.364 567.389 748.317 555.759C787.423 547.472 830.018 554.16 869.415 568.988C937.888 594.574 969.725 652.434 1031.66 666.972C1089.95 680.783 1137.34 668.571 1166.42 643.566C1197.53 616.817 1216.57 555.759 1190.99 500.952C1174.56 465.771 1156.24 427.391 1134 390.756C1109.29 350.196 1098.24 300.768 1111.61 260.354C1123.68 223.573 1152.61 193.044 1176.6 157.282C1197.53 126.026 1214.98 94.479 1224.28 61.9147C1235.62 22.5176 1235.76 -19.6416 1223.12 -59.6201" stroke="white" stroke-miterlimit="10"/>
<path d="M34.6641 763.357C56.9067 692.704 101.973 619.87 173.063 594.72C226.27 575.966 287.765 587.015 336.611 614.2C377.026 636.879 411.335 666.681 450.15 677.148C498.997 690.232 549.006 671.479 601.778 644.002C656.44 615.654 700.198 574.512 756.022 560.847C796.146 550.961 840.195 557.213 880.901 571.896C946.466 595.592 980.338 648.218 1040.38 662.611C1095.91 675.985 1143.01 666.245 1172.96 641.822C1204.65 616.09 1222.97 557.794 1201.6 505.168C1187.06 469.26 1169.91 430.88 1147.96 394.536C1124.55 355.43 1112.34 308.764 1123.1 269.367C1133.13 232.151 1160.31 200.604 1184.16 165.423C1205.38 134.167 1224.28 102.911 1235.33 70.2012C1248.7 30.2226 1250.45 -13.245 1238.96 -54.6773" stroke="white" stroke-miterlimit="10"/>
<path d="M36.9883 765.828C61.1208 693.721 105.897 618.998 178.44 592.539C231.938 573.059 294.305 583.671 343.006 612.165C382.839 635.57 415.694 667.263 454.364 680.201C503.066 696.483 555.546 681.8 608.173 654.76C663.707 626.266 706.738 581.636 763.435 565.935C804.576 554.596 850.225 560.265 892.093 574.803C954.75 596.61 990.658 644.002 1048.81 658.249C1101.73 671.042 1148.25 663.774 1179.07 640.077C1211.19 615.363 1229.08 559.684 1211.92 509.384C1199.42 472.749 1183.14 434.369 1161.77 398.171C1139.52 360.518 1126.29 316.614 1134.44 278.09C1142.43 240.437 1167.87 207.873 1191.57 173.273C1213.08 141.872 1233.58 111.197 1246.09 78.3422C1261.49 37.7822 1264.84 -6.9938 1254.52 -49.8799" stroke="white" stroke-miterlimit="10"/>
<path d="M39.1699 768.299C65.1923 694.739 109.823 618.125 183.674 590.358C237.464 570.151 300.702 580.327 349.258 610.13C388.655 634.262 420.056 667.699 458.581 683.399C507.137 702.88 562.235 692.267 614.716 665.663C671.122 637.17 713.426 588.905 770.995 571.169C813.155 558.23 860.257 563.464 903.434 577.856C963.329 597.773 1001.27 639.932 1057.39 653.888C1107.54 666.245 1153.63 661.448 1185.32 638.333C1217.88 614.491 1235.47 561.574 1222.24 513.6C1211.92 476.238 1196.51 437.858 1175.58 401.95C1154.5 365.752 1140.11 324.61 1145.78 287.103C1151.45 249.16 1175.43 215.432 1198.98 181.414C1220.79 149.868 1242.89 119.629 1256.84 86.6287C1274.29 45.4871 1279.38 -0.597225 1270.07 -44.9371" stroke="white" stroke-miterlimit="10"/>
<path d="M41.3496 770.771C69.2619 695.756 113.602 617.108 189.052 588.178C243.132 567.389 307.243 576.838 355.799 607.949C394.615 632.808 424.708 668.135 463.087 686.452C511.352 709.276 569.066 702.589 621.547 676.421C678.826 647.928 720.403 596.028 778.845 576.402C822.022 561.865 870.577 566.807 915.063 580.909C972.05 599.081 1012.03 635.861 1066.25 649.672C1113.79 661.593 1159.3 659.122 1191.86 636.734C1224.86 613.909 1242.45 563.609 1232.86 517.816C1224.86 479.727 1210.03 441.347 1189.68 405.73C1169.91 370.985 1154.06 332.606 1157.41 295.971C1160.89 257.592 1183.14 222.847 1206.69 189.41C1228.79 157.718 1252.48 128.061 1268.04 94.7698C1287.52 53.0467 1294.2 5.65396 1286.06 -40.1396" stroke="white" stroke-miterlimit="10"/>
<path d="M43.5312 773.242C73.3334 696.919 117.528 616.235 194.287 586.142C248.803 564.627 313.641 573.64 362.051 606.059C400.431 631.645 429.07 668.862 467.304 689.796C515.424 715.964 575.609 713.202 627.945 687.325C686.241 658.831 726.946 603.297 786.26 581.636C830.455 565.499 880.464 570.296 926.258 584.107C980.338 600.389 1022.35 631.936 1074.69 645.456C1119.46 656.941 1164.53 656.941 1197.97 635.134C1231.55 613.182 1249.14 565.79 1243.18 522.177C1237.8 483.507 1223.26 445.127 1203.49 409.51C1184.88 376.219 1167.73 340.602 1168.75 304.839C1169.76 266.169 1190.84 230.406 1214.1 197.26C1236.64 165.568 1261.64 136.347 1278.8 102.911C1300.46 60.7517 1308.74 11.9052 1301.47 -35.3422" stroke="white" stroke-miterlimit="10"/>
<path d="M45.7109 775.714C77.5484 697.937 121.452 615.509 199.665 583.816C254.472 561.865 320.182 570.151 368.592 603.733C406.39 630.046 433.576 669.153 471.81 692.558C519.638 722.07 582.441 723.233 634.777 697.792C693.945 669.298 733.778 610.13 794.109 586.433C839.321 568.697 890.785 573.204 937.887 586.724C989.205 601.262 1033.25 627.429 1083.55 640.804C1125.57 651.853 1170.34 654.179 1204.65 632.954C1238.67 612.02 1256.55 567.534 1253.94 525.957C1251.46 486.56 1237.07 448.18 1217.59 412.854C1200.15 381.162 1181.68 348.307 1180.37 313.416C1178.92 274.455 1198.55 237.53 1221.81 204.965C1244.63 173.128 1271.24 144.343 1289.99 110.761C1313.69 68.0205 1323.57 17.8656 1317.46 -30.8355" stroke="white" stroke-miterlimit="10"/>
<path d="M48.041 778.185C81.7684 698.955 125.381 614.491 204.902 581.781C260 559.102 326.582 566.953 374.847 601.843C412.209 628.883 437.941 669.734 476.03 695.902C523.713 728.612 588.987 733.7 641.177 708.84C701.218 680.201 740.324 617.544 801.528 591.958C847.757 572.622 900.674 577.129 949.085 590.068C997.495 603.006 1043.58 623.795 1091.99 636.734C1131.24 647.346 1175.58 651.998 1210.76 631.5C1245.22 611.438 1263.53 570.296 1264.12 530.463C1264.7 490.63 1250.16 451.96 1231.26 416.924C1214.98 386.686 1195.06 356.738 1191.57 322.575C1187.5 283.323 1205.97 245.235 1229.08 213.252C1252.19 181.269 1280.4 153.066 1300.61 119.193C1326.34 76.0162 1337.82 24.4075 1332.88 -25.7474" stroke="white" stroke-miterlimit="10"/>
<path d="M624.312 1073.15C582.008 1046.99 579.973 982.73 604.832 939.553C629.691 896.376 673.013 867.882 711.393 836.19C749.918 804.498 786.843 763.938 790.042 714.219C794.112 650.69 741.486 592.975 748.319 529.591C753.552 480.308 793.821 442.947 836.271 422.012C860.258 410.237 887.88 406.021 912.739 396.426C1025.12 352.232 1125.13 423.611 1195.21 365.606C1271.09 302.804 1267.17 232.587 1253.21 197.987C1235.33 153.647 1175.14 55.3727 1056.66 82.4127C1008.54 93.4613 959.26 102.765 909.977 99.7125C836.271 95.2059 764.601 37.2006 759.803 -36.6507C756.605 -87.2417 782.773 -139.723 764.601 -186.97C752.389 -218.662 721.278 -240.614 688.133 -248.464C654.987 -256.315 620.096 -251.517 587.387 -242.358" stroke="white" stroke-miterlimit="10"/>
<path d="M627.656 1073.01C585.352 1044.37 581.572 979.095 606.431 934.174C630.709 890.27 674.468 861.05 713.719 830.084C752.535 799.41 790.042 760.885 795.13 712.911C801.672 651.562 753.698 594.429 760.821 531.336C766.491 481.181 803.998 442.656 844.994 419.541C868.545 406.166 896.458 400.061 922.044 389.593C1030.64 345.254 1128.33 412.854 1197.1 356.302C1270.95 295.389 1268.77 226.917 1255.68 192.027C1238.96 147.832 1180.81 53.4828 1066.4 77.0338C1019.16 86.7741 970.309 94.6244 921.462 91.2807C849.646 86.6287 780.156 31.2402 773.76 -39.8489C769.399 -88.9862 793.24 -140.886 775.359 -187.697C763.147 -219.68 733.345 -242.358 701.217 -251.808C668.798 -261.257 634.053 -258.931 600.762 -251.517" stroke="white" stroke-miterlimit="10"/>
<path d="M631.001 1072.86C588.841 1041.9 583.172 975.461 608.176 928.65C632.018 884.019 676.067 854.072 716.191 823.688C755.443 794.031 793.241 757.687 800.364 711.457C809.378 652.434 765.91 595.592 773.47 532.935C779.575 482.053 814.175 442.22 853.863 416.779C877.123 401.805 905.181 393.664 931.639 382.47C1036.46 337.985 1131.97 401.95 1199.13 346.707C1270.95 287.684 1270.66 220.957 1258.3 185.921C1242.89 142.017 1186.63 51.4476 1076.14 71.3642C1029.91 79.796 981.358 86.1926 932.948 82.7036C863.022 77.9061 795.567 25.1344 787.716 -43.3379C782.192 -91.1668 803.563 -142.339 786.117 -188.569C774.051 -220.843 745.412 -244.248 714.301 -255.152C682.464 -266.346 647.864 -266.346 614.282 -260.676" stroke="white" stroke-miterlimit="10"/>
<path d="M634.344 1072.72C592.185 1039.43 584.771 971.826 609.775 923.125C633.181 877.768 677.666 847.093 718.517 817.437C758.059 788.797 796.439 754.488 805.452 710.003C816.792 653.161 777.976 596.9 785.826 534.534C792.368 482.925 824.06 441.784 862.585 414.017C885.409 397.444 913.758 387.413 941.089 375.346C1042.27 331.007 1135.31 391.047 1201.17 337.112C1270.95 279.834 1272.4 214.996 1260.92 179.67C1246.82 135.911 1192.44 49.1215 1086.03 65.6944C1040.67 72.8179 992.552 77.4699 944.723 73.9809C876.687 69.0381 811.413 18.8832 801.963 -46.827C795.276 -93.3475 814.175 -143.648 797.166 -189.587C785.099 -222.151 757.769 -246.138 727.53 -258.641C696.42 -271.579 661.966 -273.905 627.947 -269.98" stroke="white" stroke-miterlimit="10"/>
<path d="M637.54 1072.57C595.526 1036.96 586.222 968.192 611.372 917.746C634.342 871.662 679.118 840.261 720.986 811.185C760.82 783.564 799.635 751.436 810.684 708.695C824.495 654.033 790.331 598.209 798.472 536.278C805.45 483.943 834.38 441.347 871.451 411.4C893.985 393.228 922.478 381.162 950.681 368.514C1048.23 324.319 1138.94 380.435 1203.35 327.954C1270.95 272.565 1274.29 209.617 1263.68 174C1250.74 130.387 1198.26 47.377 1095.91 60.4609C1051.28 66.276 1003.74 69.4742 956.351 65.8398C890.205 60.7517 826.966 13.0682 816.063 -49.8799C808.212 -95.092 824.785 -144.665 808.212 -190.168C796.146 -223.023 769.978 -247.737 740.903 -261.839C710.374 -276.522 676.21 -281.174 641.611 -278.993" stroke="white" stroke-miterlimit="10"/>
<path d="M640.884 1072.28C598.871 1034.19 587.822 964.412 612.972 912.077C635.505 865.411 680.572 833.137 723.313 804.789C763.437 778.185 802.979 748.092 815.772 707.096C832.2 654.76 802.398 599.372 810.975 537.732C818.389 484.67 844.412 440.621 880.174 408.638C902.271 388.867 931.056 374.91 960.131 361.39C1054.04 317.487 1142.29 369.531 1205.24 318.359C1270.8 264.86 1275.89 203.657 1266.15 167.749C1254.37 124.427 1203.78 44.9056 1105.65 54.7912C1061.89 59.1525 1014.79 61.0424 967.836 57.1172C903.58 51.8837 842.376 6.81696 830.019 -53.3689C821.006 -97.2726 835.108 -146.119 818.971 -191.186C807.05 -224.332 782.045 -249.918 753.987 -265.328C724.185 -281.755 690.167 -288.734 655.131 -288.297" stroke="white" stroke-miterlimit="10"/>
<path d="M644.228 1072.14C602.36 1031.72 589.421 960.778 614.572 906.552C636.669 859.16 682.026 826.014 725.639 798.392C766.054 772.806 806.033 744.894 820.861 705.497C839.76 655.342 814.61 600.535 823.478 539.186C831.328 485.397 854.443 439.894 888.897 405.73C910.704 384.215 939.634 368.514 969.436 354.122C1059.71 310.654 1145.49 358.483 1207.13 308.619C1270.66 256.865 1277.49 197.551 1268.62 161.498C1258.15 118.466 1209.16 42.2889 1115.25 48.9762C1072.22 52.0291 1025.7 52.3198 979.321 48.2493C917.1 42.8704 857.641 0.420416 843.976 -57.1487C833.799 -99.744 845.575 -147.718 829.729 -192.494C817.808 -225.931 794.112 -252.244 767.072 -269.253C737.851 -287.425 703.978 -296.729 668.652 -298.038" stroke="white" stroke-miterlimit="10"/>
<path d="M647.573 1071.99C605.85 1029.25 591.022 957.143 616.317 901.173C637.978 853.054 683.626 819.181 728.112 792.286C768.962 767.572 809.377 741.986 826.095 704.334C847.466 656.505 826.822 601.988 836.126 541.076C844.413 486.559 864.62 439.603 897.912 403.259C919.282 379.999 948.502 362.553 979.177 347.434C1065.97 304.548 1149.27 348.016 1209.45 299.46C1270.95 249.596 1279.38 192.172 1271.53 155.828C1262.23 112.942 1213.67 28.3327 1125.43 43.888C1083.7 51.1568 1037.18 44.4695 991.243 40.2536C930.912 34.7293 873.488 -5.24929 858.369 -60.0562C846.884 -101.343 856.334 -148.591 840.924 -192.785C829.148 -226.512 806.615 -253.698 780.447 -272.015C751.953 -292.077 718.226 -303.562 682.318 -306.615" stroke="white" stroke-miterlimit="10"/>
<path d="M650.772 1071.85C609.049 1026.78 592.621 953.654 617.771 895.649C638.996 846.948 684.935 812.203 730.293 786.035C771.434 762.339 812.285 738.788 831.039 702.88C854.735 657.232 838.889 603.297 848.484 542.675C857.206 487.432 874.361 438.876 906.489 400.642C927.423 375.637 956.935 356.448 988.481 340.456C1071.78 298.152 1152.47 337.258 1211.34 290.01C1270.8 242.036 1280.98 186.357 1274 149.722C1265.86 107.127 1219.34 24.6983 1135.02 38.2183C1094.02 44.7602 1048.09 35.8923 1002.58 31.531C944.142 25.8613 888.608 -11.5005 872.18 -63.5453C859.532 -103.669 866.656 -150.044 851.682 -193.803C839.907 -227.821 818.682 -255.878 793.531 -275.504C765.619 -297.456 732.182 -311.122 695.838 -315.919" stroke="white" stroke-miterlimit="10"/>
<path d="M654.113 1071.7C612.535 1024.16 594.218 950.02 619.514 890.27C640.302 840.842 686.532 805.225 732.762 779.784C774.049 756.96 815.626 735.735 836.27 701.571C862.438 658.249 851.244 604.605 861.129 544.419C870.288 488.449 884.535 438.295 915.355 398.025C935.853 371.276 965.8 350.342 998.074 333.478C1077.89 291.9 1156.1 326.5 1213.38 280.706C1270.8 234.477 1282.72 180.833 1276.62 143.907C1269.64 101.602 1225.01 21.5 1144.9 32.9848C1104.49 38.7998 1059.28 27.8966 1014.36 23.3899C957.805 17.7202 904.161 -17.3155 886.425 -66.5982C872.469 -105.414 877.412 -151.062 862.728 -194.384C851.098 -228.693 831.036 -257.623 806.904 -278.703C779.718 -302.544 746.282 -318.39 709.647 -324.932" stroke="white" stroke-miterlimit="10"/>
<path d="M657.458 1071.41C615.88 1021.55 595.964 946.24 621.114 884.601C641.612 834.591 687.842 798.102 735.089 773.388C776.667 751.581 818.826 732.391 841.359 699.972C869.998 658.831 863.311 605.768 873.633 545.873C883.228 489.176 894.422 437.422 924.078 395.118C944.14 366.624 974.379 344.091 1007.38 326.355C1083.7 285.504 1159.3 315.597 1215.27 271.112C1270.66 226.772 1284.32 174.872 1279.09 137.656C1273.27 95.4967 1230.68 18.011 1154.65 27.1697C1114.67 31.9671 1070.33 19.3193 1025.84 14.5219C971.18 8.70686 919.281 -23.8575 900.382 -70.2326C885.118 -107.885 887.734 -152.516 873.487 -195.547C862.003 -230.147 843.104 -259.949 819.843 -282.337C793.24 -308.069 760.094 -326.095 722.877 -334.382" stroke="white" stroke-miterlimit="10"/>
<path d="M660.803 1071.26C619.37 1019.07 597.564 942.606 622.859 879.076C642.921 828.34 689.442 790.978 737.562 766.991C779.43 746.057 822.025 729.193 846.594 698.518C877.705 659.703 875.669 607.077 886.136 547.472C896.313 490.049 904.308 436.55 932.948 392.355C952.573 362.117 983.102 337.839 1016.98 319.231C1089.81 279.253 1162.93 304.693 1217.45 261.517C1270.8 219.067 1286.07 169.057 1281.85 131.55C1277.2 89.6815 1236.64 29.2049 1164.53 21.6453C1124.99 17.4294 1081.52 10.8875 1037.47 6.09005C984.702 0.129612 934.547 -29.818 914.485 -73.5763C897.766 -109.92 898.348 -153.824 884.392 -196.274C872.907 -231.31 855.316 -261.839 833.074 -285.681C807.197 -313.302 774.196 -333.51 736.544 -343.541" stroke="white" stroke-miterlimit="10"/>
<path d="M664.002 1071.12C622.569 1016.6 599.164 939.117 624.314 873.697C644.085 822.379 690.751 784.145 739.743 760.885C781.902 740.968 825.079 726.14 851.537 697.21C885.119 660.575 887.736 608.385 898.494 549.217C909.106 491.066 914.049 435.968 941.526 389.884C960.57 357.756 991.68 332.024 1026.28 312.398C1095.77 273.292 1166.28 294.081 1219.19 252.213C1270.51 211.652 1287.38 163.387 1284.18 125.59C1280.69 84.0119 1241.58 26.152 1174.13 16.1211C1135.17 10.306 1092.43 2.60103 1048.96 -2.48714C998.077 -8.44758 949.521 -35.9237 928.442 -76.9199C910.27 -111.956 908.816 -155.133 895.296 -197.146C883.956 -232.473 867.529 -263.874 846.304 -289.024C821.154 -318.536 788.299 -340.924 750.065 -352.699" stroke="white" stroke-miterlimit="10"/>
<path d="M667.344 1070.97C626.057 1013.99 600.907 935.482 626.057 868.173C645.392 816.128 692.349 777.022 742.213 754.634C784.663 735.59 828.276 723.087 856.77 695.902C892.678 661.447 900.092 609.839 911.141 550.961C922.189 492.084 924.079 435.387 950.392 387.267C969.001 353.395 1000.4 326.064 1035.87 305.566C1102.02 267.332 1169.77 283.468 1221.37 242.908C1270.66 204.238 1289.27 157.863 1286.94 119.774C1284.47 78.4875 1247.11 23.0991 1184.01 10.7421C1145.63 3.32788 1103.62 -5.54008 1060.59 -10.919C1011.6 -17.0248 964.639 -42.0296 942.542 -80.2636C922.916 -114.136 919.282 -156.441 906.198 -198.019C894.859 -233.636 879.885 -266.055 859.387 -292.368C834.963 -323.915 802.108 -348.338 763.584 -361.858" stroke="white" stroke-miterlimit="10"/>
<path d="M670.687 1070.68C629.4 1011.37 602.65 931.848 627.655 862.503C646.699 809.877 693.656 769.753 744.538 748.092C787.279 729.92 831.473 719.744 861.857 694.157C900.236 662.029 912.302 610.857 923.642 552.27C935.272 492.665 933.818 434.369 959.259 384.215C977.286 348.597 1009.27 319.667 1045.32 298.152C1108.12 260.935 1173.11 272.275 1223.41 233.168C1270.66 196.388 1290.86 151.757 1289.7 113.378C1288.39 72.2364 1252.63 19.3193 1194.04 4.92706C1156.39 -4.37704 1114.96 -14.1173 1072.36 -19.6416C1025.26 -25.7474 979.902 -48.2807 956.788 -83.898C935.708 -116.462 930.038 -158.04 917.245 -199.182C906.051 -235.09 892.24 -268.381 872.76 -296.148C849.209 -329.584 816.354 -356.188 777.393 -371.453" stroke="white" stroke-miterlimit="10"/>
<path d="M674.031 1070.54C632.889 1008.9 604.395 928.214 629.255 857.124C648.008 803.771 695.11 762.775 746.864 741.986C789.75 724.686 834.527 716.691 866.945 692.994C907.796 663.047 924.515 612.31 936.145 554.16C948.211 493.828 943.704 433.788 967.982 381.743C985.427 344.236 1017.85 313.852 1054.77 291.319C1114.38 254.975 1176.6 261.662 1225.44 223.864C1270.66 188.828 1292.46 146.233 1292.32 107.563C1292.03 66.7121 1258.01 15.9757 1203.78 -0.45186C1166.71 -11.6459 1126.01 -22.2583 1083.99 -28.0734C1038.78 -34.3246 994.877 -54.0958 970.89 -87.0963C948.211 -118.207 940.651 -159.203 928.149 -199.908C917.1 -236.107 904.598 -270.416 885.99 -299.346C863.166 -334.818 830.456 -363.457 790.914 -380.466" stroke="white" stroke-miterlimit="10"/>
<path d="M677.229 1070.39C636.233 1006.28 605.995 924.725 630.854 851.6C649.172 797.665 696.564 755.652 749.191 735.59C792.368 719.162 837.725 713.347 872.034 691.395C915.211 663.628 936.727 613.473 948.647 555.468C961.295 494.41 953.445 432.77 976.705 378.836C993.569 339.584 1026.57 307.746 1064.22 284.195C1120.48 249.014 1179.94 250.759 1227.33 214.269C1270.51 181.123 1293.92 140.273 1294.79 101.312C1295.66 60.7517 1263.39 11.9052 1213.52 -6.12151C1177.18 -19.3508 1137.06 -30.6902 1095.48 -36.6506C1052.3 -42.9018 1009.56 -60.2016 984.701 -90.5853C960.423 -120.387 950.973 -160.511 938.762 -200.781C927.713 -237.27 916.665 -272.451 898.929 -302.835C876.977 -340.197 844.267 -371.017 804.288 -389.77" stroke="white" stroke-miterlimit="10"/>
<path d="M680.572 1070.25C639.576 1003.81 607.738 921.09 632.452 846.221C650.479 791.559 697.872 748.673 751.515 729.484C794.983 713.928 840.777 710.294 877.121 690.087C922.769 664.5 948.937 614.927 961.148 557.213C974.232 495.428 963.184 432.189 985.426 376.219C1001.71 335.223 1035.44 301.931 1073.67 277.217C1126.73 243.054 1183.28 239.856 1229.37 204.82C1270.36 173.418 1295.51 134.458 1297.4 95.3512C1299.29 55.0819 1269.06 8.12532 1223.26 -11.6459C1187.79 -26.9104 1148.1 -38.9767 1106.96 -45.2279C1065.82 -51.4791 1024.53 -66.0167 998.801 -93.929C972.778 -122.277 961.585 -161.82 949.809 -201.653C938.906 -238.433 929.166 -274.487 912.157 -306.179C891.077 -345.576 858.222 -378.431 817.953 -398.929" stroke="white" stroke-miterlimit="10"/>
<path d="M683.916 1070.1C643.065 1001.34 609.483 917.601 634.197 840.697C651.933 785.454 699.471 741.55 754.133 723.087C797.891 708.404 844.266 707.096 882.5 688.633C930.62 665.227 961.44 616.09 973.942 558.812C987.608 496.3 973.215 431.462 994.586 373.457C1010.29 330.716 1044.6 295.971 1083.56 270.094C1133.42 236.948 1187.06 228.952 1231.84 195.225C1270.8 165.714 1297.55 128.643 1300.46 89.1001C1303.37 48.9762 1275.16 3.90942 1233.58 -17.3156C1198.55 -34.7607 1159.3 -47.2631 1118.74 -53.6597C1079.34 -59.9109 1039.36 -71.8318 1012.9 -97.2727C985.136 -124.022 972.198 -163.128 960.713 -202.525C949.955 -239.596 941.523 -276.667 925.386 -309.522C905.179 -350.809 872.324 -385.845 831.473 -408.088" stroke="white" stroke-miterlimit="10"/>
<path d="M687.261 1069.81C646.411 998.721 611.229 913.821 635.798 835.172C653.243 779.348 700.781 734.281 756.461 716.836C800.364 703.025 847.321 703.897 887.59 687.179C938.036 666.1 973.653 617.398 986.301 560.411C1000.55 497.172 982.812 430.735 1003.16 370.84C1018.28 326.209 1053.32 290.156 1092.72 263.261C1139.38 231.278 1190.26 218.34 1233.59 186.066C1270.51 158.299 1298.86 123.118 1302.79 83.4303C1306.71 43.5972 1280.83 0.129584 1243.04 -22.5492C1209.45 -42.7565 1170.49 -55.4042 1130.22 -62.2369C1092.72 -68.4881 1054.19 -77.5015 1026.86 -100.616C997.35 -125.621 982.666 -164.437 971.472 -203.398C960.86 -240.759 953.737 -278.703 938.472 -313.011C919.137 -356.334 886.282 -393.405 844.995 -417.392" stroke="white" stroke-miterlimit="10"/>
<path d="M690.459 1069.66C649.753 996.104 613.118 910.332 637.396 829.648C654.551 773.097 702.234 727.158 758.786 710.585C802.98 697.501 850.518 700.844 892.677 685.871C945.594 666.972 985.864 618.852 998.802 562.155C1013.63 498.19 992.551 430.008 1011.89 368.223C1026.42 321.848 1062.19 284.631 1102.17 256.283C1145.63 225.463 1193.61 207.582 1235.48 176.617C1270.37 150.74 1300.17 117.448 1305.26 77.3246C1310.2 37.6368 1286.79 -4.0863 1252.78 -28.0734C1220.5 -50.7522 1181.54 -63.5453 1141.85 -70.6688C1106.24 -76.92 1069.02 -83.1712 1040.96 -103.96C1009.71 -127.22 993.278 -165.745 982.375 -204.124C971.908 -241.777 966.093 -280.593 951.555 -316.21C933.092 -361.422 900.237 -400.528 858.514 -426.405" stroke="white" stroke-miterlimit="10"/>
<path d="M693.803 1069.52C653.097 993.633 614.718 906.698 638.996 824.124C655.714 766.991 703.688 720.034 761.112 704.188C805.597 691.977 853.572 697.501 897.766 684.272C953.155 667.699 998.076 619.87 1011.31 563.609C1026.57 498.917 1002.29 429.136 1020.61 365.316C1034.57 317.196 1071.2 278.671 1111.62 249.014C1152.03 219.358 1197.1 196.533 1237.51 166.877C1270.37 142.889 1301.77 111.343 1307.87 71.0734C1313.83 31.6763 1293.19 -8.44755 1262.52 -33.8885C1231.84 -59.3293 1192.59 -72.1225 1153.48 -79.3913C1119.76 -85.6425 1083.99 -88.8408 1055.06 -107.594C1021.92 -128.965 1003.75 -167.344 993.424 -205.287C982.957 -243.231 978.741 -283.064 964.93 -319.99C947.339 -367.092 914.339 -408.378 872.18 -436" stroke="white" stroke-miterlimit="10"/>
</g>
</svg>
