<svg width="34" height="34" viewBox="0 0 34 34" fill="none" xmlns="http://www.w3.org/2000/svg">
<path fill-rule="evenodd" clip-rule="evenodd" d="M5.99436 3.16233C6.65855 2.49814 7.55939 2.125 8.4987 2.125H18.4154C18.6032 2.125 18.7834 2.19963 18.9162 2.33247L28.8329 12.2491C28.9657 12.382 29.0404 12.5621 29.0404 12.75V28.3333C29.0404 29.2726 28.6672 30.1735 28.003 30.8377C27.3388 31.5019 26.438 31.875 25.4987 31.875H8.4987C7.55939 31.875 6.65855 31.5019 5.99436 30.8377C5.33017 30.1735 4.95703 29.2726 4.95703 28.3333V5.66667C4.95703 4.72736 5.33017 3.82652 5.99436 3.16233ZM8.4987 3.54167C7.93511 3.54167 7.39461 3.76555 6.9961 4.16406C6.59758 4.56258 6.3737 5.10308 6.3737 5.66667V28.3333C6.3737 28.8969 6.59758 29.4374 6.9961 29.8359C7.39461 30.2344 7.93511 30.4583 8.4987 30.4583H25.4987C26.0623 30.4583 26.6028 30.2344 27.0013 29.8359C27.3998 29.4374 27.6237 28.8969 27.6237 28.3333V13.0434L18.122 3.54167H8.4987Z" fill="#0B2537"/>
<path fill-rule="evenodd" clip-rule="evenodd" d="M18.4154 2.125C18.8066 2.125 19.1237 2.44213 19.1237 2.83333V12.0417H28.332C28.7232 12.0417 29.0404 12.3588 29.0404 12.75C29.0404 13.1412 28.7232 13.4583 28.332 13.4583H18.4154C18.0242 13.4583 17.707 13.1412 17.707 12.75V2.83333C17.707 2.44213 18.0242 2.125 18.4154 2.125Z" fill="#0B2537"/>
</svg>
