<svg width="580" height="300" viewBox="0 0 580 300" fill="none" xmlns="http://www.w3.org/2000/svg">
<g opacity="0.4">
<path d="M-485.113 477.488C-458.252 440.229 -428.965 404.53 -397.772 370.738C-383.909 355.661 -369.178 340.758 -350.809 331.746C-303.846 308.871 -247.525 331.053 -203.334 358.78C-162.61 384.428 -124.832 414.755 -91.2121 449.241C-57.9394 483.38 -27.9592 522.025 12.4187 547.499C52.7965 572.974 108.078 582.332 147.243 554.951C170.464 538.661 184.328 511.454 189.7 483.553C195.072 455.653 192.473 426.886 187.794 398.812C182.595 366.752 174.97 333.306 185.194 302.286C195.766 270.4 226.092 245.792 259.538 242.326C307.195 237.3 348.959 270.573 389.164 296.567C440.112 329.667 499.379 354.448 560.033 350.982C620.686 347.516 682.033 310.431 700.229 252.377" stroke="white" stroke-miterlimit="10"/>
<path d="M-478.703 489.965C-452.189 453.227 -423.422 418.394 -392.575 385.295C-378.885 370.564 -364.328 356.008 -346.305 347.343C-310.086 329.667 -268.149 338.678 -230.717 356.008C-220.493 360.687 -210.615 366.059 -201.257 371.778C-160.879 396.039 -123.62 424.979 -90.0009 458.079C-56.9014 490.832 -27.0946 528.09 12.9367 552.698C35.2919 566.389 61.8061 575.92 87.9738 577.48C110.676 578.866 133.377 574.36 152.266 561.536C155.559 559.283 158.852 556.684 161.798 553.911C180.34 537.102 191.605 512.84 196.457 488.059C198.017 480.087 199.056 472.116 199.576 463.971C200.963 443.002 199.403 421.687 196.977 400.891C193.164 367.965 188.139 334.172 199.576 303.326C210.84 272.652 239.954 248.911 272.707 245.272C319.15 240.246 360.221 271.439 399.386 295.701C402.505 297.607 405.625 299.513 408.744 301.42C456.4 329.32 510.295 348.556 565.057 344.224C623.458 339.545 682.031 302.633 698.841 245.792" stroke="white" stroke-miterlimit="10"/>
<path d="M-472.461 502.269C-446.467 466.224 -418.046 431.911 -387.546 399.678C-374.029 385.295 -359.645 371.258 -341.796 362.593C-306.097 345.263 -265.199 353.235 -228.287 369.525C-218.236 374.03 -208.532 379.056 -199.174 384.255C-159.316 406.957 -122.23 434.684 -88.9575 466.224C-55.8581 497.417 -26.2245 533.462 13.2869 557.204C36.5085 571.068 63.716 580.945 90.7501 583.025C114.145 584.758 137.54 580.599 157.122 567.602C160.588 565.349 163.881 562.749 167 559.977C186.236 542.82 197.847 517.866 203.046 492.391C204.779 484.246 205.818 475.928 206.512 467.61C208.245 445.948 207.378 424.113 205.818 402.797C203.392 369.005 200.793 334.866 213.617 304.192C225.747 274.905 253.648 251.857 285.534 248.218C330.938 243.019 370.969 272.306 409.441 294.834C412.387 296.567 415.506 298.3 418.626 300.033C465.069 325.681 517.231 342.837 569.913 337.292C625.887 331.4 681.688 294.661 697.285 239.206" stroke="white" stroke-miterlimit="10"/>
<path d="M-466.225 514.746C-440.75 479.221 -412.676 445.775 -382.523 414.235C-369.179 400.198 -354.969 386.508 -337.466 378.016C-302.46 360.86 -262.429 368.138 -226.037 383.215C-216.159 387.374 -206.454 392.053 -197.27 397.079C-157.932 418.394 -121.193 444.562 -87.9201 474.715C-54.9939 504.522 -25.5336 539.181 13.6312 561.883C37.7193 575.92 65.6199 586.144 93.3472 588.744C117.435 590.997 141.697 586.837 161.972 573.84C165.611 571.414 169.077 568.815 172.37 566.042C192.472 548.539 204.256 522.891 209.975 496.55C211.708 488.059 213.095 479.567 213.788 471.076C215.867 448.894 215.521 426.366 214.827 404.53C213.788 369.871 213.788 335.559 227.825 304.712C240.649 276.811 267.509 254.456 298.529 250.644C342.72 245.272 382.058 272.652 419.49 293.274C422.436 294.834 425.382 296.567 428.501 298.127C473.904 321.695 524.334 336.598 574.763 329.84C628.484 322.561 681.339 286.169 695.723 232.101" stroke="white" stroke-miterlimit="10"/>
<path d="M-459.812 527.224C-434.858 492.391 -407.131 459.465 -377.324 428.965C-363.98 415.448 -349.943 401.931 -332.96 393.613C-298.648 376.803 -259.309 383.215 -223.61 397.079C-213.906 400.891 -204.375 405.224 -195.363 409.903C-156.545 429.832 -119.98 454.613 -87.0535 483.207C-54.3006 511.627 -24.8403 544.9 13.8046 566.735C38.7592 580.945 67.353 591.516 95.9468 594.462C120.555 597.062 145.683 593.249 166.651 580.079C170.464 577.653 173.93 575.053 177.396 572.281C198.191 554.431 210.322 528.09 216.387 501.056C218.294 492.391 219.68 483.727 220.72 474.888C223.319 452.187 223.492 428.965 223.666 406.783C224.012 371.084 226.438 336.772 241.862 305.925C255.206 279.411 281.027 257.749 311.353 253.763C354.504 248.218 392.976 273.865 429.541 292.581C432.487 294.141 435.26 295.527 438.206 296.914C482.396 318.229 531.092 331.053 579.268 323.081C630.564 314.59 680.82 278.371 693.817 225.516" stroke="white" stroke-miterlimit="10"/>
<path d="M-453.576 539.701C-429.141 505.389 -401.761 473.329 -372.3 443.522C-359.13 430.351 -345.266 417.354 -328.457 409.036C-294.837 392.573 -256.366 397.945 -221.187 410.942C-211.655 414.408 -202.297 418.567 -193.286 422.726C-154.988 441.269 -118.769 464.491 -85.8427 491.698C-53.2631 518.732 -23.8028 550.619 14.3222 571.587C40.1433 585.971 69.4302 596.889 98.7172 600.355C124.018 603.301 150.013 599.835 171.675 586.491C175.487 584.065 179.3 581.465 182.766 578.519C204.428 560.323 216.732 533.289 223.144 505.389C225.223 496.55 226.609 487.539 227.822 478.528C230.769 455.133 231.635 431.565 232.675 408.69C234.408 372.124 239.087 337.638 256.07 306.618C269.933 281.49 294.888 260.348 324.348 256.536C366.286 250.99 403.891 274.559 439.59 291.542C442.363 292.928 445.309 294.141 448.081 295.527C491.232 314.59 538.195 325.161 584.119 316.15C633.161 306.445 680.471 270.4 692.255 218.931" stroke="white" stroke-miterlimit="10"/>
<path d="M-447.334 552.178C-423.419 518.559 -396.385 487.019 -367.271 458.079C-354.274 445.255 -340.584 432.604 -324.121 424.459C-291.021 408.17 -253.416 412.849 -218.93 424.633C-209.399 427.752 -200.214 431.565 -191.376 435.55C-153.425 452.707 -117.726 474.542 -84.7994 500.19C-52.3931 525.664 -22.9329 556.164 14.6723 576.44C41.3598 590.823 71.34 602.261 101.493 606.073C127.488 609.366 154.175 606.073 176.53 592.73C180.516 590.303 184.329 587.704 187.968 584.585C210.323 566.215 222.974 538.315 229.732 509.548C231.985 500.363 233.545 491.178 234.758 481.994C238.05 458.079 239.61 433.817 241.516 410.422C244.636 372.991 251.568 338.331 270.11 307.312C284.32 283.397 308.409 263.121 337.176 259.135C378.073 253.417 414.812 275.079 449.644 290.155C452.417 291.368 455.19 292.581 457.963 293.621C499.9 310.604 545.13 318.922 588.974 308.698C635.591 297.78 680.128 261.908 690.699 211.652" stroke="white" stroke-miterlimit="10"/>
<path d="M-441.096 564.656C-417.527 531.556 -391.013 500.883 -362.246 472.636C-349.422 460.158 -335.905 447.854 -319.789 439.883C-287.382 423.94 -250.644 427.579 -216.678 438.323C-207.32 441.269 -198.308 444.562 -189.47 448.201C-152.038 463.971 -116.513 484.246 -83.9333 508.681C-51.7003 532.769 -22.24 561.883 14.8453 581.292C42.3993 595.849 73.0727 607.806 103.919 611.965C130.434 615.605 158.161 612.658 181.209 599.141C185.368 596.715 189.354 593.943 193.167 590.997C216.388 572.281 229.212 543.687 236.491 514.227C238.743 504.869 240.476 495.337 241.863 485.979C245.502 461.545 247.755 436.59 250.528 412.675C255.033 374.377 264.218 339.544 284.32 308.525C298.877 285.996 322.272 266.414 350.173 262.428C389.857 256.536 425.903 276.292 459.695 289.635C462.295 290.675 465.068 291.715 467.84 292.755C508.738 307.485 552.235 313.723 593.826 302.286C638.19 290.155 679.954 254.456 689.139 205.587" stroke="white" stroke-miterlimit="10"/>
<path d="M-434.684 577.133C-411.635 544.727 -385.468 514.573 -357.047 487.192C-344.397 475.062 -331.053 463.278 -315.11 455.306C-283.396 439.709 -247.524 442.482 -214.078 452.013C-204.893 454.613 -196.055 457.559 -187.391 461.025C-150.479 475.235 -115.3 494.298 -82.72 517.173C-50.487 539.874 -21.0267 567.428 15.3654 586.144C43.9592 600.701 75.1524 613.178 106.865 617.857C134.073 621.843 162.493 619.07 186.235 605.553C190.567 603.127 194.553 600.355 198.539 597.235C222.454 578.173 235.624 548.712 243.249 518.559C245.675 509.028 247.582 499.323 249.141 489.619C253.3 464.491 256.073 439.016 259.712 414.582C265.604 375.417 277.042 340.411 298.704 309.218C313.607 287.902 336.309 269.186 363.343 265.027C401.988 259.135 436.994 276.985 470.093 288.422C472.693 289.289 475.292 290.155 477.892 291.022C517.75 303.499 559.341 307.658 598.852 295.008C640.963 281.664 679.781 246.138 687.579 198.655" stroke="white" stroke-miterlimit="10"/>
<path d="M-428.447 589.61C-405.919 557.724 -380.098 528.437 -352.024 501.749C-339.547 489.965 -326.203 478.528 -310.779 470.903C-279.586 455.479 -244.581 457.559 -211.828 465.877C-202.816 468.13 -193.978 470.903 -185.487 473.849C-149.095 486.673 -114.262 504.349 -81.8559 525.664C-49.7962 546.806 -20.336 572.974 15.5363 590.997C44.9965 605.727 76.8829 618.551 109.289 623.576C137.19 627.908 166.477 625.482 190.912 611.792C195.417 609.366 199.576 606.593 203.562 603.301C228.343 583.891 241.687 553.738 249.659 522.718C252.258 512.84 254.164 502.962 255.897 493.084C260.403 467.437 263.869 441.269 268.375 416.488C275.653 376.456 289.17 341.277 312.565 310.084C327.642 290.155 349.65 272.132 375.991 267.8C413.423 261.735 447.736 277.678 479.796 287.209C482.395 287.902 484.821 288.769 487.42 289.289C526.065 299.686 566.097 301.419 603.355 287.729C643.04 273.172 679.259 237.82 685.671 191.55" stroke="white" stroke-miterlimit="10"/>
<path d="M-422.205 601.914C-400.197 570.721 -374.722 542.127 -346.821 516.306C-334.517 504.869 -321.347 493.778 -306.097 486.326C-275.597 471.249 -241.458 472.462 -209.225 479.567C-200.387 481.474 -191.722 483.9 -183.23 486.499C-147.358 497.937 -112.699 514.053 -80.466 533.982C-48.5796 553.738 -19.1193 578.346 16.233 595.676C46.5598 610.406 79.1393 623.749 112.412 629.295C141.006 633.974 170.986 631.721 196.287 618.031C200.793 615.605 205.125 612.659 209.284 609.539C234.759 589.783 248.449 558.937 256.767 527.224C259.367 517.173 261.446 506.948 263.353 496.897C268.205 470.729 272.364 443.868 277.736 418.567C286.401 377.67 301.998 342.144 327.299 310.951C342.549 292.235 364.037 275.079 389.512 270.746C425.904 264.507 459.177 278.544 490.543 286.343C492.969 287.036 495.569 287.556 497.995 288.076C535.6 296.221 573.725 295.874 608.731 280.971C646.163 265.201 679.436 230.022 684.635 185.138" stroke="white" stroke-miterlimit="10"/>
<path d="M-415.967 614.391C-394.478 583.718 -369.35 555.817 -341.796 530.863C-329.492 519.772 -316.668 509.028 -301.765 501.749C-271.958 487.019 -238.512 487.192 -206.972 493.258C-198.307 494.991 -189.643 496.897 -181.324 499.323C-145.799 509.374 -111.66 524.104 -79.5999 542.474C-47.8868 560.843 -18.4265 583.891 16.4059 600.528C47.5991 615.431 80.6986 629.122 114.838 635.014C143.952 640.039 174.972 638.133 200.793 624.269C205.472 621.843 209.977 618.897 214.31 615.605C240.651 595.502 254.514 563.962 263.352 531.383C266.125 521.158 268.378 510.587 270.284 500.363C275.483 473.502 280.335 446.295 286.401 420.3C296.452 378.536 313.955 342.664 341.162 311.644C356.585 293.968 377.554 277.851 402.162 273.346C437.341 267.107 469.921 279.238 500.248 285.13C502.674 285.649 505.1 285.996 507.526 286.343C543.918 292.408 580.483 289.809 613.236 273.692C648.242 256.709 678.742 221.703 682.728 178.033" stroke="white" stroke-miterlimit="10"/>
<path d="M-409.559 626.869C-388.59 596.889 -363.809 569.681 -336.601 545.42C-324.47 534.675 -311.82 524.451 -297.263 517.173C-268.149 502.789 -235.57 502.096 -204.55 506.948C-196.058 508.334 -187.567 510.067 -179.422 511.974C-144.416 520.639 -110.45 533.809 -78.5638 550.965C-47.024 567.775 -17.3904 589.437 16.7489 605.207C48.9819 620.11 82.6012 634.494 117.607 640.732C147.414 646.105 179.127 644.545 205.814 630.508C210.667 627.909 215.172 625.136 219.678 621.843C246.712 601.394 260.923 569.161 270.107 535.889C273.053 525.317 275.306 514.746 277.559 504.175C283.278 476.795 288.65 448.894 295.582 422.38C307.019 379.749 326.428 343.53 355.542 312.51C370.965 296.047 391.414 280.624 415.329 276.118C449.468 269.706 481.181 279.931 510.642 284.09C512.894 284.436 515.321 284.783 517.573 284.956C552.926 288.769 587.585 284.09 618.258 266.76C651.011 248.391 678.738 213.732 681.338 171.448" stroke="white" stroke-miterlimit="10"/>
<path d="M-403.318 639.346C-382.696 609.886 -358.435 583.372 -331.574 559.977C-319.617 549.579 -307.139 539.701 -292.756 532.596C-264.162 518.386 -232.449 516.826 -202.122 520.639C-193.804 521.678 -185.486 523.065 -177.341 524.798C-142.855 532.076 -109.236 543.86 -77.3492 559.457C-45.8093 574.88 -16.3491 594.982 17.2702 610.059C50.3697 624.963 84.6823 639.866 120.381 646.625C150.881 652.343 183.461 650.957 210.668 636.92C215.694 634.32 220.373 631.374 224.879 628.082C252.606 607.46 267.163 574.36 276.694 540.221C279.64 529.477 282.239 518.559 284.492 507.815C290.558 479.914 296.623 451.32 304.421 424.286C317.245 380.789 338.387 344.223 369.58 313.377C385.004 297.954 405.106 283.57 428.154 279.064C461.081 272.479 491.927 280.797 520.521 283.05C522.774 283.223 525.027 283.397 527.279 283.397C561.419 284.956 594.518 278.025 622.939 259.655C653.265 240.073 678.22 205.587 679.606 164.516" stroke="white" stroke-miterlimit="10"/>
<path d="M-397.078 651.823C-376.976 623.056 -353.061 597.235 -326.547 574.533C-314.763 564.482 -302.285 554.951 -288.422 548.019C-260.521 534.156 -229.674 531.729 -199.868 534.329C-191.549 535.022 -183.405 536.062 -175.433 537.448C-141.467 543.34 -108.194 553.565 -76.4811 567.775C-45.1145 581.812 -15.481 600.355 17.4452 614.738C51.4111 629.641 86.4168 645.065 122.982 652.17C154.002 658.235 187.448 657.195 215.522 642.985C220.548 640.386 225.573 637.44 230.079 633.974C258.673 613.005 273.403 579.212 283.281 544.207C286.4 533.116 289 522.025 291.426 511.107C297.838 482.513 304.596 453.4 313.261 426.019C327.471 381.655 350.346 344.57 383.619 314.07C399.216 299.86 418.798 286.343 440.98 281.664C472.866 275.078 502.846 281.317 530.574 281.837C532.827 281.837 534.906 281.837 537.159 281.837C570.258 281.317 601.452 272.132 627.793 252.55C655.866 231.755 677.875 197.442 678.048 157.757" stroke="white" stroke-miterlimit="10"/>
<path d="M-390.666 664.301C-371.084 636.053 -347.515 610.926 -321.348 589.264C-309.737 579.559 -297.433 570.548 -283.916 563.616C-256.708 550.099 -226.728 546.806 -197.441 548.192C-189.296 548.539 -181.325 549.406 -173.526 550.445C-140.08 554.778 -106.981 563.789 -75.4412 576.44C-44.2479 588.917 -14.6144 605.9 17.7919 619.764C52.7977 634.667 88.3233 650.61 125.582 658.235C157.295 664.647 191.607 663.781 220.201 649.57C225.4 646.971 230.426 644.025 235.278 640.559C264.565 619.244 279.815 584.585 290.039 549.059C293.332 537.795 295.931 526.531 298.531 515.266C305.289 486.153 312.741 456.346 322.272 428.445C338.042 383.042 362.477 345.437 397.829 315.283C413.426 302.113 432.488 289.635 453.977 284.956C484.65 278.198 513.764 282.704 540.625 281.317C542.705 281.144 544.784 281.144 547.037 280.797C578.923 278.024 608.557 266.76 632.645 245.965C658.293 223.956 677.702 189.817 676.315 151.519" stroke="white" stroke-miterlimit="10"/>
<path d="M-384.43 676.778C-365.367 649.224 -342.146 624.789 -316.324 603.82C-304.887 594.462 -292.756 585.798 -279.412 579.212C-252.898 565.869 -223.611 561.709 -195.018 562.056C-187.046 562.229 -179.248 562.576 -171.449 563.269C-138.35 566.215 -105.77 573.84 -74.4037 584.931C-43.3838 596.022 -13.5769 611.445 18.1362 624.616C54.0084 639.519 90.2272 655.982 128.352 663.954C160.759 670.713 195.764 670.193 225.225 655.809C230.597 653.21 235.796 650.09 240.648 646.624C270.801 624.962 286.225 589.61 296.796 553.218C300.088 541.781 303.034 530.17 305.807 518.732C312.912 489.099 321.057 458.599 331.455 430.178C348.611 383.908 374.779 345.61 412.211 315.976C427.807 303.672 446.523 292.408 467.145 287.556C496.779 280.624 525.026 283.223 551.02 279.931C553.1 279.757 555.18 279.411 557.086 279.064C587.932 274.039 615.66 260.695 637.668 238.686C661.063 215.465 677.526 181.499 674.927 144.414" stroke="white" stroke-miterlimit="10"/>
<path d="M-378.191 689.255C-359.649 662.221 -336.774 638.48 -311.299 618.377C-300.035 609.366 -288.078 601.048 -275.08 594.636C-249.086 581.639 -220.839 576.613 -192.765 575.747C-184.967 575.573 -177.168 575.573 -169.543 575.92C-136.964 577.479 -104.731 583.545 -73.3643 593.249C-42.5176 602.954 -12.7108 616.818 18.4824 629.295C55.3944 644.198 92.1331 661.181 130.951 669.673C163.878 676.778 199.923 676.431 230.077 662.221C235.622 659.622 240.821 656.502 245.846 653.036C276.693 631.028 292.463 594.982 303.381 557.897C306.847 546.113 309.792 534.329 312.739 522.718C320.364 492.391 328.855 461.545 340.293 432.431C358.835 385.295 386.389 346.13 426.247 317.016C441.671 305.752 460.04 295.527 479.969 290.502C508.389 283.397 535.943 284.09 560.898 279.064C562.804 278.718 564.884 278.198 566.79 277.678C596.424 270.573 622.591 254.803 642.174 231.928C663.143 207.493 676.833 173.7 673.02 138.002" stroke="white" stroke-miterlimit="10"/>
<path d="M-371.951 701.559C-353.928 675.218 -331.4 652.17 -306.272 632.761C-295.181 624.096 -283.397 616.298 -270.573 609.886C-245.272 597.235 -217.718 591.17 -190.337 589.437C-182.712 588.917 -175.087 588.744 -167.462 588.744C-135.403 588.917 -103.343 593.596 -72.1496 601.914C-41.4763 610.059 -11.4962 622.363 19.0039 634.321C56.9556 649.051 94.2143 666.9 133.899 675.738C167.518 683.19 204.43 683.19 235.104 668.806C240.649 666.207 246.195 663.088 251.22 659.448C282.933 637.093 298.876 600.355 310.141 562.403C313.78 550.445 316.899 538.315 319.845 526.531C327.817 495.684 337.002 464.144 349.306 434.511C369.235 386.508 398.348 346.303 440.459 318.056C455.882 307.658 473.905 298.473 492.968 293.621C520.348 286.516 546.863 285.303 571.124 278.371C573.03 277.851 574.936 277.331 576.843 276.638C605.437 267.28 629.698 249.431 647.201 225.343C665.917 199.695 676.834 166.076 671.635 131.59" stroke="white" stroke-miterlimit="10"/>
<path d="M-365.539 714.036C-347.863 688.215 -325.854 666.034 -301.073 647.318C-289.982 638.999 -278.371 631.548 -266.067 625.309C-241.459 612.832 -214.772 606.073 -187.911 603.127C-180.459 602.261 -173.008 601.741 -165.556 601.394C-134.016 600.181 -102.303 603.301 -71.283 610.232C-40.6096 616.991 -10.8028 627.562 19.1774 638.999C57.9956 653.556 95.9474 672.099 136.325 681.284C170.638 689.082 208.243 689.429 239.783 674.872C245.502 672.272 251.047 669.153 256.246 665.34C288.652 642.639 304.942 605.207 316.553 566.389C320.192 554.258 323.485 541.954 326.604 529.823C334.922 498.457 344.8 466.224 357.797 436.244C379.113 387.374 409.786 345.956 454.15 318.749C469.746 309.218 487.249 301.246 505.445 296.221C531.613 288.942 557.434 285.823 580.655 276.985C582.562 276.292 584.295 275.598 586.201 274.732C613.581 263.121 636.283 243.192 651.533 217.891C667.823 191.03 675.968 157.584 669.556 124.485" stroke="white" stroke-miterlimit="10"/>
<path d="M-359.301 726.514C-342.145 701.386 -320.483 679.724 -296.048 661.874C-285.13 654.076 -273.693 646.798 -261.735 640.732C-237.82 628.602 -211.826 620.803 -185.658 616.818C-178.38 615.605 -170.928 614.738 -163.65 614.218C-132.63 611.619 -101.09 613.352 -70.2436 618.724C-39.7435 624.096 -9.76334 633.107 19.5236 643.852C59.3816 658.409 97.8533 677.471 139.098 687.176C174.103 695.32 212.575 695.84 244.635 681.284C250.527 678.684 256.246 675.392 261.618 671.752C294.89 648.877 311.354 610.579 323.484 571.067C327.297 558.59 330.589 546.113 334.055 533.809C342.72 501.749 353.291 468.996 367.155 438.496C389.857 388.76 421.916 345.956 468.706 319.789C484.303 311.124 501.286 304.365 518.789 299.167C543.916 291.715 568.698 286.689 591.226 276.118C592.959 275.252 594.692 274.385 596.425 273.519C622.766 259.828 643.561 237.647 656.732 211.132C670.769 182.885 675.968 149.786 668.343 118.073" stroke="white" stroke-miterlimit="10"/>
<path d="M-353.064 738.991C-314.42 681.977 -250.82 644.372 -183.408 630.681C-115.996 616.991 -45.118 625.829 19.8679 648.704C60.5924 663.088 99.7572 682.843 141.695 692.894C183.806 702.946 231.115 702.252 266.814 677.818C311.525 647.318 326.428 589.437 340.985 537.275C364.9 451.493 403.371 360.34 482.914 320.482C522.599 300.553 568.869 295.701 606.474 271.959C658.462 239.206 684.457 170.061 666.954 111.141" stroke="white" stroke-miterlimit="10"/>
<path d="M-714.382 486.499C-721.66 427.579 -663.433 377.843 -604.859 368.658C-546.112 359.473 -487.364 378.363 -429.137 390.493C-370.91 402.624 -305.577 406.61 -257.054 372.471C-195.015 328.8 -180.631 236.953 -116.685 195.882C-66.949 163.823 -2.13645 173.527 48.8125 197.269C77.5796 210.786 102.188 233.314 129.742 249.084C254.688 320.655 263.179 466.743 369.409 488.405C484.305 511.974 546.691 455.999 568.526 417.008C596.254 367.272 642.697 237.993 529.188 148.226C483.091 111.661 437.515 72.8423 403.549 24.8394C352.773 -47.0783 353.12 -156.948 418.106 -216.388C462.643 -257.113 531.094 -272.016 561.248 -324.178C581.523 -359.357 578.751 -404.587 561.248 -441.153C543.745 -477.718 513.245 -506.658 480.319 -530.227" stroke="white" stroke-miterlimit="10"/>
<path d="M-711.607 489.445C-716.633 428.792 -658.752 376.456 -598.445 366.059C-539.524 355.834 -479.737 374.55 -421.51 388.067C-363.976 401.238 -300.203 407.303 -251.854 376.283C-189.987 336.598 -172.657 249.257 -108.885 208.879C-58.1089 176.82 5.66389 182.712 57.8259 203.507C87.8061 215.465 114.32 236.78 143.261 252.723C265.607 320.482 275.659 461.891 379.636 483.38C491.412 506.428 553.452 453.4 575.98 415.101C604.574 366.578 648.764 242.152 541.494 153.425C497.304 116.859 453.46 77.1747 420.014 29.5184C370.625 -40.6664 370.278 -146.723 431.625 -205.644C474.082 -246.368 539.935 -263.005 570.088 -314.474C590.71 -349.653 589.497 -394.363 574.247 -431.275C558.824 -468.533 530.75 -499.033 498.864 -524.335" stroke="white" stroke-miterlimit="10"/>
<path d="M-709.011 492.391C-711.784 430.005 -654.25 375.07 -592.037 363.459C-532.769 352.368 -471.943 370.911 -413.889 385.468C-357.048 399.678 -295.008 407.823 -246.658 379.749C-185.138 343.877 -164.689 261.215 -100.917 221.357C-49.1011 189.124 13.8052 191.55 67.007 209.399C98.2002 219.797 126.794 239.899 156.947 256.016C276.522 320.309 288.306 456.692 390.03 477.834C498.513 500.363 560.207 450.28 583.602 412.675C612.888 365.539 654.999 245.618 553.968 157.931C511.684 121.192 469.4 80.8139 436.647 33.3309C388.817 -35.1209 387.604 -137.365 445.312 -195.766C485.516 -236.144 548.942 -254.34 578.923 -305.289C599.891 -340.641 600.238 -384.658 587.067 -421.744C573.724 -459.695 547.903 -491.755 517.403 -518.789" stroke="white" stroke-miterlimit="10"/>
<path d="M-706.411 495.337C-706.93 431.391 -649.743 373.857 -585.797 360.86C-526.183 348.729 -464.49 367.098 -406.262 383.042C-350.115 398.465 -289.634 408.343 -241.458 383.562C-180.111 351.675 -156.89 273.519 -93.117 234.354C-40.2619 201.948 21.6047 200.735 76.1928 215.638C108.599 224.476 139.099 243.365 170.639 259.828C287.44 320.655 301.131 452.013 400.429 472.982C505.62 494.991 566.966 448.028 591.228 410.942C621.381 365.019 661.412 249.777 566.446 163.303C525.895 126.391 485.691 85.3196 453.111 38.1832C407.014 -28.7089 404.761 -126.968 458.83 -184.675C497.128 -225.573 557.955 -245.675 587.935 -295.758C609.25 -331.457 610.983 -374.78 600.066 -412.039C588.801 -450.511 565.407 -484.303 536.12 -513.07" stroke="white" stroke-miterlimit="10"/>
<path d="M-703.811 498.283C-702.078 432.604 -645.237 372.644 -579.558 358.26C-519.597 345.263 -457.037 363.286 -398.81 380.442C-343.355 396.905 -284.435 408.863 -236.605 387.201C-175.605 359.3 -149.264 285.823 -85.4915 247.178C-31.7698 214.598 29.4035 209.746 85.0315 221.703C118.651 228.982 151.23 246.658 183.983 263.294C297.839 320.828 313.435 447.161 410.307 467.61C512.379 489.098 573.205 445.081 598.333 408.689C629.18 364.152 667.132 253.243 578.578 168.155C539.933 131.07 501.288 89.1321 469.401 42.5155C424.864 -22.817 421.745 -117.09 472.174 -174.277C508.393 -215.348 566.793 -237.01 596.6 -286.4C618.262 -322.099 621.728 -364.903 612.89 -402.334C603.705 -441.673 582.563 -476.852 554.663 -507.352" stroke="white" stroke-miterlimit="10"/>
<path d="M-701.211 501.229C-697.225 433.817 -640.557 371.257 -573.145 355.661C-513.012 341.624 -449.239 359.473 -391.012 378.016C-336.25 395.519 -278.889 409.729 -231.233 391.013C-170.406 367.098 -141.119 298.127 -77.5197 260.175C-22.7583 227.422 37.5486 218.757 94.2163 228.115C129.222 233.834 163.535 250.297 197.674 267.107C308.583 321.522 326.086 442.482 420.705 462.758C519.484 483.726 579.964 442.655 606.132 406.956C637.672 363.806 673.717 257.229 591.228 173.527C554.49 136.095 517.578 93.6378 486.211 47.1945C443.234 -16.405 439.248 -107.039 486.038 -163.36C520.177 -204.431 575.978 -227.826 605.785 -276.522C627.794 -312.394 632.819 -354.678 626.061 -392.283C618.956 -432.315 600.066 -469.053 573.552 -501.286" stroke="white" stroke-miterlimit="10"/>
<path d="M-698.439 504.175C-692.201 435.03 -635.88 370.044 -566.735 353.061C-506.255 338.158 -441.615 355.661 -383.388 375.417C-329.32 393.959 -273.692 410.249 -226.035 394.479C-165.382 374.55 -133.149 310.257 -69.5493 272.652C-13.7481 239.726 45.8656 227.249 103.4 233.834C139.619 237.993 175.837 253.243 211.536 270.226C319.326 321.695 339.082 437.11 431.275 457.039C526.588 477.834 586.721 439.709 613.756 404.53C645.989 362.593 680.128 260.348 603.704 178.033C568.699 140.428 533.693 97.277 502.846 51.1803C461.429 -10.6862 456.576 -97.5073 499.727 -153.309C531.787 -194.553 585.162 -219.508 614.795 -267.51C636.977 -303.556 643.736 -345.32 639.23 -383.099C634.378 -423.823 617.741 -462.295 592.44 -496.087" stroke="white" stroke-miterlimit="10"/>
<path d="M-695.838 507.121C-687.346 436.417 -631.372 368.831 -560.494 350.462C-499.667 334.692 -433.988 351.675 -375.934 372.99C-322.559 392.4 -268.491 410.942 -221.008 398.292C-160.701 382.348 -125.348 322.561 -61.9222 285.649C-5.08125 252.55 53.666 236.26 112.24 240.073C149.845 242.499 187.97 256.709 224.882 273.865C329.553 322.388 351.388 432.258 441.328 452.013C533.522 471.942 593.309 436.937 621.209 402.451C654.136 361.726 686.369 263.641 616.184 183.058C583.084 145.107 549.812 101.436 519.311 55.686C479.28 -4.62087 473.561 -87.6295 513.246 -142.564C543.053 -183.982 594.002 -210.496 623.636 -257.806C646.164 -294.025 654.655 -335.269 652.056 -373.048C649.283 -414.638 634.9 -454.496 610.812 -490.022" stroke="white" stroke-miterlimit="10"/>
<path d="M-693.24 510.067C-682.496 437.63 -626.868 367.618 -554.084 347.863C-492.91 331.226 -426.365 347.863 -368.138 370.564C-315.456 391.013 -262.947 411.462 -215.637 402.104C-155.504 390.147 -117.205 335.039 -53.7791 298.647C4.10162 265.547 62.1557 245.272 121.596 246.485C160.414 247.351 200.446 260.348 238.744 277.678C340.122 323.428 364.21 427.752 451.898 446.988C540.972 466.397 600.239 434.337 629.006 400.544C662.452 361.206 693.125 267.107 628.833 188.257C597.466 149.786 566.1 105.769 536.119 60.365C497.648 1.79109 491.063 -77.7517 527.108 -131.82C554.835 -173.584 603.358 -201.485 632.818 -248.275C655.693 -284.667 665.745 -325.218 665.398 -363.343C664.878 -405.627 652.574 -447.045 629.872 -484.303" stroke="white" stroke-miterlimit="10"/>
<path d="M-690.641 513.013C-677.643 438.843 -622.362 366.405 -547.845 345.263C-486.325 327.76 -418.913 344.05 -360.686 367.965C-308.697 389.454 -257.748 411.982 -210.612 405.743C-150.825 397.772 -109.407 347.169 -45.9807 311.471C12.9399 278.198 70.1275 253.936 130.608 252.55C170.812 251.683 212.577 263.814 252.261 281.144C350.52 324.121 376.688 422.726 462.122 441.789C547.904 460.678 606.824 431.564 636.458 398.292C670.597 360.167 699.537 269.88 641.137 193.11C611.676 154.291 581.87 109.754 552.583 64.5241C515.671 7.68315 508.046 -68.2204 540.625 -121.595C566.273 -163.533 612.37 -192.993 641.657 -239.09C664.878 -275.482 676.662 -315.687 678.222 -353.985C679.955 -397.136 669.904 -439.94 648.415 -478.931" stroke="white" stroke-miterlimit="10"/>
<path d="M-688.041 515.959C-672.791 440.056 -617.683 365.365 -541.606 342.664C-479.74 324.294 -411.288 340.064 -353.06 365.539C-301.765 387.894 -252.549 412.675 -205.586 409.556C-145.972 405.397 -101.608 359.647 -38.3554 324.294C21.6049 290.848 77.9259 262.601 139.446 258.615C180.864 256.016 224.534 267.107 265.605 284.61C360.571 324.988 389.165 417.701 472.174 436.417C554.662 454.786 613.063 428.618 643.91 396.039C678.742 359.127 705.95 272.652 653.614 197.788C626.06 158.45 597.986 113.567 569.219 68.6832C533.867 13.5752 525.202 -58.8624 554.316 -111.198C577.884 -153.482 621.381 -184.329 650.668 -229.732C674.236 -266.297 687.753 -305.982 691.393 -344.28C695.378 -388.124 687.407 -432.488 667.305 -473.212" stroke="white" stroke-miterlimit="10"/>
<path d="M-685.27 518.905C-667.767 441.442 -613.005 364.152 -535.195 340.064C-472.982 320.828 -403.664 336.252 -345.437 362.939C-294.661 386.334 -247.178 413.195 -200.388 413.022C-141.121 412.848 -93.638 371.777 -30.3851 336.945C30.615 303.499 86.2429 271.093 148.629 264.681C191.433 260.175 236.664 270.573 279.294 288.249C370.968 326.027 401.814 412.848 482.57 431.391C561.94 449.241 619.82 426.019 651.533 394.133C686.886 358.607 712.88 275.598 666.09 202.987C640.443 163.129 614.102 117.899 585.681 73.3622C551.715 19.9871 542.184 -49.1579 567.832 -100.453C589.147 -143.084 630.391 -175.317 659.505 -220.027C683.42 -256.766 698.67 -295.931 704.215 -334.403C710.627 -379.113 704.735 -424.863 685.846 -467.32" stroke="white" stroke-miterlimit="10"/>
<path d="M-682.67 521.851C-662.914 442.655 -608.499 362.939 -528.783 337.465C-466.397 317.363 -395.866 332.266 -337.811 360.513C-287.729 384.775 -241.806 413.888 -195.189 416.834C-136.095 420.647 -85.6662 384.081 -22.5866 349.942C39.4533 316.323 94.2147 279.931 157.641 270.919C201.658 264.681 248.794 274.212 292.812 291.888C381.192 327.24 414.292 408.169 492.795 426.192C568.872 443.695 626.232 423.246 658.985 392.053C695.031 357.74 719.639 278.371 678.394 208.013C654.653 167.462 629.872 122.058 602.144 77.6946C569.738 26.0525 558.994 -39.6266 581.349 -89.8824C600.411 -132.86 639.403 -166.652 668.343 -210.496C692.605 -247.408 709.761 -286.053 717.039 -324.698C725.704 -370.101 721.892 -417.411 704.389 -461.602" stroke="white" stroke-miterlimit="10"/>
<path d="M-680.07 524.797C-658.062 443.868 -603.82 361.899 -522.545 334.865C-459.811 314.07 -388.414 328.28 -330.186 357.914C-280.797 383.042 -236.607 414.408 -189.99 420.473C-131.243 428.272 -77.6945 396.385 -14.6148 362.766C48.4648 329.147 102.36 288.422 166.826 276.985C212.056 269.013 261.099 277.678 306.502 295.354C391.417 328.28 426.943 403.317 503.193 420.993C575.977 437.976 632.991 420.473 666.611 389.973C703.176 356.874 726.744 280.797 691.045 213.038C669.383 171.794 646.162 126.217 618.954 82.2002C588.108 32.1178 576.15 -30.0954 595.213 -79.3113C612.022 -122.809 648.588 -157.814 677.528 -201.138C702.136 -238.223 721.025 -276.349 730.383 -314.993C741.474 -361.09 739.568 -409.96 723.278 -455.883" stroke="white" stroke-miterlimit="10"/>
<path d="M-677.471 527.743C-653.036 445.081 -599.314 360.686 -516.132 332.266C-453.053 310.604 -380.615 324.294 -322.561 355.488C-273.865 381.655 -231.234 414.928 -184.791 424.286C-126.217 435.897 -69.7227 408.863 -6.81634 375.763C57.3031 341.971 110.332 297.087 175.837 283.223C222.454 273.345 273.229 281.317 320.193 298.993C401.815 329.493 439.767 398.465 513.591 415.795C583.082 432.258 639.577 417.701 674.236 387.894C711.321 356.008 734.023 283.223 703.523 217.891C683.94 175.953 662.105 130.203 635.591 86.5327C606.13 38.1832 592.96 -20.7374 608.903 -68.9136C623.287 -112.757 657.773 -149.149 686.366 -191.78C711.321 -229.039 732.117 -266.644 743.207 -305.462C756.724 -352.425 756.898 -402.681 741.821 -450.337" stroke="white" stroke-miterlimit="10"/>
<path d="M-674.871 530.69C-648.357 446.468 -594.635 359.647 -509.894 329.667C-446.467 307.311 -373.163 320.482 -314.936 352.888C-266.76 379.922 -225.862 415.448 -179.592 427.925C-121.365 443.522 -61.7509 421.167 1.15544 388.414C66.3146 354.621 118.477 305.578 185.022 289.289C232.852 277.505 285.36 284.956 333.883 302.459C412.039 330.706 452.417 393.439 523.989 410.596C590.188 426.539 646.335 414.928 682.034 385.814C719.813 355.141 741.648 285.649 716.173 222.916C698.844 180.112 678.395 134.362 652.227 91.0383C624.327 44.4218 609.77 -11.2061 622.594 -58.1693C634.551 -102.533 666.957 -140.138 695.378 -182.076C720.679 -219.334 743.208 -256.593 756.378 -295.584C772.321 -343.241 774.401 -395.056 760.71 -444.445" stroke="white" stroke-miterlimit="10"/>
<path d="M-672.1 533.636C-643.333 447.681 -589.957 358.607 -503.483 327.067C-439.71 303.845 -365.366 316.496 -307.312 350.462C-259.829 378.363 -220.664 416.141 -174.568 431.564C-116.514 450.973 -53.9539 433.471 8.77914 401.238C74.9781 367.272 126.274 314.07 193.859 295.354C242.902 281.837 297.316 288.595 347.226 305.925C421.916 331.919 464.72 388.414 534.038 405.397C597.118 420.647 652.573 411.982 689.311 383.735C727.61 354.274 748.925 287.902 728.476 227.942C713.573 184.271 694.164 138.521 668.689 95.3707C642.175 50.4871 626.405 -1.84818 636.11 -47.7715C645.641 -92.6551 675.968 -131.473 704.215 -172.718C729.863 -210.15 754.297 -246.715 769.201 -285.88C787.57 -334.229 791.556 -387.604 779.252 -438.727" stroke="white" stroke-miterlimit="10"/>
<path d="M-669.5 536.582C-638.48 448.894 -585.278 357.567 -497.244 324.468C-433.125 300.38 -357.741 312.51 -299.86 348.036C-252.897 376.803 -215.465 416.661 -169.542 435.377C-111.661 458.599 -45.9821 445.948 16.5777 414.235C83.8164 380.269 134.245 322.735 202.871 301.593C253.126 286.169 309.274 292.408 360.743 309.564C432.141 333.306 477.371 383.562 544.263 400.198C604.05 414.928 658.985 409.209 696.763 381.655C735.582 353.235 756.55 290.155 740.78 232.968C728.476 188.431 710.107 142.68 685.153 99.8764C660.025 56.7258 642.868 7.68313 649.627 -37.0272C656.385 -82.2573 684.979 -122.462 713.053 -163.013C739.047 -200.618 765.388 -236.664 782.025 -276.002C802.82 -325.045 808.886 -379.979 797.795 -432.835" stroke="white" stroke-miterlimit="10"/>
<path d="M-666.9 539.528C-633.628 450.107 -580.772 356.354 -490.832 321.868C-426.366 297.087 -349.943 308.351 -292.062 345.436C-245.792 375.07 -209.92 417.181 -164.17 439.016C-106.635 466.224 -37.8371 458.252 24.7227 427.059C93.0012 393.093 142.564 331.226 212.229 307.831C263.697 290.502 321.578 296.394 374.607 313.203C442.539 334.865 490.195 378.709 554.834 395.172C611.502 409.383 665.743 406.437 704.562 379.749C743.9 352.542 764.868 292.581 753.431 237.993C743.9 192.59 726.224 146.84 701.962 104.382C678.394 62.9645 659.505 17.2144 663.491 -26.4561C667.65 -72.2062 694.164 -113.624 722.238 -153.482C748.579 -191.26 776.826 -226.613 795.369 -266.297C818.59 -316.033 826.562 -372.528 816.857 -427.116" stroke="white" stroke-miterlimit="10"/>
<path d="M-664.301 542.474C-628.775 451.493 -576.093 355.314 -484.593 319.442C-419.607 293.794 -342.317 304.539 -284.61 343.184C-238.86 373.684 -204.721 418.047 -159.144 443.002C-101.783 474.195 -30.0385 470.902 32.3479 440.056C101.84 406.09 150.362 339.891 221.067 314.07C273.749 294.834 333.363 300.553 387.951 317.016C452.417 336.425 502.499 374.03 564.886 390.147C618.261 403.837 671.982 403.837 711.84 377.843C751.872 351.675 772.84 295.181 765.735 243.192C759.323 197.095 741.994 151.345 718.426 108.888C696.244 69.2031 675.795 26.7456 677.008 -15.8851C678.221 -61.9818 703.349 -104.613 731.076 -144.124C757.937 -181.902 787.744 -216.735 808.193 -256.593C834.014 -306.849 843.892 -365.076 835.227 -421.397" stroke="white" stroke-miterlimit="10"/>
<path d="M-661.703 545.42C-623.751 452.706 -571.416 354.448 -478.183 316.669C-412.851 290.502 -334.521 300.38 -276.813 340.411C-231.757 371.777 -199.35 418.394 -153.773 446.295C-96.7592 481.474 -21.8954 482.86 40.491 452.533C111.022 418.567 158.505 348.036 230.423 319.789C284.318 298.647 345.665 304.019 401.813 320.135C462.986 337.465 515.495 368.658 575.455 384.601C625.537 397.772 678.912 400.544 719.81 375.243C760.361 350.289 781.677 297.26 778.557 247.698C775.611 200.735 758.455 154.984 735.233 112.874C714.438 75.0951 692.429 35.9303 690.87 -5.66063C689.137 -52.1039 712.532 -96.121 740.259 -134.939C767.466 -172.891 799.18 -207.204 821.535 -247.235C849.782 -298.184 861.566 -357.971 854.288 -416.025" stroke="white" stroke-miterlimit="10"/>
<path d="M-658.926 548.366C-618.721 453.92 -566.732 353.235 -471.94 314.243C-406.261 287.209 -326.891 296.567 -269.357 338.158C-224.82 370.391 -194.147 419.087 -148.743 450.28C-91.9023 489.272 -14.0925 495.337 48.1206 465.704C119.692 431.564 166.308 356.874 239.266 326.374C294.374 303.326 357.454 308.698 415.161 324.121C472.868 339.544 527.803 364.326 585.511 379.749C632.3 392.4 685.156 397.945 727.093 373.51C768.164 349.596 789.999 300.553 790.693 253.07C791.386 205.587 774.056 159.49 751.528 117.726C732.119 81.6804 708.377 45.9815 704.218 5.25701C699.366 -41.5328 721.374 -86.9363 748.928 -125.061C776.482 -163.186 810.102 -196.806 834.19 -237.184C864.863 -288.653 878.554 -350.172 872.662 -409.96" stroke="white" stroke-miterlimit="10"/>
<path d="M28.019 899.983C-22.41 868.789 -24.8361 792.193 4.79744 740.724C34.431 689.255 86.0731 655.289 131.823 617.511C177.747 579.732 221.764 531.383 225.576 472.116C230.428 396.385 167.695 327.587 175.84 252.03C182.079 193.283 230.082 148.746 280.684 123.791C309.278 109.754 342.204 104.729 371.838 93.2911C505.795 40.6092 625.023 125.697 708.551 56.5524C799.012 -18.3113 794.333 -102.013 777.696 -143.257C756.381 -196.113 684.636 -313.261 543.4 -281.028C486.04 -267.857 427.292 -256.766 368.545 -260.405C280.684 -265.778 195.249 -334.923 189.531 -422.957C185.718 -483.264 216.911 -545.823 195.249 -602.144C180.693 -639.923 143.607 -666.091 104.096 -675.449C64.5844 -684.807 22.9935 -679.088 -15.998 -668.17" stroke="white" stroke-miterlimit="10"/>
<path d="M32.0053 899.809C-18.4237 865.67 -22.9294 787.86 6.7042 734.312C35.6446 681.977 87.8066 647.144 134.596 610.232C180.866 573.667 225.577 527.743 231.642 470.556C239.44 397.425 182.253 329.32 190.744 254.11C197.503 194.323 242.213 148.399 291.082 120.845C319.156 104.902 352.429 97.6236 382.929 85.1463C512.381 32.2911 628.836 112.874 710.805 45.4616C798.839 -27.1493 796.239 -108.772 780.643 -150.363C760.714 -203.044 691.395 -315.513 555.012 -287.439C498.691 -275.829 440.463 -266.471 382.236 -270.456C296.628 -276.002 213.793 -342.028 206.167 -426.769C200.969 -485.343 229.389 -547.21 208.074 -603.011C193.517 -641.136 157.991 -668.17 119.693 -679.434C81.048 -690.699 39.6303 -687.926 -0.0543768 -679.088" stroke="white" stroke-miterlimit="10"/>
<path d="M35.9924 899.636C-14.2634 862.724 -21.0219 783.528 8.78493 727.727C37.2054 674.525 89.7141 638.826 137.544 602.607C184.334 567.255 229.39 523.931 237.882 468.823C248.626 398.465 196.811 330.706 205.822 256.016C213.101 195.362 254.345 147.879 301.655 117.553C329.382 99.7031 362.828 89.9986 394.368 76.6548C519.314 23.6263 633.169 99.8764 713.232 34.024C798.84 -36.334 798.493 -115.877 783.763 -157.641C765.394 -209.976 698.328 -317.94 566.624 -294.198C511.516 -284.147 453.635 -276.522 395.928 -280.681C312.572 -286.4 232.163 -349.306 222.805 -430.928C216.22 -487.943 241.694 -548.943 220.899 -604.051C206.515 -642.522 172.376 -670.423 135.291 -683.42C97.339 -696.764 56.0947 -696.764 16.0634 -690.005" stroke="white" stroke-miterlimit="10"/>
<path d="M39.9772 899.463C-10.2786 859.778 -19.1166 779.196 10.6902 721.141C38.5908 667.073 91.6193 630.508 140.315 595.155C187.452 561.016 233.202 520.118 243.946 467.09C257.463 399.331 211.193 332.266 220.551 257.922C228.35 196.402 266.128 147.359 312.052 114.26C339.259 94.5042 373.052 82.5468 405.631 68.1632C526.245 15.3081 637.154 86.8792 715.657 22.5865C798.839 -45.692 800.572 -122.982 786.882 -165.093C770.072 -217.255 705.259 -320.712 578.407 -300.957C524.339 -292.465 466.978 -286.92 409.964 -291.079C328.861 -296.971 251.051 -356.758 239.787 -435.087C231.816 -490.542 254.344 -550.502 234.068 -605.264C219.685 -644.082 187.105 -672.676 151.06 -687.579C113.974 -703.003 72.9034 -705.775 32.3522 -701.096" stroke="white" stroke-miterlimit="10"/>
<path d="M43.7871 899.29C-6.29539 856.832 -17.3863 774.863 12.5938 714.73C39.9746 659.795 93.3496 622.363 143.259 587.704C190.742 554.778 237.012 516.479 250.182 465.53C266.645 400.371 225.921 333.826 235.625 260.002C243.944 197.615 278.429 146.84 322.62 111.141C349.481 89.4786 383.447 75.0951 417.066 60.0184C533.347 7.33648 641.484 74.2286 718.254 11.6689C798.836 -54.3568 802.822 -129.394 790.172 -171.851C774.748 -223.84 712.189 -322.792 590.188 -307.195C536.987 -300.263 480.319 -296.451 423.825 -300.783C344.975 -306.849 269.591 -363.69 256.594 -438.727C247.236 -492.622 266.992 -551.715 247.236 -605.957C232.853 -645.122 201.659 -674.582 167 -691.392C130.608 -708.895 89.8837 -714.44 48.6393 -711.841" stroke="white" stroke-miterlimit="10"/>
<path d="M47.7743 898.943C-2.30817 853.539 -15.4786 770.357 14.5015 707.971C41.3624 652.343 95.084 613.871 146.033 580.079C193.863 548.366 240.999 512.493 256.249 463.624C275.831 401.238 240.306 335.212 250.53 261.735C259.368 198.482 290.388 145.973 333.019 107.848C359.36 84.2798 393.672 67.6434 428.332 51.5269C540.281 -0.8084 645.471 61.2314 720.508 0.231365C798.664 -63.5414 804.73 -136.499 793.119 -179.303C779.082 -230.945 718.775 -325.738 601.801 -313.954C549.639 -308.755 493.491 -306.502 437.516 -311.181C360.92 -317.42 287.962 -371.141 273.232 -442.886C262.488 -495.221 279.297 -553.448 260.062 -607.17C245.851 -646.681 216.044 -677.182 182.598 -695.551C147.073 -715.133 106.522 -723.451 64.7573 -722.932" stroke="white" stroke-miterlimit="10"/>
<path d="M51.7603 898.77C1.85115 850.593 -13.5722 766.025 16.4079 701.386C42.7489 644.891 96.8172 605.38 148.806 572.454C196.982 541.954 244.638 508.681 262.315 461.718C284.843 401.931 254.863 336.598 265.434 263.468C274.792 199.348 302.346 145.107 343.417 104.382C369.411 78.7343 403.897 60.0184 439.423 42.8621C547.039 -8.9533 649.284 48.0609 722.761 -11.3795C798.492 -73.0727 806.636 -143.777 796.065 -186.755C783.588 -238.05 725.187 -328.857 613.238 -320.886C561.943 -317.246 506.488 -316.9 451.207 -321.752C377.036 -328.164 306.158 -378.766 289.869 -447.391C277.738 -498.167 291.775 -555.355 272.886 -608.73C258.675 -648.588 230.428 -679.954 198.195 -700.23C163.363 -721.892 122.985 -732.983 80.874 -734.542" stroke="white" stroke-miterlimit="10"/>
<path d="M55.7463 898.596C6.01039 847.647 -11.6658 761.693 18.4877 694.974C44.3087 637.613 98.7236 597.235 151.752 565.175C200.448 535.715 248.624 505.215 268.553 460.331C294.028 403.317 269.42 338.331 280.511 265.72C290.389 200.734 314.477 144.76 354.161 101.436C379.636 73.7087 414.468 52.9132 451.034 34.8905C554.491 -16.2318 653.79 35.5837 725.534 -22.2971C798.838 -81.7375 808.889 -150.189 799.531 -193.513C788.441 -244.635 730.56 -345.494 625.369 -326.951C575.633 -318.286 520.179 -326.258 465.417 -331.283C393.5 -337.869 325.048 -385.525 307.025 -450.857C293.335 -500.073 304.599 -556.394 286.23 -609.076C272.193 -649.281 245.332 -681.687 214.139 -703.522C180.173 -727.437 139.968 -741.128 97.1639 -744.767" stroke="white" stroke-miterlimit="10"/>
<path d="M59.5598 898.423C9.82396 844.701 -9.75848 757.534 20.2217 688.389C45.5229 630.335 100.284 588.917 154.353 557.724C203.395 529.476 252.091 501.403 274.447 458.598C302.694 404.184 283.804 339.891 295.242 267.627C305.64 201.774 326.089 143.894 364.387 98.3167C389.341 68.5099 424.521 45.6349 462.126 26.5723C561.424 -23.8567 657.603 22.7598 727.788 -33.5613C798.666 -90.7489 810.797 -157.121 802.479 -200.792C792.774 -251.567 737.319 -349.826 636.808 -333.709C587.938 -325.911 533.177 -336.482 478.935 -341.681C409.271 -348.44 343.072 -392.977 323.489 -455.016C308.412 -502.846 316.904 -558.127 299.055 -610.289C285.018 -650.841 259.716 -684.287 229.736 -707.682C196.463 -733.849 156.605 -750.139 113.281 -755.858" stroke="white" stroke-miterlimit="10"/>
<path d="M63.5421 898.25C13.9795 841.582 -7.85571 753.201 22.2977 681.977C47.079 623.056 102.187 580.599 157.295 550.272C206.511 523.065 256.074 497.763 280.682 457.039C311.875 405.397 298.531 341.451 310.315 269.706C321.233 202.987 338.216 143.2 374.955 95.1974C399.389 63.311 435.088 38.3565 473.56 18.2542C568.699 -31.3084 661.932 9.93593 730.211 -44.6522C798.662 -99.7602 812.873 -163.706 805.594 -207.723C797.276 -258.153 744.074 -353.638 648.588 -339.948C600.412 -333.016 546.517 -346.013 492.969 -351.386C425.557 -358.144 361.611 -399.908 340.469 -458.656C323.832 -504.926 329.724 -559.34 312.221 -610.983C298.358 -651.88 274.443 -686.366 245.676 -711.494C213.27 -739.915 173.412 -758.804 129.741 -766.602" stroke="white" stroke-miterlimit="10"/>
<path d="M67.5302 897.903C17.9677 838.463 -5.77384 748.695 24.2063 675.218C48.641 615.604 103.749 572.107 160.07 542.647C209.633 516.653 259.888 493.778 286.749 455.133C320.889 406.09 312.917 342.837 325.221 271.439C336.658 203.854 350.002 142.161 385.355 91.7315C409.269 57.7656 445.315 30.9047 484.653 9.76263C575.633 -38.9335 665.747 -3.06126 732.466 -56.0897C798.492 -108.945 814.781 -170.811 808.543 -215.175C801.611 -265.431 750.835 -357.798 660.202 -346.88C612.545 -341.161 559.69 -356.238 506.662 -361.957C441.502 -368.888 379.636 -407.707 357.107 -462.988C338.911 -507.872 342.031 -561.073 325.048 -612.369C311.357 -653.613 288.829 -689.139 261.102 -715.826C229.388 -746.5 189.877 -767.988 145.513 -777.866" stroke="white" stroke-miterlimit="10"/>
<path d="M71.5182 897.73C22.1289 835.516 -3.86543 744.363 26.288 668.633C50.2028 608.153 105.657 563.616 163.018 535.022C212.927 510.067 263.703 489.965 292.99 453.4C330.075 407.13 327.649 344.397 340.127 273.345C352.257 204.894 361.788 141.121 395.928 88.4388C419.323 52.3933 455.715 23.4529 496.093 1.2711C582.914 -46.3852 670.082 -16.0584 735.067 -67.5273C798.667 -118.13 816.863 -177.743 811.837 -222.454C806.292 -272.363 757.942 -344.454 671.988 -353.465C624.851 -358.491 573.036 -366.289 520.527 -372.008C457.621 -379.113 397.834 -414.812 373.919 -466.974C353.99 -510.298 354.683 -562.633 338.047 -613.235C324.357 -655 303.388 -691.392 276.874 -719.812C246.027 -752.738 206.689 -776.827 161.805 -788.784" stroke="white" stroke-miterlimit="10"/>
<path d="M75.3296 897.556C25.9403 832.571 -1.96028 740.204 28.0199 662.221C51.5881 601.048 107.216 555.471 165.617 527.743C215.872 504.002 267.341 486.326 298.881 451.84C338.912 408.169 342.032 345.956 354.855 275.425C367.506 206.107 373.398 140.428 406.151 85.4928C428.853 47.1944 465.938 16.5211 507.182 -6.87379C590.018 -53.4903 674.066 -28.7091 737.146 -78.6183C798.319 -126.968 818.422 -184.502 814.609 -229.559C810.45 -279.121 763.833 -348.093 683.424 -360.05C636.981 -366.982 586.032 -376.167 534.217 -382.232C473.563 -389.337 415.682 -422.09 390.554 -470.96C368.893 -512.724 367.16 -564.193 351.043 -614.275C337.526 -656.386 317.944 -693.818 292.642 -723.798C262.662 -758.977 223.497 -785.665 177.921 -799.702" stroke="white" stroke-miterlimit="10"/>
<path d="M79.3142 897.383C30.0983 829.451 0.118118 735.871 30.0983 655.636C53.1466 593.596 109.121 546.979 168.562 520.292C219.164 497.59 271.153 482.686 305.119 450.28C347.923 409.209 356.761 347.689 369.931 277.504C383.102 207.32 385.354 139.734 416.721 82.3735C438.903 41.9956 476.335 9.41601 518.619 -15.0187C597.468 -60.5954 678.224 -41.3596 739.744 -89.7091C798.491 -135.806 820.673 -191.087 817.9 -236.491C814.954 -285.707 770.417 -351.732 695.207 -366.462C649.457 -375.3 599.375 -385.871 548.079 -392.283C489.678 -399.562 433.704 -429.369 407.363 -474.945C383.968 -515.323 379.636 -565.752 364.039 -615.315C350.522 -657.772 332.673 -696.417 308.238 -727.784C279.124 -765.389 239.959 -794.503 194.036 -810.619" stroke="white" stroke-miterlimit="10"/>
<path d="M83.2996 897.037C34.0836 826.332 2.19723 731.539 32.0041 648.877C54.7058 586.144 110.68 538.314 171.334 512.493C222.283 490.831 274.965 478.701 311.184 448.201C356.934 409.902 371.317 348.902 384.834 279.064C398.698 208.013 396.965 138.521 427.292 78.7344C448.78 36.277 486.905 1.79104 529.883 -23.8567C604.746 -68.2204 682.21 -54.7033 742.17 -101.32C798.491 -145.164 822.579 -198.366 821.193 -244.116C819.633 -293.158 777.002 -356.238 707.164 -373.394C662.281 -384.485 612.891 -396.096 562.116 -402.681C505.968 -409.96 451.9 -436.82 424.346 -479.278C399.218 -518.096 392.459 -567.659 377.209 -616.701C363.865 -659.505 347.402 -699.19 324.181 -732.29C296.107 -772.148 256.942 -803.861 210.499 -822.057" stroke="white" stroke-miterlimit="10"/>
<path d="M87.2863 896.863C38.2436 823.386 4.27763 727.207 33.9112 642.465C56.2663 578.866 112.414 529.996 174.107 505.215C225.23 484.593 278.605 475.062 317.25 446.814C365.946 411.116 385.875 350.635 399.738 281.317C414.122 209.399 408.75 137.828 437.69 75.7883C458.486 31.078 497.131 -5.14075 541.148 -32.0016C612.199 -75.3255 686.37 -67.3539 744.597 -112.411C798.492 -154.175 824.486 -204.951 824.313 -251.047C823.966 -299.743 783.415 -360.224 718.776 -379.806C674.585 -393.15 626.063 -405.8 575.98 -412.732C522.085 -420.184 469.75 -443.752 441.156 -483.09C414.122 -520.176 405.111 -569.045 390.207 -617.568C377.037 -660.718 362.133 -701.616 339.951 -736.102C312.744 -778.386 273.752 -812.525 226.616 -832.801" stroke="white" stroke-miterlimit="10"/>
<path d="M91.0977 896.69C42.2284 820.267 6.18286 723.048 35.8164 635.88C57.6517 571.587 114.146 521.505 176.879 497.59C228.348 478.008 282.416 471.076 323.314 444.908C374.783 411.809 400.431 352.022 414.641 282.877C429.717 210.093 420.36 136.615 448.087 72.3224C468.189 25.5326 507.527 -12.4192 552.411 -40.4931C619.476 -82.4307 690.354 -80.3511 746.849 -123.848C798.317 -163.36 826.218 -212.056 827.258 -258.499C828.298 -306.849 789.826 -365.076 730.386 -386.565C687.062 -402.334 639.232 -415.852 589.669 -422.957C538.201 -430.408 487.252 -451.031 457.618 -487.249C428.678 -522.775 417.414 -570.605 402.857 -618.608C389.686 -662.105 376.516 -704.042 355.374 -740.261C329.206 -784.798 290.214 -821.537 242.558 -843.892" stroke="white" stroke-miterlimit="10"/>
<path d="M95.0832 896.517C46.2138 817.32 8.26203 718.715 37.7223 629.468C59.211 564.309 115.705 513.187 179.651 490.312C231.467 471.769 286.055 467.436 329.379 443.348C383.794 412.848 414.987 353.755 429.544 284.956C445.14 211.305 431.97 135.922 458.484 69.203C477.893 20.3336 518.098 -19.3511 563.675 -48.8113C626.928 -89.5358 694.34 -93.3484 749.274 -135.113C798.144 -172.544 828.124 -218.988 830.377 -265.604C832.63 -313.607 796.584 -369.582 741.996 -393.15C699.712 -411.346 652.402 -425.729 603.359 -433.181C554.317 -440.633 505.101 -457.962 474.427 -491.235C443.407 -525.028 430.064 -572.164 416.027 -619.647C403.03 -663.491 391.419 -706.468 371.143 -744.247C346.015 -791.21 306.851 -830.375 258.848 -854.81" stroke="white" stroke-miterlimit="10"/>
<path d="M99.0692 896.343C50.3731 814.375 10.3418 714.556 39.8021 622.883C60.9441 557.03 117.612 504.695 182.771 482.687C234.933 465.184 290.214 463.624 335.791 441.616C393.152 413.715 429.891 355.141 444.794 286.862C461.084 212.345 443.928 135.055 469.402 65.9104C488.118 14.9615 529.016 -26.4561 575.459 -57.3028C634.9 -96.8142 698.846 -106.345 752.221 -146.55C798.664 -181.729 830.55 -225.919 834.016 -273.056C837.482 -320.886 803.863 -374.607 754.3 -399.908C712.536 -420.704 665.746 -435.607 617.397 -443.232C570.433 -450.684 522.777 -464.894 491.237 -495.221C458.138 -527.107 442.715 -573.724 429.024 -620.687C416.2 -664.877 406.149 -709.068 386.913 -748.233C362.825 -797.449 323.66 -839.213 274.964 -865.727" stroke="white" stroke-miterlimit="10"/>
<path d="M103.057 895.997C54.3612 811.255 12.4236 710.051 41.7106 616.298C62.5061 549.752 119.174 496.03 185.546 475.235C237.881 458.772 293.856 459.812 341.859 439.883C401.992 414.755 444.45 356.7 459.527 288.769C476.509 213.385 455.367 134.189 479.629 62.7911C497.651 9.58929 539.416 -33.388 586.379 -65.4477C642.007 -103.573 702.66 -118.996 754.302 -157.468C798.32 -190.567 832.112 -232.505 836.791 -279.815C841.47 -327.298 810.623 -379.113 765.567 -406.147C725.535 -430.235 679.092 -445.312 631.089 -453.457C586.379 -460.908 540.456 -471.653 507.876 -499.207C472.697 -529.014 455.194 -575.284 441.85 -621.727C429.2 -666.264 420.708 -711.494 402.512 -752.392C379.464 -804.034 340.299 -848.224 291.083 -876.818" stroke="white" stroke-miterlimit="10"/>
<path d="M106.869 895.823C58.3461 808.136 14.6756 705.891 43.6159 609.712C64.0648 542.3 120.906 487.539 188.318 467.783C241 452.186 297.667 456.172 347.923 438.323C411.003 415.794 459.006 358.434 474.429 290.848C492.105 214.598 466.977 133.322 490.026 59.6717C507.355 4.39037 549.986 -39.9733 597.642 -73.766C649.458 -110.505 706.645 -131.82 756.554 -168.732C798.145 -199.579 833.671 -239.263 839.736 -287.093C845.628 -334.403 817.728 -384.139 777.177 -412.732C738.705 -439.766 692.262 -455.016 644.952 -463.508C602.495 -470.96 558.131 -478.411 524.685 -503.193C487.426 -530.92 467.844 -576.843 454.847 -622.593C442.369 -667.477 435.437 -713.747 418.108 -756.204C396.099 -810.099 356.935 -856.716 307.199 -887.562" stroke="white" stroke-miterlimit="10"/>
<path d="M110.854 895.65C62.3316 805.19 16.5815 701.559 45.5219 603.127C65.4509 535.022 122.639 479.047 191.09 460.158C244.119 445.601 301.306 452.187 353.988 436.417C420.014 416.661 473.562 359.647 489.332 292.581C507.528 215.465 478.588 132.283 500.423 56.2059C517.059 -1.15495 560.73 -47.0783 608.906 -82.4306C657.082 -117.783 710.804 -144.99 758.98 -180.343C798.145 -208.936 835.577 -246.542 842.855 -294.545C849.961 -341.508 825.353 -389.337 788.787 -419.664C752.222 -449.991 705.432 -465.241 658.815 -473.906C618.611 -481.357 575.98 -485.17 541.494 -507.525C501.983 -532.999 480.321 -578.75 468.017 -623.98C455.54 -669.21 450.514 -716.693 434.051 -760.71C413.082 -816.858 373.744 -866.074 323.488 -899" stroke="white" stroke-miterlimit="10"/>
</g>
</svg>
