<svg width="580" height="300" viewBox="0 0 580 300" fill="none" xmlns="http://www.w3.org/2000/svg">
<g opacity="0.4">
<path d="M53.8867 364.488C80.7476 327.229 110.035 291.53 141.228 257.738C155.091 242.661 169.822 227.758 188.191 218.746C235.154 195.871 291.475 218.053 335.666 245.78C376.39 271.428 414.168 301.755 447.788 336.241C481.061 370.38 511.041 409.025 551.419 434.499C591.797 459.974 647.078 469.332 686.243 441.951C709.464 425.661 723.328 398.454 728.7 370.553C734.072 342.653 731.473 313.886 726.794 285.812C721.595 253.752 713.97 220.306 724.194 189.286C734.766 157.4 765.092 132.792 798.538 129.326C846.195 124.3 887.959 157.573 928.164 183.567C979.112 216.667 1038.38 241.448 1099.03 237.982C1159.69 234.516 1221.03 197.431 1239.23 139.377" stroke="white" stroke-miterlimit="10"/>
<path d="M60.2969 376.965C86.8111 340.227 115.578 305.394 146.425 272.295C160.115 257.564 174.672 243.008 192.695 234.343C228.914 216.667 270.851 225.678 308.283 243.008C318.507 247.687 328.385 253.059 337.743 258.778C378.121 283.039 415.38 311.979 448.999 345.079C482.099 377.832 511.905 415.09 551.937 439.698C574.292 453.389 600.806 462.92 626.974 464.48C649.676 465.866 672.377 461.36 691.266 448.536C694.559 446.283 697.852 443.684 700.798 440.911C719.34 424.102 730.605 399.84 735.457 375.059C737.017 367.087 738.056 359.116 738.576 350.971C739.963 330.002 738.403 308.687 735.977 287.891C732.164 254.965 727.139 221.172 738.576 190.326C749.84 159.652 778.954 135.911 811.707 132.272C858.15 127.246 899.221 158.439 938.386 182.701C941.505 184.607 944.625 186.513 947.744 188.42C995.4 216.32 1049.3 235.556 1104.06 231.224C1162.46 226.545 1221.03 189.633 1237.84 132.792" stroke="white" stroke-miterlimit="10"/>
<path d="M66.5391 389.269C92.5334 353.224 120.954 318.911 151.454 286.678C164.971 272.295 179.355 258.258 197.204 249.593C232.903 232.263 273.801 240.235 310.713 256.525C320.764 261.03 330.468 266.056 339.826 271.255C379.684 293.957 416.77 321.684 450.042 353.224C483.142 384.417 512.775 420.462 552.287 444.204C575.509 458.068 602.716 467.945 629.75 470.025C653.145 471.758 676.54 467.599 696.122 454.602C699.588 452.349 702.881 449.749 706 446.977C725.236 429.82 736.847 404.866 742.046 379.391C743.779 371.246 744.818 362.928 745.512 354.61C747.245 332.948 746.378 311.113 744.818 289.797C742.392 256.005 739.793 221.866 752.617 191.192C764.747 161.905 792.648 138.857 824.534 135.218C869.938 130.019 909.969 159.306 948.441 181.834C951.387 183.567 954.506 185.3 957.626 187.033C1004.07 212.681 1056.23 229.837 1108.91 224.292C1164.89 218.4 1220.69 181.661 1236.29 126.206" stroke="white" stroke-miterlimit="10"/>
<path d="M72.7754 401.746C98.2499 366.221 126.324 332.775 156.477 301.235C169.821 287.198 184.031 273.508 201.534 265.016C236.54 247.86 276.571 255.138 312.963 270.215C322.841 274.374 332.546 279.053 341.73 284.079C381.068 305.394 417.807 331.562 451.08 361.715C484.006 391.522 513.466 426.181 552.631 448.883C576.719 462.92 604.62 473.144 632.347 475.744C656.435 477.997 680.697 473.837 700.972 460.84C704.611 458.414 708.077 455.815 711.37 453.042C731.472 435.539 743.256 409.891 748.975 383.55C750.708 375.059 752.095 366.567 752.788 358.076C754.867 335.894 754.521 313.366 753.827 291.53C752.788 256.871 752.788 222.559 766.825 191.712C779.649 163.811 806.509 141.456 837.529 137.644C881.72 132.272 921.058 159.652 958.49 180.274C961.436 181.834 964.382 183.567 967.501 185.127C1012.9 208.695 1063.33 223.598 1113.76 216.84C1167.48 209.561 1220.34 173.169 1234.72 119.101" stroke="white" stroke-miterlimit="10"/>
<path d="M79.1875 414.224C104.142 379.391 131.869 346.465 161.676 315.965C175.02 302.448 189.057 288.931 206.04 280.613C240.352 263.803 279.691 270.215 315.39 284.079C325.094 287.891 334.625 292.224 343.637 296.903C382.455 316.832 419.02 341.613 451.947 370.207C484.699 398.627 514.16 431.9 552.805 453.735C577.759 467.945 606.353 478.516 634.947 481.462C659.555 484.062 684.683 480.249 705.651 467.079C709.464 464.653 712.93 462.053 716.396 459.281C737.191 441.431 749.322 415.09 755.387 388.056C757.294 379.391 758.68 370.727 759.72 361.888C762.319 339.187 762.492 315.965 762.666 293.783C763.012 258.084 765.438 223.772 780.862 192.925C794.206 166.411 820.027 144.749 850.353 140.763C893.504 135.218 931.976 160.865 968.541 179.581C971.487 181.141 974.26 182.527 977.206 183.914C1021.4 205.229 1070.09 218.053 1118.27 210.081C1169.56 201.59 1219.82 165.371 1232.82 112.516" stroke="white" stroke-miterlimit="10"/>
<path d="M85.4238 426.701C109.859 392.389 137.239 360.329 166.7 330.522C179.87 317.351 193.734 304.354 210.543 296.036C244.163 279.573 282.634 284.945 317.813 297.942C327.345 301.408 336.703 305.567 345.714 309.726C384.012 328.269 420.231 351.491 453.157 378.698C485.737 405.732 515.197 437.619 553.322 458.587C579.143 472.971 608.43 483.889 637.717 487.355C663.018 490.301 689.013 486.835 710.675 473.491C714.487 471.065 718.3 468.465 721.766 465.519C743.428 447.323 755.732 420.289 762.144 392.389C764.223 383.55 765.609 374.539 766.822 365.528C769.769 342.133 770.635 318.565 771.675 295.69C773.408 259.124 778.087 224.638 795.07 193.618C808.933 168.49 833.888 147.348 863.348 143.536C905.286 137.99 942.891 161.559 978.59 178.542C981.363 179.928 984.309 181.141 987.081 182.527C1030.23 201.59 1077.2 212.161 1123.12 203.15C1172.16 193.445 1219.47 157.4 1231.26 105.931" stroke="white" stroke-miterlimit="10"/>
<path d="M91.666 439.178C115.581 405.559 142.615 374.019 171.729 345.079C184.726 332.255 198.416 319.604 214.879 311.459C247.979 295.17 285.584 299.849 320.07 311.633C329.601 314.752 338.786 318.565 347.624 322.55C385.575 339.707 421.274 361.542 454.201 387.19C486.607 412.664 516.067 443.164 553.672 463.44C580.36 477.823 610.34 489.261 640.493 493.073C666.488 496.366 693.175 493.073 715.53 479.73C719.516 477.303 723.329 474.704 726.968 471.585C749.323 453.215 761.974 425.315 768.732 396.548C770.985 387.363 772.545 378.178 773.758 368.994C777.05 345.079 778.61 320.817 780.516 297.422C783.636 259.991 790.568 225.331 809.11 194.312C823.32 170.397 847.409 150.121 876.176 146.135C917.073 140.417 953.812 162.079 988.644 177.155C991.417 178.368 994.19 179.581 996.963 180.621C1038.9 197.604 1084.13 205.922 1127.97 195.698C1174.59 184.78 1219.13 148.908 1229.7 98.6523" stroke="white" stroke-miterlimit="10"/>
<path d="M97.9043 451.656C121.473 418.556 147.987 387.883 176.754 359.636C189.578 347.158 203.095 334.854 219.211 326.883C251.618 310.94 288.356 314.579 322.322 325.323C331.68 328.269 340.692 331.562 349.53 335.201C386.962 350.971 422.487 371.246 455.067 395.681C487.3 419.769 516.76 448.883 553.845 468.292C581.399 482.849 612.073 494.806 642.919 498.965C669.434 502.605 697.161 499.658 720.209 486.141C724.368 483.715 728.354 480.943 732.167 477.997C755.388 459.281 768.212 430.687 775.491 401.227C777.743 391.869 779.476 382.337 780.863 372.979C784.502 348.545 786.755 323.59 789.528 299.675C794.033 261.377 803.218 226.544 823.32 195.525C837.877 172.996 861.272 153.414 889.173 149.428C928.857 143.536 964.903 163.292 998.695 176.635C1001.29 177.675 1004.07 178.715 1006.84 179.755C1047.74 194.485 1091.24 200.723 1132.83 189.286C1177.19 177.155 1218.95 141.456 1228.14 92.5869" stroke="white" stroke-miterlimit="10"/>
<path d="M104.316 464.133C127.365 431.727 153.532 401.573 181.953 374.192C194.603 362.062 207.947 350.278 223.89 342.306C255.604 326.709 291.476 329.482 324.922 339.013C334.107 341.613 342.945 344.559 351.609 348.025C388.521 362.235 423.7 381.298 456.28 404.173C488.513 426.874 517.973 454.428 554.365 473.144C582.959 487.701 614.152 500.178 645.865 504.857C673.073 508.843 701.493 506.07 725.235 492.553C729.567 490.127 733.553 487.355 737.539 484.235C761.454 465.173 774.624 435.712 782.249 405.559C784.675 396.028 786.582 386.323 788.141 376.619C792.3 351.491 795.073 326.016 798.712 301.582C804.604 262.417 816.042 227.411 837.704 196.218C852.607 174.902 875.309 156.186 902.343 152.027C940.988 146.135 975.994 163.985 1009.09 175.422C1011.69 176.289 1014.29 177.155 1016.89 178.022C1056.75 190.499 1098.34 194.658 1137.85 182.008C1179.96 168.664 1218.78 133.138 1226.58 85.6551" stroke="white" stroke-miterlimit="10"/>
<path d="M110.553 476.61C133.081 444.724 158.902 415.437 186.976 388.749C199.453 376.965 212.797 365.528 228.221 357.903C259.414 342.479 294.419 344.559 327.172 352.877C336.184 355.13 345.022 357.903 353.513 360.849C389.905 373.673 424.738 391.349 457.144 412.664C489.204 433.806 518.664 459.974 554.536 477.997C583.997 492.727 615.883 505.551 648.289 510.576C676.19 514.908 705.477 512.482 729.912 498.792C734.417 496.366 738.576 493.593 742.562 490.301C767.343 470.891 780.687 440.738 788.659 409.718C791.258 399.84 793.164 389.962 794.897 380.084C799.403 354.437 802.869 328.269 807.375 303.488C814.653 263.456 828.17 228.277 851.565 197.084C866.642 177.155 888.65 159.132 914.991 154.8C952.423 148.735 986.736 164.678 1018.8 174.209C1021.39 174.902 1023.82 175.769 1026.42 176.289C1065.07 186.686 1105.1 188.419 1142.36 174.729C1182.04 160.172 1218.26 124.82 1224.67 78.5499" stroke="white" stroke-miterlimit="10"/>
<path d="M116.795 488.914C138.803 457.721 164.278 429.127 192.179 403.306C204.483 391.869 217.653 380.778 232.903 373.326C263.403 358.249 297.542 359.462 329.775 366.567C338.613 368.474 347.278 370.9 355.77 373.499C391.642 384.937 426.301 401.053 458.534 420.982C490.42 440.738 519.881 465.346 555.233 482.676C585.56 497.406 618.139 510.749 651.412 516.295C680.006 520.974 709.986 518.721 735.287 505.031C739.793 502.605 744.125 499.659 748.284 496.539C773.759 476.783 787.449 445.937 795.767 414.224C798.367 404.173 800.446 393.948 802.353 383.897C807.205 357.729 811.364 330.868 816.736 305.567C825.401 264.67 840.998 229.144 866.299 197.951C881.549 179.235 903.037 162.079 928.512 157.746C964.904 151.507 998.177 165.544 1029.54 173.343C1031.97 174.036 1034.57 174.556 1037 175.076C1074.6 183.221 1112.73 182.874 1147.73 167.971C1185.16 152.201 1218.44 117.022 1223.63 72.1381" stroke="white" stroke-miterlimit="10"/>
<path d="M123.033 501.391C144.522 470.718 169.65 442.817 197.204 417.863C209.508 406.772 222.332 396.028 237.235 388.749C267.042 374.019 300.488 374.192 332.028 380.258C340.693 381.991 349.357 383.897 357.676 386.323C393.201 396.374 427.34 411.104 459.4 429.474C491.113 447.843 520.573 470.891 555.406 487.528C586.599 502.431 619.699 516.122 653.838 522.014C682.952 527.039 713.972 525.133 739.793 511.269C744.472 508.843 748.977 505.897 753.31 502.605C779.651 482.502 793.514 450.962 802.352 418.383C805.125 408.158 807.378 397.587 809.284 387.363C814.483 360.502 819.335 333.295 825.401 307.3C835.452 265.536 852.955 229.664 880.162 198.644C895.585 180.968 916.554 164.851 941.162 160.346C976.341 154.107 1008.92 166.238 1039.25 172.13C1041.67 172.649 1044.1 172.996 1046.53 173.343C1082.92 179.408 1119.48 176.809 1152.24 160.692C1187.24 143.709 1217.74 108.703 1221.73 65.0329" stroke="white" stroke-miterlimit="10"/>
<path d="M129.441 513.869C150.41 483.889 175.191 456.681 202.399 432.42C214.53 421.675 227.18 411.451 241.737 404.173C270.851 389.789 303.43 389.096 334.45 393.948C342.942 395.334 351.433 397.067 359.578 398.974C394.584 407.639 428.55 420.809 460.436 437.965C491.976 454.775 521.61 476.437 555.749 492.207C587.982 507.11 621.601 521.494 656.607 527.732C686.414 533.105 718.127 531.545 744.814 517.508C749.667 514.909 754.172 512.136 758.678 508.843C785.712 488.394 799.923 456.161 809.107 422.889C812.053 412.317 814.306 401.746 816.559 391.175C822.278 363.795 827.65 335.894 834.582 309.38C846.019 266.749 865.428 230.53 894.542 199.51C909.965 183.047 930.414 167.624 954.329 163.118C988.468 156.706 1020.18 166.931 1049.64 171.09C1051.89 171.436 1054.32 171.783 1056.57 171.956C1091.93 175.769 1126.58 171.09 1157.26 153.76C1190.01 135.391 1217.74 100.732 1220.34 58.4477" stroke="white" stroke-miterlimit="10"/>
<path d="M135.682 526.346C156.304 496.886 180.565 470.372 207.426 446.977C219.383 436.579 231.861 426.701 246.244 419.596C274.838 405.386 306.551 403.826 336.878 407.639C345.196 408.678 353.514 410.065 361.659 411.798C396.145 419.076 429.764 430.86 461.651 446.457C493.191 461.88 522.651 481.982 556.27 497.059C589.37 511.963 623.682 526.866 659.381 533.625C689.881 539.343 722.461 537.957 749.668 523.92C754.694 521.32 759.373 518.374 763.879 515.082C791.606 494.46 806.163 461.36 815.694 427.221C818.64 416.477 821.239 405.559 823.492 394.815C829.558 366.914 835.623 338.32 843.421 311.286C856.245 267.789 877.387 231.223 908.58 200.377C924.004 184.954 944.106 170.57 967.154 166.064C1000.08 159.479 1030.93 167.797 1059.52 170.05C1061.77 170.223 1064.03 170.397 1066.28 170.397C1100.42 171.956 1133.52 165.025 1161.94 146.655C1192.27 127.073 1217.22 92.587 1218.61 51.5159" stroke="white" stroke-miterlimit="10"/>
<path d="M141.922 538.823C162.024 510.056 185.939 484.235 212.453 461.533C224.237 451.482 236.715 441.951 250.578 435.019C278.479 421.156 309.326 418.729 339.132 421.329C347.451 422.022 355.595 423.062 363.567 424.448C397.533 430.34 430.806 440.565 462.519 454.775C493.885 468.812 523.519 487.355 556.445 501.738C590.411 516.641 625.417 532.065 661.982 539.17C693.002 545.235 726.448 544.195 754.522 529.985C759.548 527.386 764.573 524.44 769.079 520.974C797.673 500.005 812.403 466.212 822.281 431.207C825.4 420.116 828 409.025 830.426 398.107C836.838 369.513 843.596 340.4 852.261 313.019C866.471 268.655 889.346 231.57 922.619 201.07C938.216 186.86 957.798 173.343 979.98 168.664C1011.87 162.078 1041.85 168.317 1069.57 168.837C1071.83 168.837 1073.91 168.837 1076.16 168.837C1109.26 168.317 1140.45 159.132 1166.79 139.55C1194.87 118.755 1216.88 84.442 1217.05 44.7573" stroke="white" stroke-miterlimit="10"/>
<path d="M148.334 551.301C167.916 523.053 191.485 497.926 217.652 476.264C229.263 466.559 241.567 457.548 255.084 450.616C282.292 437.099 312.272 433.806 341.559 435.192C349.704 435.539 357.675 436.406 365.474 437.445C398.92 441.778 432.019 450.789 463.559 463.44C494.752 475.917 524.386 492.9 556.792 506.764C591.798 521.667 627.323 537.61 664.582 545.235C696.295 551.647 730.607 550.781 759.201 536.57C764.4 533.971 769.426 531.025 774.278 527.559C803.565 506.244 818.815 471.585 829.039 436.059C832.332 424.795 834.931 413.53 837.531 402.266C844.289 373.153 851.741 343.346 861.272 315.445C877.042 270.042 901.477 232.437 936.829 202.283C952.426 189.113 971.488 176.635 992.977 171.956C1023.65 165.198 1052.76 169.703 1079.63 168.317C1081.7 168.144 1083.78 168.144 1086.04 167.797C1117.92 165.024 1147.56 153.76 1171.65 132.965C1197.29 110.956 1216.7 76.817 1215.32 38.5186" stroke="white" stroke-miterlimit="10"/>
<path d="M154.57 563.778C173.633 536.224 196.854 511.789 222.676 490.82C234.113 481.462 246.244 472.798 259.588 466.212C286.102 452.869 315.389 448.709 343.982 449.056C351.954 449.229 359.752 449.576 367.551 450.269C400.65 453.215 433.23 460.84 464.596 471.931C495.616 483.022 525.423 498.445 557.136 511.616C593.008 526.519 629.227 542.982 667.352 550.954C699.759 557.713 734.764 557.193 764.225 542.809C769.597 540.21 774.796 537.09 779.648 533.624C809.801 511.962 825.225 476.61 835.796 440.218C839.088 428.781 842.034 417.17 844.807 405.732C851.912 376.099 860.057 345.599 870.455 317.178C887.611 270.908 913.779 232.61 951.211 202.976C966.807 190.672 985.523 179.408 1006.15 174.556C1035.78 167.624 1064.03 170.223 1090.02 166.931C1092.1 166.757 1094.18 166.411 1096.09 166.064C1126.93 161.039 1154.66 147.695 1176.67 125.686C1200.06 102.465 1216.53 68.4988 1213.93 31.4135" stroke="white" stroke-miterlimit="10"/>
<path d="M160.809 576.255C179.351 549.221 202.226 525.48 227.701 505.377C238.965 496.366 250.922 488.048 263.92 481.636C289.914 468.639 318.161 463.613 346.235 462.747C354.033 462.573 361.832 462.573 369.457 462.92C402.036 464.479 434.269 470.545 465.636 480.249C496.482 489.954 526.289 503.818 557.482 516.295C594.394 531.198 631.133 548.181 669.951 556.673C702.878 563.778 738.923 563.431 769.077 549.221C774.622 546.622 779.821 543.502 784.846 540.036C815.693 518.028 831.463 481.982 842.381 444.897C845.847 433.113 848.792 421.329 851.739 409.718C859.364 379.391 867.855 348.545 879.293 319.431C897.835 272.295 925.389 233.13 965.247 204.016C980.671 192.752 999.04 182.527 1018.97 177.502C1047.39 170.397 1074.94 171.09 1099.9 166.064C1101.8 165.718 1103.88 165.198 1105.79 164.678C1135.42 157.573 1161.59 141.803 1181.17 118.928C1202.14 94.4932 1215.83 60.7005 1212.02 25.0016" stroke="white" stroke-miterlimit="10"/>
<path d="M167.049 588.559C185.072 562.218 207.6 539.17 232.728 519.761C243.819 511.096 255.603 503.298 268.427 496.886C293.728 484.235 321.282 478.17 348.663 476.437C356.288 475.917 363.913 475.744 371.538 475.744C403.597 475.917 435.657 480.596 466.85 488.914C497.524 497.059 527.504 509.363 558.004 521.32C595.956 536.051 633.214 553.9 672.899 562.738C706.518 570.19 743.43 570.19 774.104 555.806C779.649 553.207 785.195 550.088 790.22 546.448C821.933 524.093 837.876 487.355 849.141 449.403C852.78 437.445 855.899 425.315 858.845 413.531C866.817 382.684 876.002 351.144 888.306 321.511C908.235 273.508 937.348 233.303 979.459 205.056C994.882 194.658 1012.91 185.473 1031.97 180.621C1059.35 173.516 1085.86 172.303 1110.12 165.371C1112.03 164.851 1113.94 164.331 1115.84 163.638C1144.44 154.28 1168.7 136.431 1186.2 112.343C1204.92 86.6949 1215.83 53.0755 1210.64 18.5897" stroke="white" stroke-miterlimit="10"/>
<path d="M173.461 601.036C191.137 575.215 213.146 553.034 237.927 534.318C249.018 525.999 260.629 518.548 272.933 512.309C297.541 499.832 324.228 493.073 351.089 490.127C358.541 489.261 365.992 488.741 373.444 488.394C404.984 487.181 436.697 490.301 467.717 497.232C498.39 503.991 528.197 514.562 558.177 525.999C596.996 540.556 634.947 559.099 675.325 568.284C709.638 576.082 747.243 576.429 778.783 561.872C784.502 559.272 790.047 556.153 795.246 552.34C827.652 529.639 843.942 492.207 855.553 453.389C859.192 441.258 862.485 428.954 865.604 416.823C873.922 385.457 883.8 353.224 896.797 323.244C918.113 274.374 948.786 232.956 993.15 205.749C1008.75 196.218 1026.25 188.246 1044.45 183.221C1070.61 175.942 1096.43 172.823 1119.66 163.985C1121.56 163.292 1123.29 162.598 1125.2 161.732C1152.58 150.121 1175.28 130.192 1190.53 104.891C1206.82 78.0301 1214.97 44.584 1208.56 11.4846" stroke="white" stroke-miterlimit="10"/>
<path d="M179.699 613.514C196.855 588.386 218.517 566.724 242.952 548.874C253.87 541.076 265.307 533.798 277.265 527.732C301.18 515.602 327.174 507.803 353.342 503.818C360.62 502.605 368.072 501.738 375.35 501.218C406.37 498.619 437.91 500.352 468.756 505.724C499.256 511.096 529.237 520.107 558.524 530.852C598.382 545.409 636.853 564.471 678.098 574.176C713.103 582.32 751.575 582.84 783.635 568.284C789.527 565.684 795.246 562.392 800.618 558.752C833.89 535.877 850.354 497.579 862.484 458.067C866.297 445.59 869.589 433.113 873.055 420.809C881.72 388.749 892.291 355.996 906.155 325.496C928.857 275.76 960.916 232.956 1007.71 206.789C1023.3 198.124 1040.29 191.365 1057.79 186.167C1082.92 178.715 1107.7 173.689 1130.23 163.118C1131.96 162.252 1133.69 161.385 1135.43 160.519C1161.77 146.828 1182.56 124.647 1195.73 98.1324C1209.77 69.8852 1214.97 36.7857 1207.34 5.07257" stroke="white" stroke-miterlimit="10"/>
<path d="M185.936 625.991C224.58 568.977 288.18 531.372 355.592 517.681C423.004 503.991 493.882 512.829 558.868 535.704C599.592 550.088 638.757 569.843 680.695 579.894C722.806 589.946 770.115 589.252 805.814 564.818C850.525 534.318 865.428 476.437 879.985 424.275C903.9 338.493 942.371 247.34 1021.91 207.482C1061.6 187.553 1107.87 182.701 1145.47 158.959C1197.46 126.206 1223.46 57.0613 1205.95 -1.85925" stroke="white" stroke-miterlimit="10"/>
<path d="M-175.382 373.499C-182.66 314.579 -124.433 264.843 -65.8589 255.658C-7.11167 246.473 51.6356 265.363 109.863 277.493C168.09 289.624 233.423 293.61 281.946 259.471C343.985 215.8 358.369 123.953 422.315 82.8823C472.051 50.8226 536.864 60.5271 587.812 84.2686C616.58 97.7857 641.188 120.314 668.742 136.084C793.688 207.655 802.179 353.743 908.409 375.405C1023.3 398.974 1085.69 342.999 1107.53 304.008C1135.25 254.272 1181.7 124.993 1068.19 35.226C1022.09 -1.33941 976.515 -40.1577 942.549 -88.1606C891.773 -160.078 892.12 -269.948 957.106 -329.388C1001.64 -370.113 1070.09 -385.016 1100.25 -437.178C1120.52 -472.357 1117.75 -517.587 1100.25 -554.153C1082.74 -590.718 1052.24 -619.658 1019.32 -643.227" stroke="white" stroke-miterlimit="10"/>
<path d="M-172.607 376.445C-177.633 315.792 -119.752 263.456 -59.4449 253.059C-0.524389 242.834 59.2626 261.55 117.49 275.067C175.024 288.238 238.797 294.303 287.146 263.283C349.013 223.598 366.343 136.257 430.115 95.8794C480.891 63.8197 544.664 69.7118 596.826 90.5073C626.806 102.465 653.32 123.78 682.261 139.723C804.607 207.482 814.659 348.891 918.636 370.38C1030.41 393.428 1092.45 340.4 1114.98 302.101C1143.57 253.578 1187.76 129.152 1080.49 40.4248C1036.3 3.85938 992.46 -35.8253 959.014 -83.4816C909.625 -153.666 909.278 -259.723 970.625 -318.644C1013.08 -359.368 1078.93 -376.005 1109.09 -427.474C1129.71 -462.653 1128.5 -507.363 1113.25 -544.275C1097.82 -581.533 1069.75 -612.033 1037.86 -637.335" stroke="white" stroke-miterlimit="10"/>
<path d="M-170.011 379.391C-172.784 317.005 -115.25 262.07 -53.0365 250.459C6.23061 239.368 67.0574 257.911 125.111 272.468C181.952 286.678 243.992 294.823 292.342 266.749C353.862 230.877 374.311 148.215 438.083 108.357C489.899 76.1237 552.805 78.5499 606.007 96.3994C637.2 106.797 665.794 126.899 695.947 143.016C815.522 207.309 827.306 343.692 929.03 364.834C1037.51 387.363 1099.21 337.28 1122.6 299.675C1151.89 252.539 1194 132.618 1092.97 44.9305C1050.68 8.19182 1008.4 -32.1861 975.647 -79.6691C927.817 -148.121 926.604 -250.365 984.312 -308.766C1024.52 -349.144 1087.94 -367.34 1117.92 -418.289C1138.89 -453.641 1139.24 -497.658 1126.07 -534.744C1112.72 -572.695 1086.9 -604.755 1056.4 -631.789" stroke="white" stroke-miterlimit="10"/>
<path d="M-167.411 382.337C-167.93 318.391 -110.743 260.857 -46.7967 247.86C12.817 235.729 74.5102 254.098 132.738 270.042C188.885 285.465 249.366 295.343 297.542 270.562C358.889 238.675 382.11 160.519 445.883 121.354C498.738 88.9476 560.605 87.7345 615.193 102.638C647.599 111.476 678.099 130.365 709.639 146.828C826.44 207.655 840.131 339.013 939.429 359.982C1044.62 381.991 1105.97 335.028 1130.23 297.942C1160.38 252.019 1200.41 136.777 1105.45 50.3026C1064.9 13.3907 1024.69 -27.6804 992.111 -74.8168C946.014 -141.709 943.761 -239.968 997.83 -297.675C1036.13 -338.573 1096.95 -358.675 1126.93 -408.758C1148.25 -444.457 1149.98 -487.78 1139.07 -525.039C1127.8 -563.511 1104.41 -597.303 1075.12 -626.07" stroke="white" stroke-miterlimit="10"/>
<path d="M-164.811 385.283C-163.078 319.604 -106.237 259.644 -40.5575 245.26C19.4028 232.263 81.9625 250.286 140.19 267.442C195.645 283.905 254.565 295.863 302.395 274.201C363.395 246.3 389.736 172.823 453.508 134.178C507.23 101.598 568.404 96.7459 624.031 108.703C657.651 115.982 690.23 133.658 722.983 150.294C836.839 207.828 852.435 334.161 949.307 354.61C1051.38 376.098 1112.21 332.081 1137.33 295.689C1168.18 251.152 1206.13 140.243 1117.58 55.1549C1078.93 18.0696 1040.29 -23.8679 1008.4 -70.4845C963.864 -135.817 960.745 -230.09 1011.17 -287.277C1047.39 -328.348 1105.79 -350.01 1135.6 -399.4C1157.26 -435.099 1160.73 -477.903 1151.89 -515.334C1142.71 -554.673 1121.56 -589.852 1093.66 -620.352" stroke="white" stroke-miterlimit="10"/>
<path d="M-162.211 388.229C-158.225 320.817 -101.557 258.257 -34.1454 242.661C25.9882 228.624 89.761 246.473 147.988 265.016C202.75 282.519 260.111 296.729 307.767 278.013C368.594 254.098 397.881 185.127 461.48 147.175C516.242 114.422 576.549 105.757 633.216 115.115C668.222 120.834 702.535 137.297 736.674 154.107C847.583 208.522 865.086 329.482 959.705 349.758C1058.48 370.726 1118.96 329.655 1145.13 293.956C1176.67 250.806 1212.72 144.229 1130.23 60.5271C1093.49 23.0952 1056.58 -19.3622 1025.21 -65.8055C982.234 -129.405 978.248 -220.039 1025.04 -276.36C1059.18 -317.431 1114.98 -340.826 1144.79 -389.522C1166.79 -425.394 1171.82 -467.678 1165.06 -505.283C1157.96 -545.315 1139.07 -582.053 1112.55 -614.286" stroke="white" stroke-miterlimit="10"/>
<path d="M-159.439 391.175C-153.201 322.03 -96.8797 257.044 -27.7347 240.061C32.7455 225.158 97.3848 242.661 155.612 262.417C209.68 280.959 265.308 297.249 312.965 281.479C373.618 261.55 405.851 197.257 469.451 159.652C525.252 126.726 584.866 114.249 642.4 120.834C678.619 124.993 714.837 140.243 750.536 157.226C858.326 208.695 878.082 324.11 970.275 344.039C1065.59 364.834 1125.72 326.709 1152.76 291.53C1184.99 249.593 1219.13 147.348 1142.7 65.0328C1107.7 27.4276 1072.69 -15.723 1041.85 -61.8197C1000.43 -123.686 995.576 -210.507 1038.73 -266.309C1070.79 -307.553 1124.16 -332.508 1153.8 -380.51C1175.98 -416.556 1182.74 -458.32 1178.23 -496.099C1173.38 -536.823 1156.74 -575.295 1131.44 -609.087" stroke="white" stroke-miterlimit="10"/>
<path d="M-156.838 394.121C-148.346 323.417 -92.3719 255.831 -21.4939 237.462C39.3328 221.692 105.012 238.675 163.066 259.99C216.441 279.4 270.509 297.942 317.992 285.292C378.299 269.348 413.652 209.561 477.078 172.649C533.919 139.55 592.666 123.26 651.24 127.073C688.845 129.499 726.97 143.709 763.882 160.865C868.553 209.388 890.388 319.258 980.328 339.013C1072.52 358.942 1132.31 323.937 1160.21 289.451C1193.14 248.726 1225.37 150.641 1155.18 70.0584C1122.08 32.1066 1088.81 -11.5639 1058.31 -57.314C1018.28 -117.621 1012.56 -200.629 1052.25 -255.564C1082.05 -296.982 1133 -323.496 1162.64 -370.806C1185.16 -407.025 1193.66 -448.269 1191.06 -486.048C1188.28 -527.638 1173.9 -567.496 1149.81 -603.022" stroke="white" stroke-miterlimit="10"/>
<path d="M-154.24 397.067C-143.496 324.63 -87.868 254.618 -15.0838 234.863C46.0896 218.226 112.635 234.863 170.862 257.564C223.544 278.013 276.053 298.462 323.363 289.104C383.496 277.147 421.795 222.039 485.221 185.647C543.102 152.547 601.156 132.272 660.596 133.485C699.414 134.351 739.446 147.348 777.744 164.678C879.122 210.428 903.21 314.752 990.898 333.988C1079.97 353.397 1139.24 321.337 1168.01 287.544C1201.45 248.206 1232.13 154.107 1167.83 75.2572C1136.47 36.7856 1105.1 -7.23149 1075.12 -52.635C1036.65 -111.209 1030.06 -190.752 1066.11 -244.82C1093.84 -286.584 1142.36 -314.485 1171.82 -361.275C1194.69 -397.667 1204.74 -438.218 1204.4 -476.343C1203.88 -518.627 1191.57 -560.045 1168.87 -597.303" stroke="white" stroke-miterlimit="10"/>
<path d="M-151.641 400.013C-138.643 325.843 -83.3621 253.405 -8.84497 232.263C52.675 214.76 120.087 231.05 178.314 254.965C230.303 276.454 281.252 298.982 328.388 292.743C388.175 284.772 429.593 234.169 493.019 198.471C551.94 165.198 609.127 140.936 669.608 139.55C709.812 138.684 751.577 150.814 791.261 168.144C889.52 211.121 915.688 309.726 1001.12 328.789C1086.9 347.678 1145.82 318.564 1175.46 285.292C1209.6 247.167 1238.54 156.88 1180.14 80.1096C1150.68 41.2913 1120.87 -3.24568 1091.58 -48.4759C1054.67 -105.317 1047.05 -181.22 1079.63 -234.595C1105.27 -276.533 1151.37 -305.993 1180.66 -352.09C1203.88 -388.482 1215.66 -428.687 1217.22 -466.985C1218.96 -510.136 1208.9 -552.94 1187.42 -591.931" stroke="white" stroke-miterlimit="10"/>
<path d="M-149.041 402.959C-133.791 327.056 -78.683 252.365 -2.60616 229.664C59.2604 211.294 127.712 227.064 185.94 252.539C237.235 274.894 286.451 299.675 333.414 296.556C393.028 292.397 437.392 246.647 500.645 211.294C560.605 177.848 616.926 149.601 678.446 145.615C719.864 143.016 763.534 154.107 804.605 171.61C899.571 211.988 928.165 304.701 1011.17 323.417C1093.66 341.786 1152.06 315.618 1182.91 283.039C1217.74 246.127 1244.95 159.652 1192.61 84.7885C1165.06 45.4504 1136.99 0.566777 1108.22 -44.3168C1072.87 -99.4248 1064.2 -171.862 1093.32 -224.198C1116.88 -266.482 1160.38 -297.328 1189.67 -342.732C1213.24 -379.297 1226.75 -418.982 1230.39 -457.28C1234.38 -501.124 1226.41 -545.488 1206.3 -586.212" stroke="white" stroke-miterlimit="10"/>
<path d="M-146.27 405.905C-128.767 328.442 -74.0052 251.152 3.80454 227.064C66.0177 207.828 135.336 223.252 193.563 249.939C244.339 273.334 291.822 300.195 338.612 300.022C397.879 299.848 445.362 258.777 508.615 223.945C569.615 190.499 625.243 158.093 687.629 151.681C730.433 147.175 775.664 157.573 818.294 175.249C909.968 213.027 940.814 299.848 1021.57 318.391C1100.94 336.241 1158.82 313.019 1190.53 281.133C1225.89 245.607 1251.88 162.598 1205.09 89.9873C1179.44 50.1293 1153.1 4.89917 1124.68 -39.6378C1090.72 -93.0129 1081.18 -162.158 1106.83 -213.453C1128.15 -256.084 1169.39 -288.317 1198.51 -333.027C1222.42 -369.766 1237.67 -408.931 1243.22 -447.403C1249.63 -492.113 1243.74 -537.863 1224.85 -580.32" stroke="white" stroke-miterlimit="10"/>
<path d="M-143.67 408.851C-123.914 329.655 -69.4994 249.939 10.2167 224.465C72.6031 204.363 143.134 219.266 201.189 247.513C251.271 271.775 297.194 300.888 343.811 303.834C402.905 307.647 453.334 271.081 516.413 236.942C578.453 203.323 633.215 166.931 696.641 157.919C740.658 151.681 787.794 161.212 831.812 178.888C920.192 214.24 953.292 295.169 1031.79 313.192C1107.87 330.695 1165.23 310.246 1197.99 279.053C1234.03 244.74 1258.64 165.371 1217.39 95.0129C1193.65 54.4617 1168.87 9.05829 1141.14 -35.3054C1108.74 -86.9475 1097.99 -152.627 1120.35 -202.882C1139.41 -245.86 1178.4 -279.652 1207.34 -323.496C1231.6 -360.408 1248.76 -399.053 1256.04 -437.698C1264.7 -483.101 1260.89 -530.411 1243.39 -574.602" stroke="white" stroke-miterlimit="10"/>
<path d="M-141.07 411.797C-119.062 330.868 -64.8202 248.899 16.4555 221.865C79.1885 201.07 150.586 215.28 208.814 244.914C258.203 270.042 302.393 301.408 349.01 307.473C407.757 315.272 461.306 283.385 524.385 249.766C587.465 216.147 641.36 175.422 705.826 163.985C751.056 156.013 800.099 164.678 845.502 182.354C930.417 215.28 965.943 290.317 1042.19 307.993C1114.98 324.976 1171.99 307.473 1205.61 276.973C1242.18 243.874 1265.74 167.797 1230.05 100.038C1208.38 58.7941 1185.16 13.2174 1157.95 -30.7998C1127.11 -80.8822 1115.15 -143.095 1134.21 -192.311C1151.02 -235.809 1187.59 -270.814 1216.53 -314.138C1241.14 -351.223 1260.03 -389.349 1269.38 -427.993C1280.47 -474.09 1278.57 -522.96 1262.28 -568.883" stroke="white" stroke-miterlimit="10"/>
<path d="M-138.471 414.743C-114.036 332.081 -60.3143 247.686 22.8676 219.266C85.9472 197.604 158.385 211.294 216.439 242.488C265.135 268.655 307.766 301.928 354.209 311.286C412.783 322.897 469.277 295.863 532.184 262.763C596.303 228.971 649.332 184.087 714.837 170.223C761.454 160.345 812.229 168.317 859.193 185.993C940.815 216.493 978.767 285.465 1052.59 302.795C1122.08 319.258 1178.58 304.701 1213.24 274.894C1250.32 243.008 1273.02 170.223 1242.52 104.891C1222.94 62.9533 1201.1 17.2032 1174.59 -26.4673C1145.13 -74.8168 1131.96 -133.737 1147.9 -181.914C1162.29 -225.757 1196.77 -262.149 1225.37 -304.78C1250.32 -342.039 1271.12 -379.644 1282.21 -418.462C1295.72 -465.425 1295.9 -515.681 1280.82 -563.337" stroke="white" stroke-miterlimit="10"/>
<path d="M-135.871 417.69C-109.357 333.468 -55.6352 246.647 29.1064 216.667C92.5326 194.311 165.837 207.482 224.064 239.888C272.24 266.922 313.138 302.448 359.408 314.925C417.635 330.522 477.249 308.167 540.155 275.414C605.315 241.621 657.477 192.578 724.022 176.289C771.852 164.505 824.36 171.956 872.883 189.459C951.039 217.706 991.417 280.439 1062.99 297.596C1129.19 313.539 1185.34 301.928 1221.03 272.814C1258.81 242.141 1280.65 172.649 1255.17 109.916C1237.84 67.1123 1217.4 21.3623 1191.23 -21.9617C1163.33 -68.5782 1148.77 -124.206 1161.59 -171.169C1173.55 -215.533 1205.96 -253.138 1234.38 -295.076C1259.68 -332.334 1282.21 -369.593 1295.38 -408.584C1311.32 -456.241 1313.4 -508.056 1299.71 -557.445" stroke="white" stroke-miterlimit="10"/>
<path d="M-133.1 420.636C-104.333 334.681 -50.9575 245.607 35.5171 214.067C99.2899 190.845 173.634 203.496 231.688 237.462C279.171 265.363 318.336 303.141 364.432 318.564C422.486 337.973 485.046 320.471 547.779 288.238C613.978 254.272 665.274 201.07 732.859 182.354C781.902 168.837 836.316 175.595 886.226 192.925C960.916 218.919 1003.72 275.414 1073.04 292.397C1136.12 307.647 1191.57 298.982 1228.31 270.735C1266.61 241.274 1287.93 174.902 1267.48 114.942C1252.57 71.2714 1233.16 25.5213 1207.69 -17.6293C1181.17 -62.5129 1165.41 -114.848 1175.11 -160.772C1184.64 -205.655 1214.97 -244.473 1243.21 -285.718C1268.86 -323.15 1293.3 -359.715 1308.2 -398.88C1326.57 -447.229 1330.56 -500.604 1318.25 -551.727" stroke="white" stroke-miterlimit="10"/>
<path d="M-130.5 423.582C-99.4801 335.894 -46.2783 244.567 41.7559 211.468C105.875 187.38 181.259 199.51 239.14 235.036C286.103 263.803 323.535 303.661 369.458 322.377C427.339 345.599 493.018 332.948 555.578 301.235C622.816 267.269 673.245 209.735 741.871 188.593C792.126 173.169 848.274 179.408 899.743 196.564C971.141 220.306 1016.37 270.562 1083.26 287.198C1143.05 301.928 1197.98 296.209 1235.76 268.655C1274.58 240.235 1295.55 177.155 1279.78 119.968C1267.48 75.4306 1249.11 29.6805 1224.15 -13.1236C1199.02 -56.2742 1181.87 -105.317 1188.63 -150.027C1195.39 -195.257 1223.98 -235.462 1252.05 -276.013C1278.05 -313.618 1304.39 -349.664 1321.02 -389.002C1341.82 -438.045 1347.89 -492.979 1336.79 -545.835" stroke="white" stroke-miterlimit="10"/>
<path d="M-127.9 426.528C-94.6276 337.107 -41.7724 243.354 48.168 208.868C112.634 184.087 189.057 195.351 246.938 232.436C293.208 262.07 329.08 304.181 374.83 326.016C432.365 353.224 501.163 345.252 563.723 314.059C632.001 280.093 681.564 218.226 751.229 194.831C802.697 177.502 860.578 183.394 913.607 200.203C981.539 221.865 1029.19 265.709 1093.83 282.172C1150.5 296.383 1204.74 293.437 1243.56 266.749C1282.9 239.542 1303.87 179.581 1292.43 124.993C1282.9 79.5897 1265.22 33.8396 1240.96 -8.61783C1217.39 -50.0355 1198.5 -95.7856 1202.49 -139.456C1206.65 -185.206 1233.16 -226.624 1261.24 -266.482C1287.58 -304.26 1315.83 -339.613 1334.37 -379.297C1357.59 -429.033 1365.56 -485.528 1355.86 -540.116" stroke="white" stroke-miterlimit="10"/>
<path d="M-125.301 429.474C-89.7752 338.493 -37.0933 242.314 54.4069 206.442C119.393 180.794 196.683 191.539 254.39 230.184C300.14 260.684 334.279 305.047 379.856 330.002C437.217 361.195 508.961 357.902 571.348 327.056C640.84 293.09 689.362 226.891 760.067 201.07C812.749 181.834 872.363 187.553 926.951 204.016C991.417 223.425 1041.5 261.03 1103.89 277.147C1157.26 290.837 1210.98 290.837 1250.84 264.843C1290.87 238.675 1311.84 182.181 1304.74 130.192C1298.32 84.0953 1280.99 38.3452 1257.43 -4.11222C1235.24 -43.7969 1214.79 -86.2544 1216.01 -128.885C1217.22 -174.982 1242.35 -217.613 1270.08 -257.124C1296.94 -294.902 1326.74 -329.735 1347.19 -369.593C1373.01 -419.849 1382.89 -478.076 1374.23 -534.397" stroke="white" stroke-miterlimit="10"/>
<path d="M-122.703 432.42C-84.7514 339.706 -32.4161 241.448 60.817 203.669C126.149 177.502 204.479 187.38 262.187 227.411C307.243 258.777 339.65 305.394 385.227 333.295C442.241 368.474 517.105 369.86 579.491 339.533C650.022 305.567 697.505 235.036 769.423 206.789C823.318 185.647 884.665 191.019 940.813 207.135C1001.99 224.465 1054.49 255.658 1114.45 271.601C1164.54 284.772 1217.91 287.544 1258.81 262.243C1299.36 237.289 1320.68 184.26 1317.56 134.698C1314.61 87.7345 1297.46 41.9844 1274.23 -0.12641C1253.44 -37.9049 1231.43 -77.0697 1229.87 -118.661C1228.14 -165.104 1251.53 -209.121 1279.26 -247.939C1306.47 -285.891 1338.18 -320.204 1360.53 -360.235C1388.78 -411.184 1400.57 -470.971 1393.29 -529.025" stroke="white" stroke-miterlimit="10"/>
<path d="M-119.926 435.366C-79.7212 340.92 -27.7325 240.235 67.0603 201.243C132.739 174.209 212.109 183.567 269.643 225.158C314.18 257.391 344.853 306.087 390.257 337.28C447.098 376.272 524.907 382.337 587.121 352.704C658.692 318.564 705.308 243.874 778.266 213.374C833.374 190.326 896.454 195.698 954.161 211.121C1011.87 226.544 1066.8 251.326 1124.51 266.749C1171.3 279.4 1224.16 284.945 1266.09 260.51C1307.16 236.596 1329 187.553 1329.69 140.07C1330.39 92.5868 1313.06 46.4902 1290.53 4.72591C1271.12 -31.3196 1247.38 -67.0185 1243.22 -107.743C1238.37 -154.533 1260.37 -199.936 1287.93 -238.061C1315.48 -276.186 1349.1 -309.806 1373.19 -350.184C1403.86 -401.653 1417.55 -463.172 1411.66 -522.96" stroke="white" stroke-miterlimit="10"/>
<path d="M567.019 786.983C516.59 755.789 514.164 679.193 543.797 627.724C573.431 576.255 625.073 542.289 670.823 504.511C716.747 466.732 760.764 418.383 764.576 359.116C769.428 283.385 706.695 214.587 714.84 139.03C721.079 80.2828 769.082 35.7458 819.684 10.7912C848.278 -3.24577 881.204 -8.27135 910.838 -19.7089C1044.8 -72.3908 1164.02 12.6974 1247.55 -56.4476C1338.01 -131.311 1333.33 -215.013 1316.7 -256.257C1295.38 -309.113 1223.64 -426.261 1082.4 -394.028C1025.04 -380.857 966.292 -369.766 907.545 -373.405C819.684 -378.778 734.249 -447.923 728.531 -535.957C724.718 -596.264 755.911 -658.823 734.249 -715.144C719.693 -752.923 682.607 -779.091 643.096 -788.449C603.584 -797.806 561.993 -792.088 523.002 -781.17" stroke="white" stroke-miterlimit="10"/>
<path d="M571.005 786.809C520.576 752.67 516.071 674.86 545.704 621.312C574.645 568.977 626.807 534.144 673.596 497.232C719.866 460.667 764.577 414.743 770.642 357.556C778.44 284.425 721.253 216.32 729.744 141.11C736.503 81.3225 781.213 35.3992 830.082 7.84518C858.156 -8.09802 891.429 -15.3765 921.929 -27.8537C1051.38 -80.7089 1167.84 -0.126416 1249.8 -67.5384C1337.84 -140.149 1335.24 -221.772 1319.64 -263.363C1299.71 -316.044 1230.4 -428.513 1094.01 -400.439C1037.69 -388.829 979.463 -379.471 921.236 -383.457C835.628 -389.002 752.793 -455.028 745.167 -539.769C739.969 -598.343 768.389 -660.21 747.074 -716.011C732.517 -754.136 696.991 -781.17 658.693 -792.434C620.048 -803.699 578.63 -800.926 538.946 -792.088" stroke="white" stroke-miterlimit="10"/>
<path d="M574.992 786.636C524.737 749.724 517.978 670.528 547.785 614.727C576.205 561.525 628.714 525.826 676.544 489.607C723.334 454.255 768.39 410.931 776.882 355.823C787.626 285.465 735.811 217.706 744.822 143.016C752.101 82.3624 793.345 34.8793 840.655 4.5526C868.382 -13.2969 901.828 -23.0014 933.368 -36.3452C1058.31 -89.3737 1172.17 -13.1236 1252.23 -78.976C1337.84 -149.334 1337.49 -228.877 1322.76 -270.641C1304.39 -322.976 1237.33 -430.94 1105.62 -407.198C1050.52 -397.147 992.635 -389.522 934.928 -393.681C851.572 -399.4 771.163 -462.306 761.805 -543.928C755.22 -600.943 780.694 -661.943 759.899 -717.051C745.515 -755.522 711.376 -783.423 674.291 -796.42C636.339 -809.764 595.095 -809.764 555.063 -803.005" stroke="white" stroke-miterlimit="10"/>
<path d="M578.977 786.463C528.721 746.778 519.883 666.196 549.69 608.141C577.591 554.073 630.619 517.508 679.315 482.155C726.452 448.016 772.202 407.118 782.946 354.09C796.463 286.331 750.193 219.266 759.551 144.922C767.35 83.402 805.128 34.3594 851.052 1.2599C878.259 -18.4958 912.052 -30.4532 944.631 -44.8368C1065.24 -97.6919 1176.15 -26.1208 1254.66 -90.4135C1337.84 -158.692 1339.57 -235.982 1325.88 -278.093C1309.07 -330.255 1244.26 -433.712 1117.41 -413.957C1063.34 -405.465 1005.98 -399.92 948.964 -404.079C867.861 -409.971 790.051 -469.758 778.787 -548.087C770.816 -603.542 793.344 -663.502 773.068 -718.264C758.685 -757.082 726.105 -785.676 690.06 -800.579C652.974 -816.003 611.903 -818.775 571.352 -814.096" stroke="white" stroke-miterlimit="10"/>
<path d="M582.787 786.29C532.705 743.832 521.614 661.863 551.594 601.73C578.975 546.795 632.35 509.363 682.259 474.704C729.742 441.778 776.012 403.479 789.182 352.53C805.645 287.371 764.921 220.826 774.625 147.002C782.944 84.6152 817.429 33.8395 861.62 -1.85941C888.481 -23.5214 922.447 -37.9049 956.066 -52.9816C1072.35 -105.664 1180.48 -38.7714 1257.25 -101.331C1337.84 -167.357 1341.82 -242.394 1329.17 -284.851C1313.75 -336.84 1251.19 -435.792 1129.19 -420.195C1075.99 -413.263 1019.32 -409.451 962.825 -413.783C883.975 -419.849 808.591 -476.69 795.594 -551.727C786.236 -605.622 805.992 -664.715 786.236 -718.957C771.853 -758.122 740.659 -787.582 706 -804.392C669.608 -821.895 628.884 -827.44 587.639 -824.841" stroke="white" stroke-miterlimit="10"/>
<path d="M586.774 785.943C536.692 740.539 523.521 657.357 553.502 594.971C580.362 539.343 634.084 500.871 685.033 467.079C732.863 435.366 779.999 399.493 795.249 350.624C814.831 288.238 779.306 222.212 789.53 148.735C798.368 85.4816 829.388 32.9731 872.019 -5.15199C898.36 -28.7202 932.672 -45.3566 967.332 -61.4731C1079.28 -113.808 1184.47 -51.7685 1259.51 -112.769C1337.66 -176.541 1343.73 -249.499 1332.12 -292.303C1318.08 -343.945 1257.78 -438.738 1140.8 -426.954C1088.64 -421.755 1032.49 -419.502 976.516 -424.181C899.92 -430.42 826.962 -484.141 812.232 -555.886C801.488 -608.221 818.297 -666.448 799.062 -720.17C784.851 -759.681 755.044 -790.181 721.598 -808.551C686.073 -828.133 645.522 -836.451 603.757 -835.932" stroke="white" stroke-miterlimit="10"/>
<path d="M590.76 785.77C540.851 737.593 525.428 653.025 555.408 588.386C581.749 531.891 635.817 492.38 687.806 459.454C735.982 428.954 783.638 395.681 801.315 348.718C823.843 288.931 793.863 223.598 804.434 150.468C813.792 86.3481 841.346 32.1066 882.417 -8.61792C908.411 -34.2657 942.897 -52.9816 978.423 -70.1379C1086.04 -121.953 1188.28 -64.9391 1261.76 -124.379C1337.49 -186.073 1345.64 -256.777 1335.07 -299.755C1322.59 -351.05 1264.19 -441.857 1152.24 -433.886C1100.94 -430.246 1045.49 -429.9 990.207 -434.752C916.036 -441.164 845.158 -491.766 828.869 -560.391C816.738 -611.167 830.775 -668.355 811.886 -721.73C797.675 -761.588 769.428 -792.954 737.195 -813.23C702.363 -834.892 661.985 -845.983 619.874 -847.542" stroke="white" stroke-miterlimit="10"/>
<path d="M594.746 785.596C545.01 734.647 527.334 648.693 557.488 581.974C583.309 524.613 637.724 484.235 690.752 452.175C739.448 422.715 787.624 392.215 807.553 347.331C833.028 290.317 808.42 225.331 819.511 152.72C829.389 87.7344 853.477 31.7599 893.161 -11.564C918.636 -39.2913 953.468 -60.0868 990.034 -78.1095C1093.49 -129.232 1192.79 -77.4163 1264.53 -135.297C1337.84 -194.738 1347.89 -263.189 1338.53 -306.513C1327.44 -357.635 1269.56 -458.494 1164.37 -439.951C1114.63 -431.286 1059.18 -439.258 1004.42 -444.283C932.5 -450.869 864.048 -498.525 846.025 -563.857C832.335 -613.073 843.599 -669.394 825.23 -722.076C811.193 -762.281 784.332 -794.687 753.139 -816.522C719.173 -840.437 678.968 -854.128 636.164 -857.767" stroke="white" stroke-miterlimit="10"/>
<path d="M598.56 785.423C548.824 731.701 529.242 644.534 559.222 575.389C584.523 517.335 639.284 475.917 693.353 444.724C742.395 416.476 791.091 388.403 813.447 345.598C841.694 291.184 822.804 226.891 834.242 154.627C844.64 88.7742 865.089 30.8935 903.387 -14.6833C928.341 -44.4901 963.521 -67.3651 1001.13 -86.4277C1100.42 -136.857 1196.6 -90.2402 1266.79 -146.561C1337.67 -203.749 1349.8 -270.121 1341.48 -313.792C1331.77 -364.567 1276.32 -462.826 1175.81 -446.709C1126.94 -438.911 1072.18 -449.482 1017.94 -454.681C948.271 -461.44 882.072 -505.977 862.489 -568.016C847.412 -615.846 855.904 -671.127 838.055 -723.289C824.018 -763.841 798.716 -797.287 768.736 -820.682C735.463 -846.849 695.605 -863.139 652.281 -868.858" stroke="white" stroke-miterlimit="10"/>
<path d="M602.542 785.25C552.98 728.582 531.144 640.201 561.298 568.977C586.079 510.056 641.187 467.599 696.295 437.272C745.511 410.065 795.074 384.763 819.682 344.039C850.875 292.397 837.531 228.451 849.315 156.706C860.233 89.9873 877.216 30.2003 913.955 -17.8026C938.389 -49.689 974.088 -74.6435 1012.56 -94.7458C1107.7 -144.308 1200.93 -103.064 1269.21 -157.652C1337.66 -212.76 1351.87 -276.706 1344.59 -320.723C1336.28 -371.153 1283.07 -466.638 1187.59 -452.948C1139.41 -446.016 1085.52 -459.013 1031.97 -464.386C964.557 -471.144 900.611 -512.908 879.469 -571.656C862.832 -617.926 868.724 -672.34 851.221 -723.983C837.358 -764.88 813.443 -799.366 784.676 -824.494C752.27 -852.915 712.412 -871.804 668.741 -879.602" stroke="white" stroke-miterlimit="10"/>
<path d="M606.53 784.903C556.968 725.463 533.226 635.695 563.206 562.218C587.641 502.604 642.749 459.107 699.07 429.647C748.633 403.653 798.888 380.778 825.749 342.133C859.889 293.09 851.917 229.837 864.221 158.439C875.658 90.8538 889.002 29.1606 924.355 -21.2685C948.269 -55.2344 984.315 -82.0953 1023.65 -103.237C1114.63 -151.933 1204.75 -116.061 1271.47 -169.09C1337.49 -221.945 1353.78 -283.811 1347.54 -328.175C1340.61 -378.431 1289.84 -470.798 1199.2 -459.88C1151.55 -454.161 1098.69 -469.238 1045.66 -474.957C980.502 -481.888 918.636 -520.707 896.107 -575.988C877.911 -620.872 881.031 -674.073 864.048 -725.369C850.357 -766.613 827.829 -802.139 800.102 -828.826C768.388 -859.5 728.877 -880.988 684.513 -890.866" stroke="white" stroke-miterlimit="10"/>
<path d="M610.518 784.73C561.129 722.516 535.135 631.363 565.288 555.633C589.203 495.153 644.657 450.616 702.018 422.022C751.927 397.067 802.703 376.965 831.99 340.4C869.075 294.13 866.649 231.397 879.127 160.345C891.257 91.8936 900.788 28.1207 934.928 -24.5612C958.323 -60.6067 994.715 -89.5471 1035.09 -111.729C1121.91 -159.385 1209.08 -129.058 1274.07 -180.527C1337.67 -231.13 1355.86 -290.743 1350.84 -335.454C1345.29 -385.363 1296.94 -457.454 1210.99 -466.465C1163.85 -471.491 1112.04 -479.289 1059.53 -485.008C996.621 -492.113 936.834 -527.812 912.919 -579.974C892.99 -623.298 893.683 -675.633 877.047 -726.235C863.357 -768 842.388 -804.392 815.874 -832.812C785.027 -865.738 745.689 -889.827 700.805 -901.784" stroke="white" stroke-miterlimit="10"/>
<path d="M614.33 784.556C564.94 719.571 537.04 627.204 567.02 549.221C590.588 488.048 646.216 442.471 704.617 414.743C754.872 391.002 806.341 373.326 837.881 338.84C877.912 295.169 881.032 232.956 893.855 162.425C906.506 93.1067 912.398 27.4275 945.151 -27.5072C967.853 -65.8056 1004.94 -96.4789 1046.18 -119.874C1129.02 -166.49 1213.07 -141.709 1276.15 -191.618C1337.32 -239.968 1357.42 -297.502 1353.61 -342.559C1349.45 -392.121 1302.83 -461.093 1222.42 -473.05C1175.98 -479.982 1125.03 -489.167 1073.22 -495.232C1012.56 -502.337 954.682 -535.09 929.554 -583.96C907.893 -625.724 906.16 -677.193 890.043 -727.275C876.526 -769.386 856.944 -806.818 831.642 -836.798C801.662 -871.977 762.497 -898.665 716.921 -912.702" stroke="white" stroke-miterlimit="10"/>
<path d="M618.314 784.383C569.098 716.451 539.118 622.871 569.098 542.636C592.147 480.596 648.121 433.979 707.562 407.292C758.164 384.59 810.153 369.686 844.119 337.28C886.923 296.209 895.761 234.689 908.931 164.504C922.102 94.3197 924.354 26.7343 955.721 -30.6265C977.903 -71.0044 1015.33 -103.584 1057.62 -128.019C1136.47 -173.595 1217.22 -154.36 1278.74 -202.709C1337.49 -248.806 1359.67 -304.087 1356.9 -349.491C1353.95 -398.707 1309.42 -464.732 1234.21 -479.462C1188.46 -488.3 1138.37 -498.871 1087.08 -505.283C1028.68 -512.562 972.704 -542.369 946.363 -587.945C922.968 -628.323 918.636 -678.752 903.039 -728.315C889.522 -770.772 871.673 -809.417 847.238 -840.784C818.124 -878.389 778.959 -907.503 733.036 -923.619" stroke="white" stroke-miterlimit="10"/>
<path d="M622.3 784.037C573.084 713.332 541.197 618.539 571.004 535.877C593.706 473.144 649.68 425.314 710.334 399.493C761.283 377.831 813.965 365.701 850.184 335.201C895.934 296.902 910.317 235.902 923.834 166.064C937.698 95.013 935.965 25.5214 966.292 -34.2656C987.78 -76.723 1025.91 -111.209 1068.88 -136.857C1143.75 -181.22 1221.21 -167.703 1281.17 -214.32C1337.49 -258.164 1361.58 -311.366 1360.19 -357.116C1358.63 -406.158 1316 -469.238 1246.16 -486.394C1201.28 -497.485 1151.89 -509.096 1101.12 -515.681C1044.97 -522.96 990.9 -549.82 963.346 -592.278C938.218 -631.096 931.459 -680.659 916.209 -729.701C902.865 -772.505 886.402 -812.19 863.181 -845.29C835.107 -885.148 795.942 -916.861 749.499 -935.057" stroke="white" stroke-miterlimit="10"/>
<path d="M626.286 783.863C577.244 710.386 543.278 614.207 572.911 529.465C595.266 465.866 651.414 416.996 713.107 392.215C764.23 371.593 817.605 362.062 856.25 333.814C904.946 298.116 924.875 237.635 938.738 168.317C953.122 96.3994 947.75 24.8282 976.69 -37.2117C997.486 -81.922 1036.13 -118.141 1080.15 -145.002C1151.2 -188.326 1225.37 -180.354 1283.6 -225.411C1337.49 -267.175 1363.49 -317.951 1363.31 -364.047C1362.97 -412.743 1322.42 -473.224 1257.78 -492.806C1213.59 -506.15 1165.06 -518.8 1114.98 -525.732C1061.09 -533.184 1008.75 -556.752 980.156 -596.09C953.122 -633.176 944.111 -682.045 929.207 -730.568C916.037 -773.718 901.133 -814.616 878.951 -849.102C851.744 -891.386 812.752 -925.525 765.616 -945.801" stroke="white" stroke-miterlimit="10"/>
<path d="M630.098 783.69C581.228 707.267 545.183 610.048 574.816 522.88C596.652 458.587 653.146 408.505 715.879 384.59C767.348 365.008 821.416 358.076 862.314 331.908C913.783 298.809 939.431 239.022 953.641 169.877C968.717 97.0925 959.36 23.6151 987.087 -40.6776C1007.19 -87.4674 1046.53 -125.419 1091.41 -153.493C1158.48 -195.431 1229.35 -193.351 1285.85 -236.848C1337.32 -276.36 1365.22 -325.056 1366.26 -371.499C1367.3 -419.849 1328.83 -478.076 1269.39 -499.565C1226.06 -515.334 1178.23 -528.852 1128.67 -535.957C1077.2 -543.408 1026.25 -564.031 996.618 -600.249C967.678 -635.775 956.414 -683.605 941.857 -731.608C928.686 -775.105 915.516 -817.042 894.374 -853.261C868.206 -897.798 829.214 -934.537 781.558 -956.892" stroke="white" stroke-miterlimit="10"/>
<path d="M634.083 783.517C585.214 704.32 547.262 605.715 576.722 516.468C598.211 451.309 654.705 400.187 718.651 377.312C770.467 358.769 825.055 354.436 868.379 330.348C922.794 299.848 953.987 240.755 968.544 171.956C984.14 98.3055 970.97 22.9219 997.484 -43.797C1016.89 -92.6664 1057.1 -132.351 1102.67 -161.811C1165.93 -202.536 1233.34 -206.348 1288.27 -248.113C1337.14 -285.544 1367.12 -331.988 1369.38 -378.604C1371.63 -426.607 1335.58 -482.582 1281 -506.15C1238.71 -524.346 1191.4 -538.729 1142.36 -546.181C1093.32 -553.633 1044.1 -570.962 1013.43 -604.235C982.407 -638.028 969.064 -685.164 955.027 -732.647C942.03 -776.491 930.419 -819.468 910.143 -857.247C885.015 -904.21 845.851 -943.375 797.848 -967.81" stroke="white" stroke-miterlimit="10"/>
<path d="M638.069 783.343C589.373 701.375 549.342 601.556 578.802 509.883C599.944 444.03 656.612 391.695 721.771 369.687C773.933 352.184 829.214 350.624 874.791 328.616C932.152 300.715 968.891 242.141 983.794 173.862C1000.08 99.3453 982.928 22.0554 1008.4 -47.0896C1027.12 -98.0385 1068.02 -139.456 1114.46 -170.303C1173.9 -209.814 1237.85 -219.345 1291.22 -259.55C1337.66 -294.729 1369.55 -338.919 1373.02 -386.056C1376.48 -433.886 1342.86 -487.607 1293.3 -512.908C1251.54 -533.704 1204.75 -548.607 1156.4 -556.232C1109.43 -563.684 1061.78 -577.894 1030.24 -608.221C997.138 -640.107 981.715 -686.724 968.024 -733.687C955.2 -777.877 945.149 -822.068 925.913 -861.233C901.825 -910.449 862.66 -952.213 813.964 -978.727" stroke="white" stroke-miterlimit="10"/>
<path d="M642.057 782.997C593.361 698.255 551.424 597.051 580.711 503.298C601.506 436.752 658.174 383.03 724.546 362.235C776.881 345.772 832.856 346.812 880.859 326.883C940.992 301.755 983.45 243.7 998.527 175.769C1015.51 100.385 994.367 21.1889 1018.63 -50.2089C1036.65 -103.411 1078.42 -146.388 1125.38 -178.448C1181.01 -216.573 1241.66 -231.996 1293.3 -270.468C1337.32 -303.567 1371.11 -345.505 1375.79 -392.815C1380.47 -440.298 1349.62 -492.113 1304.57 -519.147C1264.54 -543.235 1218.09 -558.312 1170.09 -566.457C1125.38 -573.908 1079.46 -584.653 1046.88 -612.207C1011.7 -642.014 994.194 -688.284 980.85 -734.727C968.2 -779.264 959.708 -824.494 941.512 -865.392C918.464 -917.034 879.299 -961.224 830.083 -989.818" stroke="white" stroke-miterlimit="10"/>
<path d="M645.869 782.823C597.346 695.136 553.676 592.891 582.616 496.712C603.065 429.3 659.906 374.539 727.318 354.783C780 339.186 836.667 343.172 886.923 325.323C950.003 302.794 998.006 245.434 1013.43 177.848C1031.11 101.598 1005.98 20.3224 1029.03 -53.3283C1046.36 -108.61 1088.99 -152.973 1136.64 -186.766C1188.46 -223.505 1245.65 -244.82 1295.55 -281.732C1337.15 -312.579 1372.67 -352.263 1378.74 -400.093C1384.63 -447.403 1356.73 -497.139 1316.18 -525.732C1277.7 -552.766 1231.26 -568.016 1183.95 -576.508C1141.49 -583.96 1097.13 -591.411 1063.68 -616.193C1026.43 -643.92 1006.84 -689.843 993.847 -735.593C981.369 -780.477 974.437 -826.747 957.108 -869.204C935.099 -923.099 895.935 -969.716 846.199 -1000.56" stroke="white" stroke-miterlimit="10"/>
<path d="M649.854 782.65C601.332 692.19 555.582 588.559 584.522 490.127C604.451 422.022 661.639 366.047 730.09 347.158C783.119 332.601 840.306 339.187 892.988 323.417C959.014 303.661 1012.56 246.647 1028.33 179.581C1046.53 102.465 1017.59 19.2827 1039.42 -56.7941C1056.06 -114.155 1099.73 -160.078 1147.91 -195.431C1196.08 -230.783 1249.8 -257.99 1297.98 -293.343C1337.15 -321.936 1374.58 -359.542 1381.86 -407.545C1388.96 -454.508 1364.35 -502.337 1327.79 -532.664C1291.22 -562.991 1244.43 -578.241 1197.82 -586.906C1157.61 -594.357 1114.98 -598.17 1080.49 -620.525C1040.98 -645.999 1019.32 -691.75 1007.02 -736.98C994.54 -782.21 989.514 -829.693 973.051 -873.71C952.082 -929.858 912.744 -979.074 862.488 -1012" stroke="white" stroke-miterlimit="10"/>
</g>
</svg>
