<svg width="179" height="45" viewBox="0 0 179 45" fill="none" xmlns="http://www.w3.org/2000/svg">
<path d="M17 13.7639H23.775C25.9857 13.7639 27.6973 14.2631 28.9097 15.2615C30.1933 16.2599 30.7639 17.6862 30.7639 19.4691C30.7639 21.252 30.122 22.6783 28.9097 23.6767C27.626 24.6751 25.9144 25.1743 23.775 25.1743H20.4945V31.7353H17V13.7639ZM23.7036 22.4643C24.7734 22.4643 25.6292 22.1791 26.271 21.6799C26.9128 21.1807 27.1981 20.4675 27.1981 19.6117C27.1981 18.7559 26.9128 18.0428 26.271 17.5436C25.6292 17.0444 24.7734 16.7591 23.7036 16.7591H20.4945V22.4643H23.7036ZM34.4009 13.7639H46.3106V16.8304H37.8241V21.252H43.7433V24.2472H37.8241V28.6688H46.3106V31.7353H34.4009V13.7639ZM52.1585 20.6101C51.5166 20.6101 51.0174 20.3962 50.6609 19.9683C50.233 19.5404 50.0903 19.0412 50.0903 18.4707C50.0903 17.8288 50.3043 17.3296 50.7322 16.9731C51.1601 16.5452 51.6593 16.4025 52.2298 16.4025C52.8003 16.4025 53.3708 16.6165 53.7274 16.9731C54.1553 17.4009 54.3693 17.9002 54.3693 18.4707C54.3693 19.0412 54.1553 19.6117 53.7274 19.9683C53.2995 20.3962 52.8003 20.6101 52.1585 20.6101ZM52.1585 29.0967C51.5166 29.0967 51.0174 28.8827 50.6609 28.4548C50.233 28.0269 50.0903 27.5277 50.0903 26.9572C50.0903 26.3154 50.3043 25.8162 50.7322 25.4596C51.1601 25.0317 51.6593 24.8891 52.2298 24.8891C52.8003 24.8891 53.3708 25.103 53.7274 25.4596C54.1553 25.8875 54.3693 26.3867 54.3693 26.9572C54.3693 27.5277 54.1553 28.0983 53.7274 28.4548C53.2995 28.8827 52.8003 29.0967 52.1585 29.0967ZM66.8494 32.1632C65.0666 32.1632 63.4976 31.7353 62.0713 30.9509C60.645 30.1664 59.504 29.0254 58.7195 27.5991C57.935 26.1727 57.5071 24.5325 57.5071 22.8209C57.5071 21.038 57.935 19.4691 58.7195 18.0428C59.504 16.6165 60.645 15.4754 62.0713 14.691C63.4976 13.9065 65.1379 13.4786 66.8494 13.4786C68.6323 13.4786 70.2726 13.9065 71.6989 14.691C73.1252 15.4754 74.2662 16.6165 75.0507 18.0428C75.8352 19.4691 76.2631 21.1094 76.2631 22.8209C76.2631 24.6038 75.8352 26.1727 75.0507 27.5991C74.2662 29.0254 73.1252 30.1664 71.6989 30.9509C70.2726 31.7353 68.6323 32.1632 66.8494 32.1632ZM66.8494 28.8827C67.9905 28.8827 68.9889 28.5975 69.8447 28.0983C70.7005 27.599 71.4136 26.8146 71.9841 25.8875C72.4834 24.9604 72.7686 23.8907 72.7686 22.7496C72.7686 21.6086 72.4834 20.5388 71.9841 19.6117C71.4849 18.6846 70.7718 17.9715 69.8447 17.401C68.9176 16.9017 67.9192 16.6165 66.8494 16.6165C65.7797 16.6165 64.7813 16.9017 63.8542 17.401C62.9271 17.9002 62.2853 18.6846 61.786 19.6117C61.2868 20.5388 61.0016 21.6086 61.0016 22.7496C61.0016 23.8907 61.2868 24.9604 61.786 25.8875C62.2853 26.8146 62.9984 27.5277 63.8542 28.0983C64.7813 28.5975 65.7797 28.8827 66.8494 28.8827ZM88.7433 32.1632C86.9604 32.1632 85.3914 31.7353 83.9651 30.9509C82.5388 30.1664 81.4691 29.0254 80.6846 27.5991C79.9002 26.1727 79.4723 24.5325 79.4723 22.7496C79.4723 20.9667 79.9002 19.3978 80.6846 17.9715C81.4691 16.5452 82.5388 15.4041 83.9651 14.6197C85.3914 13.8352 86.9604 13.4073 88.7433 13.4073C90.3122 13.4073 91.7385 13.7639 93.0222 14.4057C94.3059 15.0475 95.3756 15.9746 96.1601 17.1157C96.9445 18.2567 97.4437 19.6117 97.5864 21.038H94.0919C93.9493 20.1823 93.5927 19.3978 93.0935 18.7559C92.5943 18.1141 92.0238 17.6149 91.2393 17.2583C90.5261 16.9017 89.6704 16.6878 88.8146 16.6878C87.7449 16.6878 86.7464 16.9731 85.8906 17.4723C85.0349 17.9715 84.3217 18.6846 83.8938 19.6117C83.3946 20.5388 83.1807 21.6086 83.1807 22.7496C83.1807 23.962 83.3946 24.9604 83.8938 25.8875C84.393 26.8146 85.0349 27.5277 85.8906 28.0269C86.7464 28.5261 87.7449 28.8114 88.8146 28.8114C89.7417 28.8114 90.5261 28.5975 91.2393 28.2409C91.9524 27.8843 92.5943 27.3851 93.0935 26.7433C93.5927 26.1014 93.878 25.317 94.0919 24.4612H97.5864C97.4437 25.9588 96.9445 27.2425 96.1601 28.3835C95.3756 29.5246 94.3059 30.4517 93.0222 31.0935C91.7385 31.878 90.3122 32.1632 88.7433 32.1632ZM101.437 13.7639H109.496C111.422 13.7639 112.919 14.1918 113.989 15.0475C115.13 15.9033 115.629 17.1157 115.629 18.6133C115.629 19.4691 115.415 20.1823 115.059 20.8241C114.702 21.4659 114.203 22.0365 113.49 22.4643V22.6783C114.345 23.1062 114.987 23.6767 115.487 24.3899C115.914 25.103 116.2 25.9588 116.2 26.8859C116.2 27.8843 115.914 28.8114 115.415 29.5246C114.916 30.2377 114.203 30.8796 113.276 31.2361C112.349 31.664 111.279 31.878 110.067 31.878H101.366V13.7639H101.437ZM109.425 21.252C110.281 21.252 110.994 21.038 111.422 20.6815C111.921 20.2536 112.135 19.7544 112.135 19.0412C112.135 18.3281 111.921 17.8288 111.422 17.401C110.922 16.9731 110.281 16.8304 109.425 16.8304H104.861V21.3233H109.425V21.252ZM109.924 28.8114C110.851 28.8114 111.493 28.5975 111.992 28.1696C112.491 27.7417 112.777 27.1712 112.777 26.5293C112.777 25.8162 112.491 25.2456 111.992 24.8177C111.493 24.3899 110.78 24.1759 109.924 24.1759H104.861V28.8114H109.924ZM120.336 13.7639H123.83V31.7353H120.336V13.7639ZM134.029 17.1157H127.396V13.7639H144.155V17.1157H137.523V31.8067H134.029V17.1157ZM150.502 13.7639H155.138L162.127 31.7353H158.347L156.778 27.5991H148.719L147.151 31.7353H143.513L150.502 13.7639ZM155.78 24.8177L152.784 16.8304H152.713L149.789 24.8177H155.78Z" fill="white"/>
<path d="M57.1236 45H0V0H103.978V1.14104H1.14104V43.7876H57.1236V45Z" fill="white"/>
<path d="M178.93 45H87.3613V43.7876H177.789V1.14104H134.216V0H178.93V45Z" fill="white"/>
</svg>
