<svg width="412" height="534" viewBox="0 0 412 534" fill="none" xmlns="http://www.w3.org/2000/svg">
<g opacity="0.4">
<path d="M-273.688 1510.15C-315.992 1483.99 -318.027 1419.73 -293.168 1376.55C-268.309 1333.38 -224.987 1304.88 -186.607 1273.19C-148.082 1241.5 -111.157 1200.94 -107.958 1151.22C-103.888 1087.69 -156.514 1029.98 -149.681 966.591C-144.448 917.308 -104.179 879.947 -61.7287 859.012C-37.7415 847.237 -10.1199 843.021 14.7394 833.426C127.116 789.232 227.135 860.611 297.206 802.606C373.093 739.804 369.167 669.587 355.211 634.987C337.33 590.647 277.144 492.373 158.662 519.413C110.543 530.461 61.2599 539.765 11.9773 536.713C-61.7287 532.206 -133.399 474.201 -138.197 400.349C-141.395 349.758 -115.227 297.277 -133.399 250.03C-145.611 218.338 -176.722 196.386 -209.867 188.536C-243.013 180.685 -277.904 185.483 -310.613 194.642" stroke="white" stroke-miterlimit="10"/>
<path d="M-270.344 1510.01C-312.648 1481.37 -316.428 1416.1 -291.569 1371.17C-267.291 1327.27 -223.532 1298.05 -184.281 1267.08C-145.465 1236.41 -107.958 1197.89 -102.87 1149.91C-96.3279 1088.56 -144.302 1031.43 -137.179 968.336C-131.509 918.181 -94.0019 879.656 -53.0057 856.541C-29.4547 843.166 -1.54239 837.061 24.0439 826.593C132.64 782.254 230.333 849.854 299.096 793.302C372.948 732.389 370.767 663.917 357.683 629.027C340.965 584.832 282.814 490.483 168.403 514.034C121.155 523.774 72.3089 531.624 23.4624 528.281C-48.3536 523.629 -117.844 468.24 -124.24 397.151C-128.601 348.014 -104.76 296.114 -122.641 249.303C-134.853 217.32 -164.655 194.642 -196.783 185.192C-229.202 175.743 -263.947 178.069 -297.238 185.483" stroke="white" stroke-miterlimit="10"/>
<path d="M-266.999 1509.86C-309.159 1478.9 -314.828 1412.46 -289.824 1365.65C-265.982 1321.02 -221.933 1291.07 -181.809 1260.69C-142.557 1231.03 -104.759 1194.69 -97.6357 1148.46C-88.6224 1089.43 -132.09 1032.59 -124.53 969.935C-118.425 919.053 -83.8249 879.22 -44.1371 853.779C-20.8769 838.805 7.18079 830.664 33.6393 819.47C138.456 774.985 233.968 838.95 301.132 783.707C372.948 724.684 372.657 657.957 360.3 622.921C344.89 579.017 288.63 488.448 178.144 508.364C131.914 516.796 83.3581 523.193 34.9477 519.704C-34.9785 514.906 -102.433 462.134 -110.284 393.662C-115.808 345.833 -94.4375 294.661 -111.883 248.431C-123.949 216.157 -152.588 192.752 -183.699 181.848C-215.536 170.654 -250.136 170.654 -283.718 176.324" stroke="white" stroke-miterlimit="10"/>
<path d="M-263.656 1509.72C-305.815 1476.43 -313.229 1408.83 -288.225 1360.13C-264.819 1314.77 -220.334 1284.09 -179.483 1254.44C-139.941 1225.8 -101.561 1191.49 -92.5478 1147C-81.2085 1090.16 -120.024 1033.9 -112.174 971.534C-105.632 919.925 -73.9396 878.784 -35.4148 851.017C-12.5907 834.444 15.7577 824.413 43.0885 812.346C144.271 768.007 237.312 828.047 303.167 774.112C372.948 716.834 374.402 651.996 362.917 616.67C348.815 572.911 294.444 486.122 188.029 502.694C142.671 509.818 94.5518 514.47 46.7229 510.981C-21.3133 506.038 -86.5874 455.883 -96.0369 390.173C-102.724 343.653 -83.8253 293.352 -100.834 247.413C-112.901 214.849 -140.231 190.862 -170.47 178.359C-201.58 165.421 -236.034 163.095 -270.053 167.02" stroke="white" stroke-miterlimit="10"/>
<path d="M-260.46 1509.57C-302.474 1473.96 -311.778 1405.19 -286.628 1354.75C-263.658 1308.66 -218.882 1277.26 -177.014 1248.19C-137.18 1220.56 -98.3649 1188.44 -87.3162 1145.69C-73.5055 1091.03 -107.669 1035.21 -99.5279 973.278C-92.5498 920.943 -63.6199 878.347 -26.5489 848.4C-4.0155 830.228 24.4783 818.162 52.6814 805.514C150.229 761.319 240.944 817.435 305.346 764.954C372.946 709.565 376.29 646.617 365.677 611C352.739 567.387 300.258 484.377 197.913 497.461C153.282 503.276 105.744 506.474 58.3511 502.84C-7.79525 497.752 -71.0341 450.068 -81.9373 387.12C-89.7876 341.908 -73.2147 292.335 -89.7877 246.832C-101.854 213.977 -128.022 189.263 -157.097 175.161C-187.626 160.478 -221.79 155.826 -256.389 158.007" stroke="white" stroke-miterlimit="10"/>
<path d="M-257.116 1509.28C-299.129 1471.19 -310.178 1401.41 -285.028 1349.08C-262.495 1302.41 -217.428 1270.14 -174.687 1241.79C-134.563 1215.18 -95.0207 1185.09 -82.2276 1144.1C-65.8 1091.76 -95.6022 1036.37 -87.025 974.732C-79.6108 921.67 -53.5884 877.621 -17.8258 845.638C4.27143 825.867 33.056 811.91 62.1313 798.39C156.045 754.487 244.288 806.531 307.236 755.359C372.801 701.86 377.889 640.657 368.149 604.749C356.373 561.427 305.782 481.906 207.653 491.791C163.895 496.153 116.793 498.042 69.8362 494.117C5.5798 488.884 -55.6237 443.817 -67.9807 383.631C-76.9941 339.727 -62.8925 290.881 -79.0293 245.814C-90.9502 212.668 -115.955 187.082 -144.013 171.672C-173.815 155.245 -207.833 148.266 -242.869 148.703" stroke="white" stroke-miterlimit="10"/>
<path d="M-253.772 1509.14C-295.64 1468.72 -308.579 1397.78 -283.428 1343.55C-261.331 1296.16 -215.974 1263.01 -172.361 1235.39C-131.946 1209.81 -91.9674 1181.89 -77.139 1142.5C-58.2401 1092.34 -83.3902 1037.53 -74.5222 976.186C-66.6719 922.397 -43.557 876.894 -9.1028 842.73C12.7037 821.215 41.6337 805.514 71.4358 791.122C161.715 747.654 247.487 795.483 309.127 745.619C372.656 693.865 379.489 634.551 370.621 598.498C360.154 555.466 311.162 479.289 217.249 485.976C174.217 489.029 127.697 489.32 81.3215 485.249C19.1003 479.87 -40.3588 437.42 -54.0242 379.851C-64.2005 337.256 -52.425 289.282 -68.2711 244.506C-80.1919 211.069 -103.888 184.756 -130.928 167.747C-160.149 149.575 -194.022 140.271 -229.348 138.962" stroke="white" stroke-miterlimit="10"/>
<path d="M-250.427 1508.99C-292.15 1466.25 -306.978 1394.14 -281.683 1338.17C-260.022 1290.05 -214.374 1256.18 -169.888 1229.29C-129.038 1204.57 -88.6228 1178.99 -71.9045 1141.33C-50.5342 1093.5 -71.1776 1038.99 -61.8735 978.076C-53.5871 923.559 -33.3797 876.603 -0.0884862 840.259C21.2819 816.999 50.5025 799.553 81.177 784.434C167.967 741.548 251.268 785.016 311.453 736.46C372.948 686.596 381.38 629.172 373.529 592.828C364.225 549.942 315.669 465.333 227.426 480.888C185.703 488.157 139.182 481.469 93.2433 477.254C32.912 471.729 -24.5118 431.751 -39.6309 376.944C-51.1157 335.657 -41.6662 288.409 -57.0761 244.215C-68.8516 210.488 -91.385 183.302 -117.553 164.985C-146.047 144.923 -179.774 133.438 -215.682 130.385" stroke="white" stroke-miterlimit="10"/>
<path d="M-247.228 1508.85C-288.951 1463.78 -305.379 1390.65 -280.229 1332.65C-259.004 1283.95 -213.065 1249.2 -167.707 1223.04C-126.566 1199.34 -85.715 1175.79 -66.9614 1139.88C-43.2651 1094.23 -59.1111 1040.3 -49.5163 979.675C-40.7937 924.432 -23.6393 875.876 8.48893 837.642C29.4232 812.637 58.9346 793.448 90.4813 777.456C173.782 735.152 254.466 774.258 313.344 727.01C372.803 679.036 382.979 623.357 376.001 586.722C367.86 544.127 321.339 461.698 237.021 475.218C196.025 481.76 150.086 472.892 104.583 468.531C46.1415 462.861 -9.39235 425.5 -25.8199 373.455C-38.4677 333.331 -31.3442 286.956 -46.318 243.197C-58.0935 209.179 -79.3185 181.122 -104.469 161.496C-132.381 139.544 -165.818 125.878 -202.162 121.081" stroke="white" stroke-miterlimit="10"/>
<path d="M-243.887 1508.7C-285.465 1461.16 -303.782 1387.02 -278.486 1327.27C-257.698 1277.84 -211.468 1242.23 -165.238 1216.78C-123.951 1193.96 -82.3735 1172.73 -61.7301 1138.57C-35.5623 1095.25 -46.7562 1041.61 -36.8706 981.419C-27.7119 925.449 -13.465 875.295 17.3548 835.025C37.8529 808.276 67.8004 787.342 100.074 770.478C179.886 728.9 258.098 763.5 315.377 717.706C372.8 671.477 384.721 617.833 378.616 580.907C371.637 538.602 327.007 458.5 246.904 469.985C206.49 475.8 161.278 464.897 116.356 460.39C59.8047 454.72 6.16078 419.684 -11.5752 370.402C-25.5313 331.586 -20.5885 285.938 -35.2715 242.616C-46.9016 208.307 -66.9636 179.377 -91.0961 158.297C-118.282 134.456 -151.718 118.61 -188.353 112.068" stroke="white" stroke-miterlimit="10"/>
<path d="M-240.542 1508.41C-282.12 1458.55 -302.036 1383.24 -276.886 1321.6C-256.388 1271.59 -210.158 1235.1 -162.911 1210.39C-121.333 1188.58 -79.1742 1169.39 -56.6409 1136.97C-28.0017 1095.83 -34.689 1042.77 -24.3673 982.873C-14.7724 926.176 -3.5784 874.422 26.0784 832.118C46.1404 803.624 76.3787 781.091 109.379 763.355C185.702 722.504 261.298 752.597 317.268 708.112C372.656 663.772 386.322 611.872 381.088 574.656C375.273 532.497 332.678 455.011 256.646 464.17C216.667 468.967 172.327 456.319 127.842 451.522C73.1804 445.707 21.281 413.143 2.38206 366.767C-12.8825 329.115 -10.2657 284.484 -24.5126 241.453C-35.9974 206.853 -54.8963 177.051 -78.1566 154.663C-104.76 128.931 -137.906 110.905 -175.123 102.618" stroke="white" stroke-miterlimit="10"/>
<path d="M-237.197 1508.26C-278.63 1456.07 -300.436 1379.61 -275.141 1316.08C-255.079 1265.34 -208.558 1227.98 -160.438 1203.99C-118.57 1183.06 -75.9747 1166.19 -51.4061 1135.52C-20.2955 1096.7 -22.3308 1044.08 -11.8637 984.472C-1.68735 927.049 6.30838 873.55 34.9476 829.356C54.5734 799.117 85.1024 774.839 118.975 756.231C191.809 716.253 264.933 741.693 319.449 698.517C372.803 656.067 388.067 606.057 383.851 568.55C379.199 526.682 338.639 466.205 266.532 458.645C226.99 454.429 183.522 447.887 139.473 443.09C86.7016 437.13 36.5467 407.182 16.4847 363.424C-0.23358 327.08 0.347998 283.176 -13.6082 240.726C-25.0929 205.69 -42.6835 175.161 -64.9261 151.319C-90.8032 123.698 -123.804 103.49 -161.456 93.4595" stroke="white" stroke-miterlimit="10"/>
<path d="M-233.998 1508.12C-275.431 1453.6 -298.836 1376.12 -273.686 1310.7C-253.915 1259.38 -207.249 1221.15 -158.257 1197.89C-116.098 1177.97 -72.9211 1163.14 -46.4626 1134.21C-12.8806 1097.58 -10.2639 1045.39 0.493997 986.217C11.1065 928.066 16.0493 872.968 43.5255 826.884C62.5698 794.756 93.6804 769.024 128.28 749.398C197.77 710.292 268.278 731.081 321.195 689.213C372.513 648.652 389.376 600.387 386.178 562.59C382.689 521.012 343.583 463.152 276.128 453.121C237.167 447.306 194.426 439.601 150.959 434.513C100.077 428.552 51.5212 401.076 30.4416 360.08C12.2696 325.044 10.8158 281.867 -2.70422 239.854C-14.0436 204.527 -30.4712 173.126 -51.6961 147.976C-76.8463 118.464 -109.701 96.0763 -147.935 84.3008" stroke="white" stroke-miterlimit="10"/>
<path d="M-230.656 1507.97C-271.943 1450.99 -297.093 1372.48 -271.943 1305.17C-252.608 1253.13 -205.651 1214.02 -155.787 1191.63C-113.337 1172.59 -69.7239 1160.09 -41.2301 1132.9C-5.32205 1098.45 2.0921 1046.84 13.1407 987.961C24.1893 929.084 26.0792 872.387 52.3924 824.267C71.0006 790.395 102.402 763.064 137.874 742.566C204.02 704.332 271.766 720.468 323.374 679.908C372.657 641.238 391.265 594.863 388.939 556.774C386.468 515.488 349.106 460.099 286.013 447.742C247.633 440.328 205.619 431.46 162.588 426.081C113.596 419.975 66.6393 394.97 44.5421 356.736C24.9163 322.864 21.2819 280.559 8.19796 238.981C-3.14141 203.364 -18.1152 170.945 -38.6133 144.632C-63.0366 113.085 -95.8917 88.662 -134.416 75.142" stroke="white" stroke-miterlimit="10"/>
<path d="M-227.313 1507.68C-268.6 1448.37 -295.35 1368.85 -270.345 1299.5C-251.301 1246.88 -204.344 1206.75 -153.462 1185.09C-110.721 1166.92 -66.527 1156.74 -36.1433 1131.16C2.23612 1099.03 14.3024 1047.86 25.6417 989.27C37.2719 929.665 35.8181 871.369 61.259 821.215C79.2857 785.597 111.268 756.667 147.322 735.152C210.125 697.935 275.108 709.275 325.408 670.168C372.655 633.388 392.863 588.757 391.7 550.378C390.391 509.236 354.629 456.319 296.042 441.927C258.39 432.623 216.957 422.883 174.362 417.358C127.26 411.253 81.9024 388.719 58.7876 353.102C37.708 320.538 32.0383 278.96 19.2451 237.818C8.05115 201.91 -5.75959 168.619 -25.24 140.852C-48.791 107.416 -81.6462 80.8117 -120.607 65.5472" stroke="white" stroke-miterlimit="10"/>
<path d="M-223.969 1507.54C-265.111 1445.9 -293.605 1365.21 -268.745 1294.12C-249.992 1240.77 -202.89 1199.77 -151.136 1178.99C-108.25 1161.69 -63.4735 1153.69 -31.0545 1129.99C9.7963 1100.05 26.5146 1049.31 38.1447 991.16C50.2109 930.828 45.7043 870.788 69.9822 818.743C87.4274 781.236 119.846 750.852 156.772 728.319C216.376 691.975 278.598 698.662 327.444 660.864C372.656 625.828 394.463 583.233 394.317 544.563C394.026 503.712 360.008 452.976 305.783 436.548C268.712 425.354 228.006 414.742 185.993 408.927C140.781 402.675 96.8769 382.904 72.8897 349.904C50.211 318.793 42.6514 277.797 30.149 237.092C19.1004 200.893 6.59798 166.584 -12.0102 137.654C-34.8343 102.182 -67.5441 73.5429 -107.086 56.5338" stroke="white" stroke-miterlimit="10"/>
<path d="M-220.771 1507.39C-261.767 1443.28 -292.005 1361.72 -267.146 1288.6C-248.828 1234.67 -201.436 1192.65 -148.809 1172.59C-105.632 1156.16 -60.2749 1150.35 -25.966 1128.4C17.2108 1100.63 38.7265 1050.47 50.6474 992.468C63.2951 931.41 55.4449 869.77 78.7051 815.836C95.5688 776.584 128.569 744.746 166.222 721.195C222.482 686.014 281.941 687.759 329.334 651.269C372.511 618.123 395.917 577.273 396.789 538.312C397.661 497.752 365.388 448.905 315.523 430.878C279.179 417.649 239.055 406.31 197.478 400.349C154.301 394.098 111.56 376.798 86.7008 346.415C62.4229 316.612 52.9734 276.489 40.7618 236.219C29.7132 199.73 18.6646 164.549 0.928672 134.165C-21.0232 96.8032 -53.733 65.9833 -93.7115 47.2297" stroke="white" stroke-miterlimit="10"/>
<path d="M-217.428 1507.25C-258.424 1440.81 -290.262 1358.09 -265.548 1283.22C-247.521 1228.56 -200.128 1185.67 -146.485 1166.48C-103.017 1150.93 -57.2233 1147.29 -20.8792 1127.09C24.769 1101.5 50.9368 1051.93 63.1484 994.213C76.2323 932.428 65.1837 869.189 87.4263 813.219C103.708 772.223 137.436 738.931 175.67 714.217C228.732 680.054 285.284 676.856 331.368 641.82C372.364 610.418 397.514 571.458 399.404 532.351C401.294 492.082 371.056 445.125 325.262 425.354C289.79 410.09 250.103 398.023 208.961 391.772C167.82 385.521 126.533 370.983 100.801 343.071C74.7785 314.723 63.5846 275.18 51.8091 235.347C40.9058 198.567 31.1656 162.513 14.1565 130.821C-6.92308 91.4242 -39.7782 58.5691 -80.0475 38.071" stroke="white" stroke-miterlimit="10"/>
<path d="M-214.084 1507.1C-254.935 1438.34 -288.517 1354.6 -263.803 1277.7C-246.067 1222.45 -198.529 1178.55 -143.867 1160.09C-100.109 1145.4 -53.7337 1144.1 -15.4996 1125.63C32.62 1102.23 63.4399 1053.09 75.9422 995.812C89.6076 933.3 75.2154 868.462 96.5857 810.457C112.286 767.716 146.595 732.971 185.556 707.094C235.42 673.948 289.064 665.952 333.84 632.225C372.801 602.714 399.55 565.643 402.458 526.1C405.365 485.976 377.162 440.909 335.585 419.684C300.549 402.239 261.297 389.737 220.737 383.34C181.34 377.089 141.362 365.168 114.903 339.727C87.1362 312.978 74.1978 273.872 62.713 234.475C51.9551 197.404 43.5232 160.333 27.3864 127.478C7.1791 86.1907 -25.676 51.1549 -66.5268 28.9123" stroke="white" stroke-miterlimit="10"/>
<path d="M-210.739 1506.81C-251.589 1435.72 -286.771 1350.82 -262.202 1272.17C-244.757 1216.35 -197.219 1171.28 -141.539 1153.84C-97.6357 1140.03 -50.6791 1140.9 -10.4098 1124.18C40.0358 1103.1 75.6531 1054.4 88.3009 997.411C102.548 934.172 84.8118 867.735 105.165 807.84C120.284 763.209 155.319 727.156 194.717 700.261C241.382 668.278 292.264 655.34 335.586 623.066C372.512 595.299 400.86 560.118 404.786 520.43C408.711 480.597 382.834 437.13 345.036 414.451C311.454 394.244 272.493 381.596 232.224 374.763C194.716 368.512 156.192 359.499 128.861 336.384C99.3495 311.379 84.6665 272.563 73.4725 233.602C62.86 196.241 55.7365 158.297 40.472 123.989C21.1369 80.6664 -11.7182 43.5953 -53.0051 19.6082" stroke="white" stroke-miterlimit="10"/>
<path d="M-207.541 1506.66C-248.247 1433.1 -284.882 1347.33 -260.604 1266.65C-243.449 1210.1 -195.766 1164.16 -139.214 1147.58C-95.0199 1134.5 -47.4818 1137.84 -5.32257 1122.87C47.5945 1103.97 87.8638 1055.85 100.802 999.155C115.631 935.19 94.5511 867.008 113.886 805.223C128.424 758.848 164.187 721.631 204.165 693.283C247.633 662.463 295.607 644.582 337.475 613.617C372.366 587.74 402.168 554.448 407.256 514.325C412.199 474.637 388.793 432.914 354.775 408.927C322.502 386.248 283.541 373.455 243.853 366.331C208.236 360.08 171.019 353.829 142.961 333.04C111.706 309.78 95.278 271.255 84.3748 232.876C73.9077 195.223 68.0926 156.408 53.5549 120.79C35.0921 75.5782 2.23701 36.4719 -39.4861 10.5949" stroke="white" stroke-miterlimit="10"/>
<path d="M-204.197 1506.52C-244.903 1430.63 -283.282 1343.7 -259.004 1261.12C-242.286 1203.99 -194.312 1157.03 -136.888 1141.19C-92.4026 1128.98 -44.4284 1134.5 -0.233933 1121.27C55.1545 1104.7 100.076 1056.87 113.305 1000.61C128.57 935.917 104.292 866.136 122.609 802.316C136.565 754.196 173.2 715.671 213.615 686.014C254.03 656.358 299.096 633.533 339.511 603.877C372.366 579.889 403.768 548.343 409.873 508.073C415.834 468.676 395.19 428.552 364.516 403.112C333.841 377.671 294.59 364.878 255.483 357.609C221.756 351.357 185.993 348.159 157.064 329.406C123.918 308.035 105.746 269.656 95.4239 231.713C84.9568 193.769 80.7408 153.936 66.9301 117.01C49.3395 69.9085 16.339 28.6215 -25.8202 1" stroke="white" stroke-miterlimit="10"/>
</g>
</svg>
